<?xml version="1.0" standalone="no"?>
<!DOCTYPE svg PUBLIC "-//W3C//DTD SVG 20010904//EN"
 "http://www.w3.org/TR/2001/REC-SVG-20010904/DTD/svg10.dtd">
<svg version="1.0" xmlns="http://www.w3.org/2000/svg"
 width="696.000000pt" height="696.000000pt" viewBox="0 0 696.000000 696.000000"
 preserveAspectRatio="xMidYMid meet">
<metadata>
Created by potrace 1.14, written by Peter Selinger 2001-2017
</metadata>
<g transform="translate(0.000000,696.000000) scale(0.100000,-0.100000)"
fill="#000000" stroke="none">
<path d="M1697 6630 c-33 -33 -53 -46 -66 -43 -16 4 -19 -1 -19 -30 0 -35 -26
-87 -34 -70 -2 4 -3 25 -2 46 2 49 -12 47 -27 -4 -22 -72 -82 -96 -130 -53
-21 19 -28 18 -22 -6 3 -11 1 -21 -3 -21 -70 -11 -104 -5 -104 15 0 17 -23 27
-39 17 -19 -12 23 -56 66 -69 21 -6 62 -33 91 -60 30 -27 68 -54 85 -59 43
-12 49 -53 13 -77 -15 -9 -26 -25 -26 -36 0 -19 2 -20 30 -5 39 20 40 20 40
-15 0 -25 4 -30 24 -30 13 0 26 -5 28 -11 6 -18 41 -2 62 28 l19 26 -38 -7
c-35 -7 -38 -6 -25 9 10 12 25 16 52 13 37 -3 49 4 27 17 -6 4 -8 14 -5 22 5
12 1 14 -18 11 -14 -3 -30 -2 -37 3 -18 11 -3 39 21 39 12 0 18 5 15 10 -10
16 -34 12 -66 -11 -36 -26 -56 -19 -74 23 -17 41 -4 59 24 34 29 -27 62 -13
55 23 -4 17 0 31 9 39 19 16 47 5 47 -19 0 -28 39 -43 74 -29 22 8 27 15 23
31 -4 15 0 23 14 26 26 7 24 12 -17 49 -36 34 -38 60 -3 51 11 -3 19 -1 19 4
0 12 -41 28 -57 22 -9 -4 -13 5 -13 27 0 25 4 31 15 26 17 -6 55 13 55 27 0 5
-10 5 -21 2 -20 -7 -21 -5 -15 29 4 20 6 36 4 35 -2 0 -24 -22 -51 -49z m1
-116 c30 -52 46 -109 38 -130 -6 -15 -10 -14 -36 14 -16 18 -37 32 -48 32 -29
0 -56 -26 -58 -56 -1 -16 -3 -31 -3 -34 -1 -3 -14 10 -30 29 -32 39 -47 35
-57 -14 -3 -19 -11 -35 -16 -35 -20 0 -70 43 -79 68 -13 33 1 41 62 40 32 -1
52 4 64 16 10 9 25 14 35 11 23 -7 55 26 72 72 15 41 26 38 56 -13z"/>
<path d="M2607 6674 c-1 -1 -22 -4 -46 -7 -25 -3 -50 -12 -57 -21 -8 -12 -20
-15 -38 -10 -22 5 -26 3 -26 -15 0 -20 -23 -27 -67 -22 -7 1 -17 -7 -22 -18
-6 -11 -21 -21 -33 -23 -15 -2 -24 -11 -26 -26 -2 -12 -18 -33 -35 -46 -54
-40 -63 -41 -28 -3 45 47 24 48 -52 2 -67 -41 -65 -40 -112 -18 -33 16 -36 16
-52 0 -16 -16 -16 -17 6 -17 30 0 58 -16 72 -41 10 -19 9 -20 -10 -9 -24 12
-26 11 -91 -39 -58 -44 -157 -91 -192 -91 -33 0 -32 2 -13 -43 19 -46 19 -47
-2 -47 -10 0 -43 -16 -73 -35 -86 -54 -105 -64 -135 -69 -37 -7 -49 -20 -38
-40 8 -15 12 -15 36 4 23 19 27 19 27 5 0 -9 -14 -30 -31 -46 -30 -28 -33 -29
-55 -14 -52 34 -76 11 -43 -42 l22 -36 -29 6 c-33 6 -57 -4 -96 -41 -39 -36
-35 -46 8 -17 20 14 41 22 46 19 12 -8 3 -17 -42 -41 -63 -34 -89 -54 -84 -67
3 -8 -4 -16 -17 -19 -19 -5 -21 -10 -15 -41 6 -29 4 -36 -9 -36 -25 0 -106
-90 -131 -146 -24 -55 -124 -154 -156 -154 -19 0 -21 -7 -18 -52 1 -18 -5 -30
-19 -38 -19 -10 -20 -9 -11 17 10 27 9 27 -5 8 -9 -11 -18 -30 -21 -42 -3 -12
-18 -26 -33 -31 -16 -6 -27 -17 -28 -30 -3 -32 -50 -107 -104 -164 -27 -29
-49 -59 -48 -68 3 -37 -3 -52 -37 -89 -23 -26 -36 -50 -36 -70 -1 -36 -5 -37
-30 -14 -17 15 -18 14 -12 -29 4 -30 2 -48 -5 -53 -18 -11 -24 0 -24 45 0 26
7 48 19 61 20 23 20 56 0 77 -16 16 -34 -2 -39 -38 -3 -17 -15 -27 -42 -37
-21 -7 -44 -18 -51 -24 -11 -9 -14 -5 -14 24 0 19 -7 40 -15 47 -20 17 -23 12
-29 -37 -5 -34 -1 -45 19 -67 21 -22 28 -25 45 -16 11 6 20 15 20 19 0 15 39
19 50 5 15 -17 5 -34 -19 -34 -26 0 -37 -18 -45 -70 l-7 -45 35 34 c39 38 43
38 55 -7 11 -37 1 -51 -15 -21 -12 23 -12 22 -27 -7 -20 -38 -17 -54 12 -83
26 -26 15 -43 -20 -34 -17 5 -18 2 -10 -19 11 -29 -2 -59 -18 -43 -6 6 -12 22
-15 35 -2 14 -5 27 -6 30 0 3 -5 -3 -11 -13 -8 -14 -6 -28 10 -58 12 -22 21
-50 21 -62 0 -31 -30 -77 -86 -131 -45 -43 -49 -49 -49 -96 0 -38 -4 -52 -16
-55 -11 -4 -17 -17 -17 -39 0 -68 -46 -116 -103 -108 -9 2 -21 -4 -28 -12 -9
-11 -8 -17 4 -30 21 -21 32 -20 44 1 8 15 11 14 22 -12 7 -17 24 -42 37 -57
l24 -26 3 -349 c3 -341 7 -423 25 -493 5 -19 11 -53 15 -75 12 -87 26 -154 46
-225 11 -41 22 -82 24 -90 7 -30 133 -387 159 -449 15 -35 39 -82 53 -105 26
-41 120 -166 132 -176 3 -3 28 -32 55 -65 28 -33 57 -67 65 -76 9 -9 48 -52
86 -95 79 -88 101 -112 271 -285 477 -486 769 -721 1106 -887 186 -91 307
-138 392 -153 48 -8 147 -10 325 -6 282 7 361 13 403 32 10 4 26 4 35 0 46
-20 119 -26 333 -26 209 0 311 7 321 22 3 5 28 12 55 15 27 3 72 9 99 15 28 5
59 11 70 13 11 2 101 27 200 54 99 28 196 54 215 57 19 4 55 20 80 36 24 17
55 32 67 35 31 8 29 19 -7 34 -24 10 -40 28 -27 31 1 0 22 3 47 6 40 5 77 21
106 48 6 5 44 30 83 55 115 72 280 188 406 285 64 50 134 100 156 113 55 31
84 65 119 140 l29 63 30 -16 c17 -8 32 -15 34 -15 2 0 7 18 10 40 6 49 39 96
72 104 31 8 33 26 2 26 -33 0 -50 -15 -251 -212 -100 -97 -217 -207 -261 -243
-97 -81 -296 -214 -425 -285 -136 -75 -210 -127 -210 -147 0 -5 -19 -9 -43 -9
-30 1 -52 -6 -71 -22 -20 -15 -42 -22 -73 -22 -29 0 -55 -7 -73 -20 -39 -28
-66 -36 -137 -44 -35 -4 -68 -8 -75 -11 -7 -2 -31 -7 -53 -10 -22 -3 -71 -12
-110 -20 -38 -7 -97 -17 -130 -20 -33 -4 -71 -9 -85 -11 -14 -3 -154 -7 -313
-9 -214 -3 -301 -8 -340 -20 -75 -21 -164 -33 -179 -24 -14 9 73 51 132 64 75
16 65 26 -22 23 l-87 -3 -50 -49 -50 -49 -63 6 c-152 14 -394 94 -607 201
-134 68 -348 197 -426 258 -5 4 -54 42 -109 83 -54 42 -117 93 -140 113 -91
82 -245 243 -319 335 -99 123 -187 211 -200 198 -10 -10 20 -60 60 -99 30 -28
20 -29 -15 -1 -33 25 -142 129 -161 152 -21 26 9 23 38 -4 12 -12 25 -18 28
-15 9 9 -59 66 -79 66 -36 0 -145 127 -288 335 -45 66 -88 127 -96 135 -21 22
-18 -3 7 -51 28 -56 17 -61 -15 -6 -17 28 -26 59 -26 86 0 28 -5 44 -15 47
-10 4 -13 14 -9 30 4 14 2 24 -4 24 -10 0 -47 88 -90 215 -22 65 -99 321 -108
360 -23 101 -43 202 -49 250 -4 32 -9 68 -11 80 -9 40 -14 134 -19 330 -3 110
-7 209 -9 220 -3 11 -5 25 -5 32 -1 6 -9 13 -18 15 -15 3 -15 4 1 20 9 9 23
15 30 12 20 -8 25 4 31 76 3 35 9 80 14 100 4 19 7 49 7 65 -1 25 -5 30 -24
27 -27 -4 -31 25 -5 35 24 9 33 23 33 52 0 13 13 51 29 85 15 34 43 102 61
151 80 225 105 287 157 393 30 62 79 151 109 197 47 77 177 255 207 287 32 34
214 258 304 373 236 305 477 530 783 730 227 148 367 218 650 325 47 18 94 36
105 41 12 5 -22 8 -88 6 -60 -1 -109 -2 -110 -3z"/>
<path d="M3127 6674 c-1 -1 -22 -4 -47 -7 -282 -35 -903 -286 -864 -349 3 -5
18 3 32 18 40 39 102 68 144 65 30 -1 40 3 58 28 17 24 40 36 114 60 96 31
131 39 179 40 19 1 31 7 34 19 3 13 22 22 66 31 34 7 76 19 94 28 17 8 86 25
152 37 66 12 122 24 125 26 4 5 -82 9 -87 4z"/>
<path d="M4430 6677 c3 -3 79 -33 170 -67 199 -75 325 -134 485 -225 394 -223
737 -531 994 -890 39 -55 75 -104 79 -110 57 -71 239 -400 299 -540 83 -194
197 -546 229 -710 42 -215 44 -251 45 -805 0 -422 -3 -493 -21 -514 -5 -7 -30
-89 -54 -182 -74 -279 -180 -564 -290 -779 -60 -117 -72 -175 -37 -175 10 0
31 10 47 22 25 20 27 20 14 3 -8 -11 -19 -23 -23 -26 -5 -3 -11 -26 -14 -50
l-6 -44 33 33 c36 36 49 33 76 -19 20 -40 18 -43 -12 -20 -32 25 -42 26 -66 5
-23 -22 -38 -10 -63 55 -13 34 -25 51 -35 49 -20 -4 -73 -114 -72 -149 0 -17
-5 -29 -12 -29 -14 0 -115 -99 -143 -140 -9 -14 -19 -27 -22 -30 -3 -3 -24
-27 -45 -55 -69 -88 -318 -327 -436 -419 -281 -217 -557 -378 -860 -499 -135
-54 -170 -71 -170 -81 0 -34 479 128 686 232 137 69 429 275 519 367 42 42 75
87 70 95 -2 4 13 10 34 13 39 5 137 71 226 150 37 34 48 38 51 16 1 -5 2 -12
3 -16 2 -14 45 -58 74 -76 21 -14 38 -16 70 -11 54 9 124 6 147 -6 36 -19 99
-19 137 1 43 22 54 24 50 7 -1 -7 7 -13 18 -14 11 -1 34 -7 50 -14 43 -17 282
-23 288 -7 8 21 2 741 -6 759 -5 9 -24 19 -42 22 -19 4 -65 19 -102 35 -37 15
-96 36 -131 46 -70 21 -89 37 -95 80 -3 26 0 47 19 144 5 22 98 325 167 541
18 58 44 147 58 198 17 65 29 94 41 98 35 11 11 64 -29 64 -26 0 -26 1 -10 17
16 16 19 16 46 0 16 -9 33 -17 38 -17 5 0 8 32 7 71 -2 39 0 78 3 85 8 22 22
16 16 -6 -3 -11 0 -20 6 -20 6 0 11 6 12 13 0 6 3 21 5 32 10 44 6 291 -5 318
-9 23 -14 26 -29 18 -58 -31 -65 -149 -11 -166 16 -5 19 -16 19 -61 0 -48 -3
-56 -23 -63 -28 -11 -51 -60 -51 -108 0 -27 -4 -33 -21 -33 -12 0 -27 -6 -34
-12 -11 -11 -13 -7 -7 21 3 18 6 37 6 42 0 5 6 9 14 9 15 0 56 75 56 102 0 8
-11 20 -25 26 -18 8 -25 19 -25 40 0 15 -7 38 -16 50 -16 23 -7 31 13 11 6 -6
17 -8 23 -4 21 13 7 217 -21 299 -18 55 -20 72 -11 87 19 31 15 106 -7 121
-24 17 -31 42 -35 125 -2 37 -7 84 -11 103 -3 19 -8 44 -10 55 -2 11 -4 20 -5
20 -1 0 -3 7 -5 15 -2 8 -10 44 -18 80 -9 36 -18 85 -22 110 -4 24 -8 47 -10
50 -2 3 -6 23 -9 45 -14 92 -18 112 -28 143 -7 25 -7 46 3 79 12 45 12 46 -14
65 -17 13 -31 36 -38 64 l-12 45 -19 -21 c-11 -12 -25 -19 -31 -17 -19 6 -20
53 -1 72 17 16 16 17 -24 11 -23 -3 -42 -3 -42 0 0 3 9 19 21 35 l20 29 -21 0
c-16 0 -27 12 -42 48 -11 26 -47 90 -78 142 -69 114 -100 174 -100 193 0 7
-14 26 -31 43 -23 22 -29 36 -26 57 3 21 -1 27 -14 27 -36 0 -103 126 -98 184
2 37 -1 44 -21 49 -27 7 -16 33 18 42 25 7 25 8 7 15 -13 5 -29 1 -45 -10 -57
-38 -55 -40 -32 30 3 8 -12 -2 -33 -22 -20 -21 -41 -38 -45 -38 -4 0 -10 12
-13 28 -4 15 -40 62 -82 106 -41 43 -78 89 -81 102 -5 20 -11 23 -40 19 -25
-3 -34 0 -39 14 -12 38 -312 303 -435 385 -58 38 -80 32 -35 -10 42 -39 22
-40 -32 -3 -76 54 -77 55 -32 69 21 7 46 21 55 32 17 17 16 18 -14 12 -37 -8
-40 1 -16 52 18 38 13 79 -11 88 -12 4 -14 1 -7 -12 18 -38 -12 -108 -42 -96
-7 3 -12 -6 -11 -23 0 -25 -3 -28 -33 -26 -19 0 -57 16 -85 33 -47 30 -125 73
-217 120 -19 10 -51 21 -70 25 -46 8 -276 19 -270 12z m2089 -4759 c-3 -46 16
-93 32 -83 5 4 9 13 9 21 0 18 5 18 35 -2 14 -9 34 -14 44 -11 10 2 24 1 31
-3 15 -9 -7 -56 -44 -91 -14 -13 -26 -29 -26 -35 0 -5 14 -30 32 -55 27 -37
28 -41 8 -24 -59 48 -69 71 -49 104 17 26 3 71 -21 71 -20 0 -24 -9 -21 -42 1
-11 -4 -15 -17 -11 -11 2 -31 -6 -49 -21 -45 -38 -61 -34 -68 18 -10 61 7 156
27 156 5 0 7 -4 4 -9 -11 -17 -16 -126 -7 -140 14 -21 34 -2 27 26 -6 23 -6
24 19 7 23 -15 25 -15 31 1 4 9 -1 33 -10 52 -11 24 -15 46 -10 67 13 61 26
63 23 4z m198 -200 c0 -40 4 -95 8 -121 7 -44 6 -49 -14 -54 -23 -6 -35 -36
-29 -74 5 -35 23 -33 41 3 9 18 17 27 18 21 1 -7 3 -17 4 -23 1 -5 3 -17 4
-25 1 -18 31 -20 32 -2 7 84 -4 181 -23 205 -7 8 -7 12 0 12 6 0 20 -12 32
-27 18 -23 21 -38 17 -83 -5 -67 6 -102 28 -94 9 4 13 13 10 23 -3 10 1 38 9
63 14 49 5 90 -27 117 -14 11 -15 17 -4 40 16 31 15 39 -1 68 -12 21 -11 21
18 7 16 -9 34 -13 40 -9 16 10 12 -4 -15 -43 -31 -46 -31 -56 1 -81 27 -21 50
-28 40 -13 -11 18 -14 62 -4 68 30 19 29 -66 -1 -101 -20 -22 -23 -81 -5 -78
18 3 22 -36 21 -224 0 -114 -4 -178 -11 -184 -6 -5 -27 -22 -46 -39 -42 -37
-60 -39 -54 -6 6 38 -11 39 -45 5 -22 -22 -38 -29 -58 -27 -16 2 -29 9 -29 16
-1 6 -2 17 -3 22 0 6 -8 10 -17 10 -9 0 -29 7 -44 17 -27 16 -30 15 -76 -12
-37 -21 -45 -23 -33 -9 9 10 15 28 13 39 -3 19 -60 75 -76 75 -16 0 -8 -37 11
-54 21 -19 18 -43 -8 -62 -24 -17 -36 -16 -36 4 0 37 -15 44 -46 21 -28 -19
-31 -20 -48 -5 -25 22 -35 20 -76 -15 l-35 -31 0 30 c0 22 6 32 19 37 11 3 23
15 26 26 12 36 -15 189 -37 216 -14 17 -1 100 16 106 10 4 12 -1 8 -15 -4 -15
4 -29 29 -49 l34 -29 -33 11 c-18 6 -35 9 -38 7 -2 -3 5 -25 16 -50 21 -48 28
-86 29 -152 l1 -39 45 47 c25 26 50 44 55 41 14 -9 28 28 19 50 -14 35 -10 51
7 27 23 -33 34 -27 29 15 -4 32 -18 52 -36 53 -18 0 -52 -44 -55 -71 -5 -39
-12 -48 -24 -29 -5 9 -3 27 6 48 18 45 18 66 -2 83 -27 22 -33 52 -18 82 19
37 23 34 17 -12 -4 -31 -1 -42 17 -59 32 -30 40 -20 33 41 -6 60 9 56 26 -7
12 -46 69 -143 88 -150 22 -9 15 36 -11 74 -13 19 -27 46 -31 60 -7 23 -5 23
24 -8 26 -28 34 -31 51 -22 27 14 27 50 0 50 -24 0 -25 18 -3 64 16 33 15 39
-2 91 -18 52 -18 56 -2 72 16 16 17 15 17 -28 0 -47 18 -82 52 -100 17 -9 20
-9 16 2 -3 8 -9 25 -13 39 l-7 25 23 -22 c31 -28 66 -41 96 -35 29 6 29 26 -2
77 -14 22 -25 46 -25 54 0 16 39 81 49 81 3 0 7 -33 8 -72z m189 -654 c-6 -31
-16 -45 -16 -21 0 18 10 47 16 47 3 0 2 -12 0 -26z"/>
<path d="M6591 1528 c-7 -18 -4 -27 11 -38 21 -17 36 -105 23 -137 -6 -17 -7
-17 -21 2 -15 19 -15 18 -9 -15 4 -25 1 -41 -10 -55 -16 -19 -16 -19 -10 8 3
17 2 26 -3 23 -16 -10 -31 18 -25 46 3 15 8 26 12 24 16 -10 34 14 33 43 -1
37 -30 101 -49 108 -24 9 -27 -6 -9 -43 17 -36 14 -72 -7 -85 -5 -4 -10 -24
-11 -45 -1 -51 -17 -76 -49 -79 -15 -2 -38 -17 -53 -34 -14 -17 -30 -28 -35
-25 -16 9 -69 -52 -69 -80 0 -20 5 -26 21 -26 12 0 27 8 34 17 11 15 15 15 49
-6 40 -25 46 -21 16 11 -24 26 -27 78 -4 78 21 0 47 -15 86 -50 18 -17 39 -28
47 -25 8 3 25 -2 39 -11 13 -9 35 -17 48 -19 12 -1 37 -15 56 -30 29 -25 33
-26 43 -10 31 51 30 51 69 33 34 -17 36 -17 54 3 21 22 22 53 2 119 -8 25 -14
55 -15 67 -1 20 1 21 16 7 9 -8 19 -11 22 -6 7 10 2 101 -8 155 -8 41 -20 56
-22 27 -2 -24 -27 -51 -70 -76 -32 -18 -33 -18 -46 0 -10 13 -16 15 -21 8 -22
-36 -69 16 -70 76 -1 21 -5 43 -9 50 -13 20 -47 14 -56 -10z m273 -127 c3 -5
-1 -28 -10 -52 -22 -63 -23 -66 -3 -138 11 -43 14 -72 8 -83 -9 -16 -12 -16
-52 2 -55 25 -76 25 -86 -2 l-8 -21 -15 21 c-11 16 -24 21 -52 20 -21 -1 -41
4 -45 11 -5 7 -23 14 -42 15 -19 2 -37 4 -41 5 -4 0 -13 19 -19 41 -11 36 -10
42 7 54 22 17 32 12 45 -20 7 -21 12 -23 29 -14 28 15 73 97 72 131 0 16 3 27
8 24 23 -14 72 -145 54 -145 -3 0 -23 10 -43 22 l-36 21 24 -26 c16 -17 21
-32 17 -44 -7 -16 -10 -15 -31 10 -28 32 -32 33 -30 9 2 -34 27 -50 59 -41 16
5 34 13 40 19 16 16 25 12 19 -9 -4 -15 0 -19 19 -19 12 0 33 -3 45 -7 20 -6
22 -4 17 21 -4 28 -22 105 -30 132 -4 14 48 72 65 72 5 0 12 -4 15 -9z"/>
<path d="M74 6655 c-4 -8 -4 -29 -2 -45 5 -37 -14 -25 -32 20 -7 17 -16 30
-21 30 -10 0 -11 -6 -11 -45 0 -55 3 -65 17 -65 8 0 15 5 15 12 0 31 19 -12
24 -53 3 -25 7 -52 10 -60 3 -7 10 -33 16 -56 11 -44 30 -59 30 -24 0 10 -7
38 -15 62 -14 38 -14 48 -1 88 14 42 14 121 0 143 -8 13 -24 9 -30 -7z"/>
<path d="M4255 6630 c-27 -12 -47 -15 -71 -10 -21 5 -37 4 -41 -3 -8 -14 28
-39 46 -32 9 4 22 -3 32 -16 16 -22 18 -22 42 -6 29 19 91 27 127 17 14 -4 33
-4 43 -1 16 6 17 9 5 19 -49 40 -133 55 -183 32z"/>
<path d="M3377 6564 c-1 -1 -24 -5 -51 -8 -27 -4 -53 -9 -57 -11 -4 -3 -42 -7
-85 -10 -56 -3 -82 -9 -90 -20 -7 -9 -37 -20 -71 -25 -71 -11 -186 -45 -311
-94 -167 -64 -320 -138 -355 -170 -17 -16 -29 -20 -35 -14 -7 7 -28 -4 -64
-33 -30 -24 -65 -52 -79 -61 -247 -178 -320 -238 -491 -410 -182 -183 -295
-335 -285 -384 3 -20 1 -23 -13 -19 -77 24 -318 -466 -460 -937 -21 -69 -41
-144 -45 -165 -16 -94 -27 -196 -41 -368 -3 -44 -7 -96 -9 -115 -11 -130 -17
-451 -8 -462 13 -17 20 -48 28 -123 9 -80 27 -201 42 -270 3 -16 7 -39 8 -50
2 -11 11 -49 20 -85 18 -70 22 -87 32 -140 9 -54 11 -72 12 -114 1 -33 3 -37
16 -26 12 10 16 9 21 -5 4 -9 8 -24 9 -33 1 -10 5 -26 9 -37 4 -11 13 -33 19
-50 5 -16 46 -103 89 -193 85 -177 158 -343 158 -360 0 -6 10 -12 22 -14 29
-4 74 -72 82 -122 7 -43 21 -66 42 -66 17 0 116 -100 142 -144 22 -37 17 -51
-15 -39 -16 6 -16 5 -4 -10 20 -26 55 -21 91 13 31 29 32 31 16 55 -9 14 -41
50 -71 81 -107 111 -209 262 -202 301 3 17 -2 22 -24 27 -21 4 -27 10 -22 21
3 10 -4 27 -19 43 -14 15 -34 43 -44 62 -10 19 -21 37 -24 40 -3 3 -31 57 -63
121 -111 226 -219 501 -203 516 8 9 7 10 53 -102 22 -54 45 -101 52 -103 13
-4 7 33 -26 143 -36 122 -34 112 -67 275 -27 134 -34 179 -41 250 -3 25 -7 54
-9 65 -19 95 -28 525 -13 587 14 58 129 167 163 154 8 -3 12 -11 9 -17 -8 -12
21 -48 38 -45 46 7 51 58 8 76 -97 40 -188 -18 -247 -156 l-25 -59 6 75 c3 41
8 86 10 100 10 79 17 119 25 150 5 19 11 52 14 74 4 21 8 42 11 46 2 3 7 22
10 40 19 106 103 371 150 477 90 196 328 604 391 670 7 7 10 21 7 32 -6 24 42
79 96 109 63 36 53 13 -41 -92 -23 -26 -23 -30 5 -44 99 -51 191 -116 235
-168 50 -58 67 -27 36 66 -19 58 -23 62 -91 84 -28 10 -63 26 -76 37 -21 16
-24 24 -17 52 11 50 76 168 114 207 36 38 61 79 52 87 -3 3 16 16 42 30 57 30
261 178 319 232 52 47 45 60 -13 26 -49 -29 -55 -30 -48 -11 3 8 25 24 49 37
23 13 50 35 59 49 16 27 46 36 46 14 0 -7 -7 -19 -15 -28 -17 -17 -19 -26 -5
-26 6 0 100 45 211 100 110 55 217 102 237 106 29 6 47 2 83 -18 44 -23 47
-23 58 -7 24 39 163 89 253 91 32 1 58 5 58 9 0 12 108 35 212 45 167 15 259
19 448 19 189 0 332 -9 351 -21 4 -2 23 -6 43 -9 20 -3 52 -7 72 -10 19 -3 44
-10 55 -15 10 -6 19 -9 19 -6 0 13 348 -108 385 -134 6 -4 33 -12 60 -19 28
-7 66 -16 85 -21 40 -11 120 -60 120 -74 0 -8 33 -41 72 -72 7 -5 47 -32 88
-59 98 -64 208 -145 242 -179 27 -28 30 -55 8 -81 -19 -23 -20 -59 -2 -86 9
-15 46 -59 82 -99 249 -278 495 -679 596 -968 16 -45 38 -94 49 -108 18 -22
22 -23 39 -11 17 12 17 18 6 53 -7 21 -28 74 -47 118 -18 43 -36 98 -40 122
-4 33 -9 41 -22 37 -9 -3 -4 6 12 21 33 32 34 37 5 32 -44 -7 -102 39 -91 72
6 17 16 15 43 -8 17 -15 27 -17 34 -9 8 7 2 17 -19 35 -16 13 -34 24 -39 24
-5 0 -24 11 -41 25 -25 19 -31 30 -28 50 4 20 1 25 -15 25 -29 0 -45 46 -30
88 6 19 4 22 -16 22 -25 0 -56 29 -80 78 -20 38 -8 42 37 10 17 -12 36 -23 42
-24 42 -8 111 -26 125 -34 10 -6 21 -23 25 -40 4 -16 10 -30 15 -30 9 0 22
-42 15 -48 -6 -6 -56 27 -77 51 -31 34 -39 13 -11 -28 52 -78 98 -128 131
-142 27 -11 32 -18 30 -44 -2 -21 3 -34 15 -41 14 -7 17 -17 12 -40 -5 -20 -4
-28 3 -24 18 11 41 -23 40 -62 0 -20 14 -75 32 -122 17 -47 33 -92 35 -100 2
-8 19 -69 39 -135 76 -261 100 -370 111 -527 4 -45 8 -103 10 -128 2 -25 7
-155 10 -290 l6 -245 -31 -35 c-17 -19 -44 -59 -61 -89 -35 -62 -57 -91 -71
-91 -12 0 -3 28 32 105 44 98 45 105 16 105 -35 0 -52 -37 -71 -157 -9 -54
-25 -138 -36 -188 -11 -49 -22 -98 -24 -108 -2 -10 -7 -27 -10 -37 -3 -10 -7
-27 -9 -37 -60 -305 -331 -843 -426 -843 -13 0 -24 -9 -30 -25 -6 -16 -17 -25
-31 -25 -12 0 -19 -5 -16 -12 7 -22 79 -14 122 14 22 14 46 23 53 20 7 -2 26
11 42 30 l30 33 0 -47 c0 -36 -5 -52 -22 -68 -25 -23 -58 -102 -58 -140 0 -19
-9 -29 -38 -42 -56 -26 -172 -142 -172 -172 0 -5 11 1 25 14 14 13 25 19 25
12 0 -17 -30 -42 -51 -42 -20 0 -59 -17 -69 -29 -22 -29 -68 -51 -104 -51 -39
0 -40 -1 -17 -13 34 -17 38 -36 7 -33 -51 6 -65 44 -31 86 28 35 29 43 5 37
-16 -4 -29 2 -47 19 -22 22 -24 28 -11 40 8 8 30 17 49 20 36 6 57 -5 78 -43
13 -24 34 -10 59 41 37 74 38 133 1 100 -10 -9 -16 -20 -14 -25 16 -25 -182
-43 -211 -18 -13 11 -12 16 11 38 15 14 41 51 59 81 20 36 39 56 52 58 17 2
21 8 16 24 -3 13 1 26 12 34 12 8 16 21 13 42 -4 26 0 32 32 49 21 12 54 20
79 19 23 -1 42 1 42 4 0 16 -175 103 -234 117 -77 18 -172 13 -286 -13 -14 -3
-40 -8 -58 -11 -31 -4 -33 -3 -31 19 2 12 0 29 -4 36 -11 17 -30 15 -24 -2 10
-26 -29 -49 -72 -43 -37 5 -40 3 -38 -16 2 -17 -4 -23 -25 -25 -35 -4 -35 -15
0 -40 36 -26 61 -29 92 -12 14 7 41 15 60 16 19 1 58 10 85 20 61 21 224 28
260 12 14 -6 25 -17 25 -23 0 -15 -94 -101 -180 -165 -18 -14 -38 -30 -44 -35
-6 -6 -45 -32 -86 -59 -79 -52 -215 -182 -240 -229 -13 -26 -13 -30 2 -38 24
-14 2 -73 -44 -119 -21 -20 -38 -42 -38 -49 0 -7 10 -30 22 -51 23 -40 17 -70
-7 -36 -8 10 -16 23 -18 29 -1 5 -15 11 -29 12 -47 5 -66 15 -102 56 -45 49
-45 49 75 171 50 51 87 94 82 95 -6 2 -39 -10 -74 -27 -35 -16 -71 -30 -80
-30 -8 0 -28 13 -44 30 -23 24 -28 38 -27 75 l0 45 -20 -23 -19 -22 4 27 c4
30 2 31 -51 28 -27 -1 -35 4 -50 30 -9 18 -27 45 -39 60 -27 33 -29 60 -8 101
9 16 17 46 18 67 2 32 -1 37 -18 34 -30 -4 -57 30 -118 143 -29 54 -58 100
-64 102 -22 8 16 -96 80 -220 52 -102 59 -121 49 -138 -10 -16 -9 -25 4 -50 9
-19 14 -47 12 -70 -2 -20 -1 -37 2 -37 23 2 36 -7 109 -74 52 -49 77 -95 114
-208 19 -58 53 -146 76 -196 55 -122 58 -142 30 -177 -14 -19 -28 -27 -40 -24
-10 3 -30 -3 -43 -14 -13 -10 -29 -19 -35 -19 -17 0 -28 33 -24 69 9 68 -41
130 -89 112 -52 -19 -73 -91 -40 -130 21 -25 132 -71 170 -71 53 0 155 56 200
110 32 38 63 100 65 132 2 20 11 43 20 52 11 12 17 35 18 69 3 170 6 180 50
172 17 -3 42 1 62 11 36 19 237 220 365 366 84 97 108 112 96 60 -9 -35 -66
-156 -76 -160 -4 -2 -8 -8 -8 -14 0 -22 -130 -208 -179 -254 -55 -52 -64 -75
-30 -71 32 3 33 -15 4 -49 -20 -24 -25 -40 -25 -86 0 -37 5 -62 15 -72 8 -8
17 -30 20 -50 6 -32 4 -36 -21 -42 -35 -9 -55 4 -69 46 -6 19 -17 36 -23 38
-19 6 -81 -38 -98 -69 -17 -34 -5 -68 24 -70 49 -2 66 -7 78 -23 12 -17 16
-16 57 13 25 17 61 49 80 71 28 33 40 40 70 40 20 0 39 -5 43 -12 11 -18 -99
-113 -171 -149 -78 -38 -121 -39 -186 -6 -28 15 -56 27 -63 27 -7 0 -30 -13
-52 -29 -21 -16 -54 -32 -72 -36 -29 -6 -166 -59 -257 -100 -29 -13 -211 -71
-251 -80 -81 -18 -274 -56 -312 -61 -26 -3 -58 -7 -72 -10 -152 -25 -589 -24
-680 1 -8 2 -33 6 -55 10 -85 12 -314 83 -440 135 -294 123 -458 225 -518 321
-9 15 -28 29 -45 32 -16 3 -32 13 -36 22 -3 9 -2 14 2 11 19 -12 149 64 204
119 36 36 35 49 -6 69 -27 13 -40 14 -67 4 -49 -16 -96 -55 -103 -84 -8 -32
-72 -94 -97 -94 -39 0 -128 60 -234 155 -50 45 -120 95 -134 95 -6 0 -15 -8
-20 -18 -11 -21 -3 -38 56 -110 40 -50 47 -64 44 -84 0 -5 10 -8 23 -8 13 0
35 -9 49 -20 14 -11 28 -20 31 -20 4 0 53 -39 109 -86 56 -47 119 -95 140
-107 31 -18 37 -26 32 -45 -5 -21 -4 -22 16 -12 18 10 29 7 73 -23 28 -19 67
-43 86 -53 19 -11 37 -21 40 -24 14 -14 310 -166 384 -197 144 -61 434 -126
661 -148 22 -2 65 -7 95 -11 170 -20 482 -6 511 23 8 8 -25 10 -124 6 -129 -5
-136 -4 -153 16 -10 12 -24 21 -31 21 -7 0 -13 5 -13 10 0 6 35 10 83 11 490
3 632 11 743 39 152 39 429 165 629 285 81 49 270 188 335 245 19 18 62 56 95
85 131 116 352 354 356 383 0 4 2 26 3 49 3 48 28 83 61 83 27 0 50 25 108
115 98 153 184 333 257 540 58 164 131 443 154 585 8 49 16 89 26 135 5 22 10
53 10 68 0 24 -3 27 -19 22 -19 -6 -19 -4 -6 22 21 42 31 126 29 243 -2 103
-11 253 -19 314 -2 17 -7 58 -10 91 -3 33 -8 74 -10 90 -3 17 -7 57 -10 90 -3
33 -8 67 -10 75 -2 8 -6 33 -9 55 -3 22 -10 65 -16 95 -7 30 -12 64 -13 75 -1
11 -11 25 -23 32 -14 8 -21 23 -22 53 -3 40 -49 194 -76 255 -8 17 -28 64 -46
105 -108 249 -272 529 -384 657 -6 7 -16 18 -21 25 -67 86 -179 211 -285 317
-99 100 -107 107 -205 181 -33 25 -62 47 -65 50 -8 8 -247 162 -315 203 -146
87 -392 200 -525 241 -30 10 -62 20 -70 23 -8 3 -22 7 -31 9 -8 2 -53 12 -100
23 -46 10 -104 22 -129 26 -25 4 -54 9 -65 11 -26 5 -81 13 -130 19 -22 2 -56
7 -75 9 -121 17 -262 28 -408 30 -57 1 -104 1 -105 0z m484 -67 c-8 -8 -52
-12 -119 -13 -59 0 -116 -3 -127 -7 -29 -9 -72 -16 -145 -22 -185 -17 -194
-18 -345 -57 -66 -16 -131 -32 -144 -34 -14 -3 -28 -7 -32 -10 -4 -2 -34 -7
-66 -10 -53 -5 -159 -33 -208 -54 -11 -5 -45 -19 -75 -31 -90 -35 -221 -99
-253 -121 -28 -20 -29 -20 -16 -1 43 70 398 232 588 269 14 3 56 14 95 24 86
23 250 60 291 66 17 2 122 7 235 10 113 3 206 7 207 8 1 0 29 -1 63 -2 47 -3
59 -7 51 -15z m509 -87 c101 -23 130 -35 130 -51 0 -10 -14 -9 -83 6 -42 9
-161 55 -172 67 -7 7 -4 9 10 5 11 -3 63 -15 115 -27z m2000 -3683 c-12 -45
-23 -90 -25 -100 -7 -31 -45 -85 -45 -64 0 24 47 202 68 257 16 42 17 43 20
17 2 -15 -6 -64 -18 -110z m-969 -1408 c10 -19 8 -20 -10 -14 -19 6 -21 2 -21
-34 0 -22 4 -51 10 -65 8 -21 14 -24 42 -22 18 2 42 8 53 12 19 7 27 13 58 39
50 43 87 66 87 54 0 -23 -136 -147 -169 -154 -17 -4 -31 -12 -31 -20 0 -18
-41 -24 -125 -19 -95 6 -102 9 -80 34 23 26 50 25 88 -2 l31 -23 -23 38 -23
38 21 23 c38 41 16 66 -25 27 -26 -24 -64 -44 -71 -37 -3 3 3 22 13 43 13 26
36 48 74 71 63 37 85 40 101 11z m-469 -520 c27 -1 10 -28 -31 -48 -20 -10
-76 -30 -126 -45 -182 -54 -251 -79 -285 -100 -31 -19 -51 -21 -178 -22 -79
-1 -140 2 -135 6 4 4 93 31 196 60 182 50 375 112 447 144 20 9 48 14 65 11
17 -3 38 -6 47 -6z m-2319 -74 c51 -19 111 -42 132 -52 22 -9 42 -17 45 -18 3
-1 50 -15 105 -32 87 -28 208 -58 270 -69 119 -20 185 -26 307 -26 120 0 146
-7 106 -30 -26 -15 -262 -20 -312 -7 -17 4 -44 10 -61 12 -114 17 -607 180
-672 223 -21 13 -31 34 -18 34 3 0 47 -16 98 -35z"/>
<path d="M159 6549 c0 -2 -3 -13 -5 -24 -9 -41 -5 -84 9 -106 9 -12 13 -28 10
-36 -10 -25 32 2 55 34 28 41 33 60 22 88 -13 34 -27 31 -27 -5 0 -35 -18 -59
-32 -44 -5 5 -12 27 -15 48 -6 34 -14 58 -17 45z"/>
<path d="M6806 6481 c-5 -7 -6 -15 -3 -17 3 -3 -1 -24 -7 -47 -15 -55 -11 -80
21 -112 34 -34 44 -23 50 58 5 60 4 66 -24 97 -21 23 -32 30 -37 21z"/>
<path d="M3856 6382 c-11 -18 49 -46 120 -57 83 -13 103 -16 144 -27 55 -14
90 -35 90 -55 0 -13 -3 -13 -22 1 -51 36 -55 36 -83 14 -18 -14 -23 -24 -16
-31 7 -7 0 -29 -20 -68 -16 -32 -29 -69 -29 -81 1 -48 59 -87 125 -83 17 2 40
3 52 4 13 0 30 12 39 26 14 22 14 29 0 79 -9 30 -19 62 -22 69 -3 8 13 35 36
62 41 47 46 66 19 70 -7 2 -61 10 -119 20 -58 9 -118 19 -135 21 -16 3 -39 7
-50 9 -11 2 -38 7 -60 11 -22 3 -45 10 -52 16 -7 5 -13 5 -17 0z m320 -277 c4
-15 1 -30 -7 -37 -15 -14 -67 -17 -87 -4 -29 18 -1 52 33 40 18 -7 19 4 5 41
l-10 26 30 -21 c16 -12 33 -32 36 -45z"/>
<path d="M2083 6277 c-114 -73 -136 -88 -235 -169 -138 -112 -371 -334 -426
-406 -39 -51 -15 -61 39 -16 62 53 243 170 315 204 38 19 64 38 67 50 8 33 0
29 -168 -69 -73 -43 -85 -47 -85 -32 0 16 106 126 137 141 31 16 97 67 147
112 88 83 249 193 266 183 7 -4 10 -18 7 -31 -6 -34 11 -41 23 -9 12 31 13 95
3 95 -5 0 -45 -24 -90 -53z"/>
<path d="M6303 6288 c-27 -13 -30 -33 -5 -43 14 -5 10 -9 -17 -18 -28 -10 -35
-18 -37 -45 -2 -18 -18 -53 -34 -78 -17 -24 -27 -44 -21 -44 5 0 13 5 16 10 3
6 14 10 23 10 19 1 65 87 50 96 -5 3 12 19 39 36 42 27 45 31 30 43 -10 7 -15
19 -11 29 7 18 -1 19 -33 4z"/>
<path d="M3637 6223 c-20 -16 -40 -40 -46 -54 -8 -23 -5 -31 22 -57 54 -51
117 -51 151 0 21 33 5 90 -33 118 -38 26 -51 25 -94 -7z"/>
<path d="M3190 6220 c0 -13 -5 -18 -15 -14 -26 10 -47 -3 -37 -23 54 -108 75
-133 113 -133 44 0 77 68 65 135 -6 29 -12 36 -44 45 -58 16 -82 13 -82 -10z"/>
<path d="M2670 6114 c-30 -20 -56 -37 -58 -39 -4 -4 62 -42 88 -50 l23 -7 -22
28 c-23 29 -17 45 16 50 48 7 64 16 61 32 -6 30 -50 25 -108 -14z"/>
<path d="M4575 6128 c-30 -16 -45 -39 -45 -66 l0 -25 -19 22 c-11 12 -22 18
-25 12 -4 -5 -2 -12 4 -16 5 -3 10 -20 10 -36 l0 -30 -29 20 c-36 26 -41 26
-41 3 0 -46 44 -54 88 -17 17 14 34 25 38 25 14 0 94 -83 94 -97 0 -18 -9 -16
-59 8 -45 21 -63 20 -40 -4 32 -32 123 -87 143 -87 22 0 46 17 46 32 0 4 -10
8 -22 8 -13 0 -30 5 -38 11 -11 8 -3 9 32 6 69 -7 82 -20 58 -60 l-19 -31 24
-24 c32 -31 33 -56 4 -49 -29 8 -71 -37 -87 -91 -15 -49 -15 -74 -1 -49 19 32
39 20 39 -24 l0 -42 22 29 c13 16 29 34 38 41 11 9 11 12 2 13 -19 0 -62 46
-62 65 0 13 6 12 31 -9 17 -14 34 -26 39 -26 26 0 26 93 0 142 -18 33 -18 39
-4 53 8 8 26 16 40 16 28 2 31 2 62 13 24 8 30 25 10 27 -7 0 -32 0 -55 -1
-28 -1 -51 5 -70 19 -15 11 -42 22 -59 24 -39 6 -63 19 -90 49 -19 20 -39 63
-37 78 0 3 4 22 7 43 7 39 3 43 -29 25z"/>
<path d="M4721 6109 c-22 -21 -39 -29 -53 -26 -17 5 -19 2 -14 -20 8 -31 50
-71 94 -90 37 -15 52 -11 52 17 0 14 -6 18 -22 15 -29 -6 -68 20 -68 45 0 27
34 21 105 -20 l55 -31 0 24 c0 20 -11 30 -56 53 -42 21 -54 32 -51 46 7 26 -6
22 -42 -13z"/>
<path d="M5497 6002 c-3 -15 -8 -37 -12 -49 -13 -39 101 -137 199 -172 31 -11
56 -15 56 -10 0 27 -90 82 -118 72 -17 -6 -44 17 -38 32 3 8 -7 15 -25 19 -42
8 -58 47 -36 86 17 28 17 29 -2 39 -16 9 -20 7 -24 -17z"/>
<path d="M2831 5991 c-14 -25 10 -45 46 -38 35 6 53 -1 53 -22 0 -34 -25 -54
-74 -57 -80 -6 -204 -73 -378 -206 -43 -32 -96 -67 -118 -77 -22 -10 -37 -20
-34 -24 8 -8 -46 -83 -108 -148 -75 -80 -98 -108 -98 -120 0 -15 64 37 168
139 133 128 180 171 252 228 95 75 216 151 252 159 48 11 70 -23 118 -178 63
-204 158 -480 189 -552 5 -11 30 -74 56 -140 99 -249 198 -445 226 -445 16 0
42 55 54 119 2 12 6 30 9 39 3 9 8 42 11 72 4 30 10 80 13 110 9 67 8 204 -2
285 -21 166 -86 378 -123 402 -12 8 -54 16 -95 19 -164 9 -248 24 -248 45 0 5
13 9 28 9 16 0 37 7 48 15 19 15 19 15 0 30 -11 8 -27 15 -35 16 -25 1 -52 7
-58 12 -11 12 9 45 35 57 37 17 141 24 175 11 39 -15 34 -31 -8 -24 -28 4 -35
2 -35 -11 0 -15 17 -22 69 -28 18 -2 27 -12 36 -37 9 -29 13 -31 24 -18 10 13
10 20 0 39 -8 13 -13 25 -14 28 0 3 -16 29 -37 56 -37 52 -71 69 -102 52 -14
-8 -16 -5 -10 17 5 21 0 33 -22 56 -15 16 -34 29 -41 29 -7 0 -13 5 -13 10 0
6 -5 10 -12 10 -6 0 -19 6 -27 14 -25 23 -117 66 -140 66 -11 0 -25 -9 -30
-19z m433 -566 c42 -28 63 -75 91 -206 24 -111 36 -304 22 -359 -10 -41 -19
-60 -30 -60 -14 0 -75 119 -127 245 -18 44 -36 89 -41 100 -20 47 -69 205 -75
239 -10 63 -2 69 70 64 35 -3 75 -13 90 -23z"/>
<path d="M140 5985 c-16 -9 -32 -10 -48 -4 l-24 9 21 -26 c29 -37 16 -49 -27
-22 -34 20 -36 20 -23 3 28 -38 86 -97 106 -107 19 -10 19 -10 4 8 -24 29 -29
51 -19 80 7 17 16 24 25 21 8 -4 17 2 20 15 10 28 -6 39 -35 23z"/>
<path d="M2423 5987 c-4 -7 -30 -24 -56 -37 -30 -14 -44 -25 -37 -30 27 -17
160 16 160 39 0 10 -39 41 -52 41 -4 0 -11 -6 -15 -13z"/>
<path d="M4108 5938 c-19 -6 -28 -17 -29 -31 -1 -41 -7 -72 -39 -202 -18 -71
-34 -136 -35 -145 -2 -8 -4 -15 -5 -15 -1 0 -3 -7 -5 -15 -1 -8 -15 -58 -29
-110 -15 -52 -29 -105 -31 -117 -3 -11 -37 -131 -76 -265 -39 -133 -72 -250
-74 -258 -2 -8 -4 -16 -5 -17 -2 -2 -3 -6 -5 -10 -1 -5 -4 -15 -7 -23 -4 -8
-18 -53 -33 -100 -15 -47 -37 -105 -49 -130 -21 -42 -27 -46 -100 -71 -80 -27
-126 -55 -134 -80 -4 -11 -1 -10 14 2 17 15 39 24 84 37 8 2 93 6 189 8 96 2
176 5 177 7 2 2 6 30 9 62 3 33 8 74 10 90 2 17 7 62 11 100 10 91 10 93 18
140 21 117 28 145 36 145 6 0 5 -11 0 -26 -6 -14 -12 -114 -15 -222 -5 -196
-11 -309 -19 -347 -3 -11 -13 -53 -24 -94 -22 -86 -28 -90 -133 -95 -68 -4
-97 4 -85 22 3 5 -7 12 -23 15 -26 6 -93 65 -113 102 -6 10 11 19 62 34 39 12
70 24 70 27 0 3 -8 3 -17 0 -10 -3 -38 -8 -63 -11 -54 -6 -68 -9 -98 -19 -23
-8 -23 -8 -6 -34 38 -58 234 -228 299 -259 40 -19 75 -12 110 23 39 39 36 40
-50 18 -16 -4 -15 0 9 21 15 14 42 29 58 32 16 3 31 11 33 17 12 49 51 168 65
201 33 74 117 280 140 340 12 33 27 74 33 90 7 17 12 32 13 35 0 3 3 12 7 20
30 74 85 283 92 349 6 57 19 91 35 91 16 0 41 46 44 84 5 44 -6 54 -24 20 -21
-38 -35 -23 -38 39 -3 48 -6 57 -21 57 -23 0 -114 -97 -170 -182 -46 -69 -146
-267 -156 -310 -4 -16 -11 -28 -16 -28 -4 0 -4 12 1 28 5 15 18 59 31 97 42
135 127 285 214 380 65 70 95 117 95 147 0 15 -9 68 -19 116 -11 48 -22 114
-26 147 -3 33 -10 64 -15 69 -13 13 -138 16 -172 4z m107 -165 c27 -40 28
-144 4 -216 -19 -56 -94 -188 -111 -195 -4 -2 -8 -8 -8 -13 0 -5 -10 -20 -22
-34 -43 -50 -49 -6 -17 125 11 47 22 94 25 105 12 58 65 229 75 241 17 21 35
17 54 -13z m45 -542 c0 -51 -48 -241 -95 -372 -38 -106 -114 -263 -124 -253
-12 12 -8 268 5 327 27 119 158 337 202 337 7 0 12 -16 12 -39z"/>
<path d="M19 5875 c-9 -110 -3 -165 17 -165 13 0 32 -26 32 -45 0 -16 -18 -45
-28 -45 -6 0 -10 9 -10 20 0 11 -4 20 -10 20 -19 0 -10 -37 20 -78 35 -49 42
-52 35 -14 -5 31 2 45 31 60 25 13 90 135 99 188 6 33 5 37 -6 26 -8 -7 -19
-29 -24 -50 -15 -51 -40 -53 -61 -5 -24 53 -31 17 -9 -41 16 -43 14 -66 -5
-66 -17 0 -50 77 -56 132 -7 59 -22 97 -25 63z"/>
<path d="M6874 5806 c-22 -17 -12 -46 16 -46 18 0 19 -3 10 -20 -6 -11 -17
-20 -25 -20 -18 0 -18 -5 -5 -31 15 -27 21 -79 22 -189 1 -102 -8 -160 -23
-160 -6 0 -2 -12 9 -27 21 -31 34 -63 26 -63 -3 0 -18 7 -35 15 -33 18 -61 9
-79 -26 -10 -18 -9 -19 15 -13 24 6 25 5 16 -18 -10 -28 -1 -51 20 -48 29 5
59 0 59 -9 0 -5 -10 -13 -22 -17 -32 -11 -33 -11 -78 -13 -30 -1 -40 -5 -40
-17 0 -14 -8 -16 -44 -12 -51 6 -70 -6 -56 -33 13 -23 -5 -35 -25 -19 -13 10
-15 8 -15 -14 0 -15 -8 -38 -17 -52 l-17 -26 34 20 c31 19 60 20 60 1 0 -5
-13 -20 -29 -35 -32 -28 -42 -62 -32 -103 7 -25 8 -24 22 18 21 61 40 65 38 9
-1 -23 1 -53 5 -65 9 -28 36 -32 29 -5 -6 26 23 92 40 92 8 0 18 -8 21 -17 12
-31 25 2 27 72 3 88 13 118 52 151 24 20 38 25 63 21 l33 -6 -6 72 c-6 64 -7
134 -3 232 1 37 -3 54 -17 80 -12 23 -10 57 7 100 7 17 12 61 12 98 0 104 -27
152 -68 123z m-70 -733 c-10 -15 -19 -45 -20 -67 -1 -24 -13 -54 -31 -79 -37
-53 -54 -59 -49 -15 2 18 -2 47 -9 63 -14 36 -12 56 9 87 l16 22 0 -30 c0 -30
24 -74 40 -74 5 0 7 13 4 29 -6 30 9 68 35 88 24 17 26 7 5 -24z"/>
<path d="M5244 5759 c6 -35 5 -42 -5 -31 -17 16 -29 15 -29 -1 0 -23 54 -78
83 -83 33 -5 34 2 5 26 -19 15 -20 20 -9 34 7 9 27 16 43 16 26 0 29 2 18 15
-19 23 -61 51 -89 60 -23 7 -24 6 -17 -36z"/>
<path d="M2052 5744 c-50 -30 -51 -46 -4 -82 l33 -25 -7 41 c-6 39 -5 42 17
42 27 1 59 21 59 39 0 20 -54 12 -98 -15z"/>
<path d="M2137 5653 c-11 -3 -16 -11 -13 -19 3 -9 -4 -16 -22 -20 -15 -4 -45
-20 -66 -35 -22 -16 -48 -29 -58 -29 -25 0 -23 31 3 37 14 4 17 8 9 13 -12 7
-66 -3 -77 -14 -7 -7 18 -49 41 -68 12 -10 30 -15 41 -12 25 7 218 135 212
141 -7 7 -51 11 -70 6z"/>
<path d="M2203 5568 c-4 -7 -8 -17 -8 -23 0 -5 -11 -12 -25 -15 -18 -4 -24
-12 -22 -26 2 -18 -2 -20 -26 -16 -26 3 -29 1 -29 -22 0 -27 -12 -41 -55 -69
-29 -18 -31 -17 -28 21 2 23 1 23 -29 8 -59 -31 -50 -58 21 -62 49 -2 84 20
165 104 37 39 57 53 74 50 34 -5 34 17 0 41 -23 16 -31 18 -38 9z"/>
<path d="M265 5504 c-9 -64 -14 -74 -36 -74 -12 0 -25 13 -35 38 -13 29 -18
33 -21 18 -3 -10 8 -44 25 -75 16 -31 27 -62 25 -68 -8 -22 15 -14 36 13 12
15 21 41 21 60 0 19 7 52 16 75 14 35 15 42 3 50 -23 15 -26 11 -34 -37z"/>
<path d="M4776 5513 c2 -60 -10 -98 -29 -95 -21 4 -22 -11 -3 -27 19 -16 10
-45 -35 -111 -21 -30 -37 -56 -35 -57 1 -1 22 4 46 11 94 29 136 61 65 49 -41
-7 -45 5 -14 48 11 16 17 34 14 39 -4 6 -2 16 3 23 15 18 17 45 8 105 -9 60
-22 70 -20 15z"/>
<path d="M5911 5536 c-17 -20 -2 -45 66 -119 40 -44 53 -66 53 -89 0 -30 1
-31 14 -13 15 21 13 49 -6 86 -21 40 -100 149 -108 149 -4 0 -13 -6 -19 -14z"/>
<path d="M5212 5522 c-13 -10 -24 -25 -26 -34 -3 -22 -26 -48 -42 -48 -27 0
-64 -24 -64 -41 0 -10 -41 -62 -91 -116 -333 -357 -689 -980 -627 -1096 5 -11
33 -49 61 -87 29 -37 57 -75 62 -85 17 -29 117 -22 288 21 54 13 123 36 153
49 52 23 173 91 184 104 3 4 31 25 63 49 31 24 83 66 113 95 55 51 154 168
154 182 0 13 -75 75 -99 81 -13 4 -32 2 -43 -5 -10 -6 -30 -8 -46 -5 -27 7
-27 7 -8 -15 11 -12 31 -21 47 -21 34 0 43 -13 29 -40 -14 -27 -47 -43 -74
-36 -43 11 -58 68 -61 238 -2 140 -4 160 -30 228 -36 98 -97 219 -129 257 -14
17 -26 34 -26 37 0 3 21 17 48 30 47 24 87 60 161 145 40 46 61 48 61 5 0 -17
-6 -24 -18 -24 -15 0 -11 -8 20 -40 42 -46 78 -109 78 -140 0 -25 -7 -25 -49
1 -40 24 -56 20 -65 -18 -8 -32 -43 -73 -62 -73 -7 0 -19 12 -26 26 -16 33
-34 28 -31 -9 2 -42 59 -120 110 -151 35 -21 43 -30 38 -46 -3 -11 3 -40 14
-65 21 -48 36 -54 87 -35 19 8 31 7 42 -2 18 -16 51 -86 52 -110 0 -17 -2 -16
-31 1 -25 15 -38 17 -71 10 -54 -13 -95 -35 -108 -58 -14 -26 -13 -29 10 -41
15 -8 29 -6 59 10 43 21 87 26 111 10 19 -12 5 -25 -28 -25 -21 0 -26 -4 -24
-19 5 -27 42 -55 75 -56 15 0 27 3 28 8 0 4 3 18 6 32 3 14 6 68 6 120 1 75
-3 103 -18 135 -26 54 -110 139 -129 132 -17 -7 -27 13 -19 41 4 17 1 20 -16
15 -12 -3 -24 -9 -27 -14 -10 -16 -53 -9 -63 9 -15 28 -3 56 30 76 41 24 80
23 117 -4 l31 -23 56 32 c46 26 56 29 61 16 10 -25 -3 -44 -25 -38 -24 6 -25
3 -9 -49 10 -34 15 -39 35 -35 31 6 34 -22 7 -80 -14 -30 -13 -37 7 -83 39
-92 51 -62 45 116 -6 177 -25 234 -81 234 -28 0 -75 -20 -75 -31 0 -13 -31
-39 -41 -34 -5 4 -2 22 6 42 19 44 19 82 0 107 -8 11 -12 29 -9 43 5 17 -4 38
-32 78 -20 30 -35 58 -31 61 10 10 26 -5 69 -69 64 -94 138 -163 138 -128 0 8
-78 119 -104 148 -116 128 -151 146 -204 105z m-174 -472 c36 -54 55 -136 67
-298 6 -76 8 -94 20 -182 3 -25 20 -75 37 -112 17 -37 28 -73 25 -81 -7 -19
-156 -117 -259 -171 -220 -116 -385 -131 -445 -40 -17 26 -21 73 -11 129 7 39
75 192 122 273 20 35 36 66 36 69 0 7 208 321 233 351 12 14 42 48 66 74 41
45 46 47 65 35 12 -8 31 -29 44 -47z"/>
<path d="M20 5489 c0 -6 5 -19 10 -29 7 -13 7 -28 -1 -47 -26 -68 -23 -163 6
-163 8 0 18 -15 23 -32 7 -29 8 -50 3 -109 0 -8 -8 -24 -15 -35 -14 -17 -15
-15 -12 31 2 28 0 59 -3 69 -16 42 -22 -19 -17 -178 5 -161 9 -206 26 -235 5
-10 3 -19 -8 -27 -15 -11 -17 -34 -16 -161 0 -107 5 -157 15 -178 17 -36 95
-89 163 -111 49 -17 50 -16 68 6 10 12 18 35 18 50 0 16 8 56 19 89 12 40 17
78 14 111 -3 34 0 62 10 83 8 18 13 47 11 65 -6 50 12 38 32 -20 24 -74 63
-150 74 -143 9 6 -6 74 -21 90 -5 5 -9 27 -9 50 0 32 -7 48 -36 80 -33 38 -35
43 -28 90 9 69 7 105 -7 122 -16 19 -29 -1 -23 -35 5 -24 4 -25 -21 -8 -14 9
-36 23 -49 32 -32 20 -41 3 -15 -30 21 -27 22 -57 3 -63 -6 -2 -14 10 -18 28
-6 29 -84 148 -98 149 -8 0 -46 -65 -50 -87 -5 -30 45 -24 52 6 5 21 7 22 19
8 11 -14 10 -22 -7 -49 -11 -18 -18 -44 -16 -57 4 -21 2 -23 -26 -17 -29 5
-30 4 -24 -22 6 -25 5 -26 -10 -11 -15 14 -15 19 -2 56 10 28 11 44 4 51 -6 6
-13 29 -15 51 -4 34 -1 42 14 48 14 6 19 18 19 47 0 48 14 55 36 19 12 -19 18
-23 18 -12 0 9 6 22 14 28 12 10 17 8 25 -6 7 -15 5 -22 -9 -31 -11 -7 -17
-18 -14 -27 9 -22 35 -18 41 6 6 20 7 20 29 -8 l23 -28 1 30 1 30 24 -30 c22
-26 25 -28 26 -10 1 11 1 25 -1 30 -1 6 13 -5 30 -22 33 -33 42 -37 93 -33 25
1 28 -1 22 -20 -6 -19 -4 -21 16 -15 18 6 21 4 16 -10 -4 -9 -7 -21 -7 -26 0
-19 -30 -8 -46 16 -20 30 -34 32 -34 5 0 -10 16 -35 35 -53 40 -39 87 -55 83
-28 -3 27 12 58 36 74 29 19 42 11 53 -33 l9 -34 32 33 c33 35 36 57 13 99
-15 29 -14 58 5 76 18 19 2 21 -25 4 -44 -27 -60 11 -23 55 18 21 4 22 -22 2
-11 -8 -30 -15 -43 -15 -13 0 -23 -5 -23 -11 0 -5 -4 -8 -9 -4 -15 9 -33 -34
-29 -66 5 -31 -9 -38 -30 -17 -21 21 -13 54 24 108 30 43 32 50 13 36 -13 -9
-32 -16 -43 -16 -43 0 -60 73 -31 131 9 16 13 34 10 39 -3 5 1 26 10 46 8 20
15 39 15 43 0 4 -19 7 -42 6 -41 0 -43 1 -41 28 1 15 -2 27 -7 27 -13 0 -18
-12 -24 -58 -3 -23 -14 -55 -25 -71 -25 -35 -26 -45 -6 -61 13 -11 15 -8 15
13 0 34 67 104 83 88 8 -8 4 -20 -12 -42 -20 -27 -23 -40 -18 -89 3 -32 12
-69 21 -82 9 -14 19 -36 21 -49 5 -26 -23 -109 -36 -109 -10 0 -10 -2 -14 69
-4 59 -10 69 -46 77 -63 12 -160 41 -170 51 -6 6 -13 37 -16 69 -5 52 -3 61
17 79 l23 20 -8 -25 c-12 -35 -9 -61 10 -79 13 -14 15 -11 15 30 0 45 -30 108
-55 116 -5 1 -21 -31 -34 -72 -13 -41 -27 -75 -32 -75 -5 0 -9 3 -10 8 0 4 -2
14 -4 22 -13 64 -12 78 6 94 23 19 25 69 3 90 -18 18 -34 21 -34 5z m225 -346
c11 -1 37 -7 58 -15 28 -10 37 -18 35 -33 -2 -11 -7 -23 -12 -26 -10 -8 -46 0
-46 10 0 3 -9 17 -19 30 l-18 24 0 -27 c0 -43 -16 -50 -47 -20 -48 49 -47 109
2 76 14 -9 35 -18 47 -19z m304 -69 c48 -56 92 -124 89 -140 -3 -14 -6 -13
-25 4 -13 11 -23 23 -23 28 0 5 -11 22 -23 38 l-24 29 0 -33 c0 -32 -26 -65
-44 -55 -4 3 -5 33 -3 68 7 97 14 105 53 61z m-239 -223 c0 -5 -7 -14 -16 -21
-8 -7 -14 -23 -12 -34 1 -12 -7 -36 -20 -53 -26 -37 -27 -42 -6 -57 22 -16 26
-192 7 -267 -8 -30 -16 -69 -18 -87 -4 -47 -11 -49 -31 -10 -17 30 -19 31 -22
11 -4 -29 -13 -29 -30 -2 -8 12 -19 18 -28 15 -9 -3 -26 5 -41 20 -21 21 -24
31 -19 64 5 35 4 38 -14 33 -19 -5 -20 -2 -16 43 7 81 18 134 27 128 5 -3 9
-22 9 -42 0 -20 5 -44 10 -52 9 -13 12 -13 25 4 10 13 11 25 4 45 l-9 26 20
-24 c12 -13 18 -31 15 -41 -6 -20 21 -54 36 -45 5 4 9 14 9 23 1 13 6 10 24
-11 27 -33 32 -27 35 50 2 56 -19 116 -58 163 -25 31 -27 15 -6 -54 22 -73 19
-114 -4 -51 -10 28 -25 64 -33 80 -30 58 -31 73 -6 77 13 2 24 10 24 18 1 8 2
21 3 28 2 22 19 4 26 -28 4 -16 11 -32 16 -36 17 -10 45 6 46 26 3 33 53 91
53 61z"/>
<path d="M70 4498 c0 -7 7 -22 15 -32 8 -11 15 -32 15 -47 0 -20 7 -29 28 -37
36 -14 98 -9 94 8 -2 7 6 22 16 34 10 11 22 29 25 38 9 25 -10 32 -23 8 -13
-23 -30 -27 -30 -5 0 18 -26 20 -36 4 -4 -7 -7 -25 -6 -40 0 -16 -3 -29 -8
-29 -10 0 -20 26 -20 55 0 13 -7 31 -16 39 -18 19 -54 21 -54 4z"/>
<path d="M4533 5355 c-34 -24 -28 -34 17 -28 22 3 46 1 53 -5 21 -18 65 -22
77 -7 31 37 -101 73 -147 40z"/>
<path d="M2850 5329 c-30 -11 -59 -21 -65 -23 -5 -1 -32 -13 -60 -26 -136 -62
-265 -94 -370 -93 -98 1 -99 1 -154 68 -22 27 -36 2 -16 -29 10 -15 15 -30 11
-33 -3 -4 -37 8 -74 25 -102 48 -174 61 -211 37 -12 -7 -10 -82 3 -150 2 -11
6 -38 10 -60 4 -22 19 -78 33 -125 91 -304 263 -502 583 -667 134 -69 182 -99
230 -142 20 -18 42 -30 53 -27 10 2 23 -5 31 -16 12 -17 21 -19 58 -13 23 3
51 9 60 11 12 4 0 -23 -38 -85 -30 -49 -63 -92 -72 -94 -17 -4 -63 17 -94 42
-17 13 -16 16 12 43 32 30 37 43 19 53 -14 9 -90 -71 -112 -117 -23 -49 -23
-82 1 -70 28 14 113 2 139 -20 10 -8 8 -16 -7 -38 -24 -33 -17 -60 15 -60 31
0 54 -28 34 -41 -8 -5 -24 -7 -37 -4 -31 7 -58 -9 -66 -40 -11 -45 -39 -64
-80 -55 -40 9 -47 -1 -16 -23 17 -12 18 -16 6 -20 -16 -6 -81 32 -158 95 -97
79 -286 164 -438 197 -113 25 -206 30 -290 17 -25 -4 -58 -10 -75 -12 -113
-18 -325 -72 -325 -83 0 -16 89 -50 260 -101 58 -17 112 -33 120 -35 8 -2 69
-17 135 -33 128 -32 215 -51 268 -58 17 -2 43 -6 57 -8 147 -29 664 -26 694 4
4 5 10 37 11 72 6 106 27 187 84 312 30 67 129 216 143 216 18 0 56 -97 53
-136 -3 -38 -1 -41 17 -36 18 4 20 2 13 -28 -6 -28 -5 -32 9 -27 32 13 54 -78
30 -125 -8 -15 -14 -34 -14 -43 0 -18 33 -20 52 -2 48 47 122 63 148 32 16
-19 4 -35 -26 -35 -34 0 -30 -16 8 -29 25 -9 36 -8 55 5 21 13 24 22 21 57 -2
33 0 41 12 38 8 -2 38 -10 65 -17 28 -8 64 -17 80 -20 50 -9 61 -26 45 -74 -7
-22 -23 -51 -35 -64 -21 -22 -23 -38 -17 -104 1 -11 11 -29 21 -41 14 -16 18
-31 14 -56 -16 -97 119 -226 237 -227 114 0 225 67 278 171 78 152 58 244 -84
402 -104 116 -98 106 -83 141 10 25 10 31 -2 39 -22 13 -28 11 -22 -10 5 -21
-31 -65 -50 -58 -6 2 -20 22 -32 45 -25 49 -40 67 -26 30 21 -56 0 -92 -72
-127 -82 -39 -130 -43 -219 -20 -40 10 -100 24 -133 30 -33 6 -67 13 -75 14
-8 2 -27 4 -42 4 -31 1 -68 32 -68 56 0 10 7 15 18 13 11 -2 17 3 16 14 -2 24
-156 279 -172 285 -7 3 -39 -6 -71 -21 -90 -40 -229 -59 -310 -42 -52 11 -47
37 9 42 14 1 58 5 98 8 41 3 77 8 81 10 4 3 18 7 32 10 43 8 139 47 139 57 0
5 -15 25 -33 44 -46 49 -102 144 -103 177 -1 41 -41 94 -161 214 -96 97 -135
133 -248 229 -63 54 -184 132 -293 190 -35 19 -14 24 48 13 84 -15 176 -5 245
27 88 40 133 55 170 55 47 0 139 77 128 107 -3 7 -6 13 -7 13 0 -1 -26 -10
-56 -21z m-727 -220 c171 -57 439 -229 595 -382 127 -126 262 -326 262 -391 0
-14 -3 -26 -7 -27 -5 0 -17 -2 -28 -4 -88 -18 -117 -21 -170 -18 -178 9 -404
149 -566 351 -115 143 -199 314 -204 417 -2 32 -1 63 1 67 9 14 52 9 117 -13z
m1897 -1300 c46 -28 156 -144 181 -192 58 -110 -7 -261 -152 -352 -61 -39
-124 -43 -186 -11 -55 28 -108 84 -116 122 -2 15 3 34 14 48 25 32 24 34 -13
73 -26 27 -32 40 -30 70 2 20 6 41 10 47 4 6 7 13 7 16 2 17 39 73 67 100 56
57 107 85 178 99 3 0 21 -9 40 -20z m-1990 -73 c98 -12 246 -63 271 -92 9 -11
6 -16 -14 -23 -25 -10 -52 -8 -142 10 -27 5 -60 11 -73 14 -43 8 -177 46 -219
62 -43 16 -53 28 -30 36 15 5 147 1 207 -7z"/>
<path d="M3836 3628 c-67 -9 -99 -27 -50 -29 62 -2 110 0 137 5 128 23 58 43
-87 24z"/>
<path d="M3907 3503 c-25 -24 9 -63 67 -77 27 -7 83 -40 96 -57 10 -12 48 -20
54 -10 14 23 -68 85 -126 95 -23 4 -42 16 -52 31 -17 25 -27 30 -39 18z"/>
<path d="M6359 5303 c-1 -7 -2 -19 -3 -25 -6 -34 59 -138 86 -138 4 0 8 19 8
43 0 50 12 72 34 64 18 -7 19 -6 10 17 -12 32 -64 11 -64 -25 0 -39 -22 -28
-45 23 -14 29 -25 47 -26 41z"/>
<path d="M1566 5274 c-36 -35 1 -153 56 -184 56 -30 63 28 12 90 -30 35 -39
34 -25 -4 8 -20 7 -26 -3 -26 -19 0 -34 21 -31 43 5 30 26 47 56 47 33 0 45
15 29 35 -16 20 -75 19 -94 -1z"/>
<path d="M1035 5216 c-11 -14 -109 -144 -123 -161 -4 -5 -29 -43 -54 -84 -45
-70 -52 -99 -22 -87 8 3 14 4 14 3 0 -12 -49 -124 -93 -212 -130 -261 -222
-530 -215 -628 2 -28 -2 -41 -14 -48 -14 -8 -26 -45 -44 -139 -4 -17 -9 -63
-20 -165 -14 -127 -7 -509 11 -607 2 -9 6 -38 10 -65 32 -234 88 -437 175
-633 102 -231 217 -437 335 -601 75 -104 84 -135 28 -92 -30 23 -34 24 -26 8
16 -29 50 -58 61 -51 5 3 35 -13 66 -35 54 -39 70 -43 43 -10 -31 36 -130 204
-185 313 -65 129 -97 218 -89 248 4 14 0 20 -12 20 -13 0 -59 32 -61 43 -1 1
-3 20 -6 42 -4 22 -24 96 -46 165 -21 69 -41 132 -43 140 -2 8 -12 51 -23 95
-23 91 -42 193 -58 310 -3 28 -8 58 -10 69 -25 133 -25 795 0 946 4 22 12 76
21 147 2 11 6 29 9 40 3 10 8 37 10 59 3 23 10 54 16 70 6 16 11 31 11 34 0 3
7 30 16 60 9 30 18 60 19 65 1 6 21 64 44 130 47 135 68 211 76 270 3 23 14
46 25 54 15 10 16 17 8 33 -13 24 -5 33 29 33 22 0 27 6 38 49 7 27 27 68 43
90 39 52 64 96 54 96 -5 0 -13 -6 -18 -14z m-501 -2031 c-6 -175 -11 -200 -22
-118 -7 49 -1 228 9 253 6 19 15 -69 13 -135z"/>
<path d="M4450 5182 c0 -43 190 -205 220 -187 20 12 9 25 -92 110 -94 77 -128
98 -128 77z"/>
<path d="M1432 5110 c-32 -70 -32 -110 -2 -138 27 -25 19 -42 -36 -71 -62 -33
-89 -64 -132 -152 -20 -40 -41 -73 -47 -72 -23 3 -34 -18 -23 -43 14 -30 23
-30 50 1 24 28 40 31 60 13 40 -38 50 -39 22 -3 -57 75 -50 88 44 74 39 -5 72
8 56 24 -3 3 4 10 15 17 l21 11 -20 39 c-30 58 -27 80 10 80 31 0 33 -5 30
-51 -1 -24 3 -27 41 -33 71 -11 91 -39 37 -50 -35 -7 -78 -42 -78 -63 0 -17
15 -17 34 2 23 24 28 18 22 -25 -10 -75 -42 -112 -89 -104 -30 5 -33 0 -41
-54 -6 -45 -55 -79 -79 -55 -11 10 13 32 28 26 17 -6 30 36 20 66 -10 32 -34
26 -32 -6 2 -22 -2 -28 -18 -28 -11 0 -19 6 -17 13 3 19 -16 14 -28 -7 -17
-33 -12 -79 10 -91 11 -6 26 -10 33 -9 48 6 47 -40 -3 -105 -49 -65 -57 -86
-37 -97 9 -5 14 -16 11 -23 -3 -9 3 -17 16 -21 12 -4 19 -12 17 -18 -6 -18
-79 -36 -105 -26 -28 11 -29 29 -1 29 15 0 19 4 15 16 -3 9 -6 20 -6 25 0 16
-23 10 -47 -13 -13 -12 -36 -23 -51 -24 -19 0 -28 -7 -30 -22 -4 -29 -31 -50
-42 -32 -13 21 10 70 41 89 27 17 28 19 12 33 -10 9 -29 21 -42 28 -20 10 -23
10 -18 -2 3 -9 -2 -48 -11 -87 -14 -66 -14 -73 1 -88 14 -15 20 -13 66 16 l50
32 44 -19 c51 -23 87 -51 87 -69 0 -18 -37 -16 -44 3 -3 8 -11 12 -17 9 -6 -4
-8 -13 -5 -21 3 -8 1 -14 -5 -14 -5 0 -12 7 -15 15 -8 20 -30 19 -38 -1 -9
-24 -7 -34 7 -34 6 0 25 -7 41 -15 16 -9 35 -14 43 -11 7 3 19 -5 27 -16 15
-21 15 -20 14 15 -1 23 6 44 17 57 30 34 38 24 30 -37 -4 -32 -8 -75 -9 -95
-1 -21 -6 -42 -12 -48 -17 -17 -61 8 -75 44 -12 29 -12 30 -16 8 -15 -83 108
-150 164 -89 31 32 35 87 8 87 -13 0 -15 -7 -9 -35 6 -36 -8 -50 -20 -19 -8
20 0 261 10 292 14 48 24 18 24 -75 0 -102 11 -146 26 -102 4 13 8 64 8 114 1
82 3 90 21 90 16 0 19 7 18 37 0 21 6 43 13 49 22 18 16 26 -15 21 -23 -3 -33
2 -47 23 -16 25 -16 27 0 43 16 16 18 16 32 -3 15 -20 15 -20 30 -1 20 28 18
36 -15 47 -16 6 -32 17 -35 25 -5 14 20 33 39 31 6 -1 12 18 15 43 4 27 18 63
37 90 18 25 34 61 37 80 6 41 24 93 61 175 15 33 27 72 27 87 0 19 6 29 20 33
19 7 19 7 -3 31 -19 20 -20 28 -12 47 10 22 9 24 -15 21 -14 -1 -38 4 -53 12
-41 21 -50 18 -35 -12 27 -51 3 -225 -29 -213 -5 2 -9 8 -7 13 2 6 6 22 9 38
5 23 2 28 -15 28 -24 0 -38 16 -47 53 -8 30 0 34 29 12 42 -31 62 -11 25 24
-18 17 -21 28 -17 76 5 65 -11 59 -31 -12 -6 -24 -21 -47 -31 -53 -25 -14 -26
2 -4 70 21 65 11 87 -14 30z m42 -612 c6 -25 -8 -51 -33 -60 -6 -1 -12 -16
-15 -33 -3 -16 -11 -42 -17 -58 -10 -24 -8 -35 19 -86 17 -33 28 -62 25 -65
-8 -8 -77 -8 -98 0 -8 4 -22 19 -30 34 -13 26 -12 30 25 81 22 29 40 60 40 70
0 9 7 34 16 55 45 112 54 120 68 62z"/>
<path d="M1842 4999 c-5 -13 -15 -48 -22 -77 -7 -31 -20 -58 -32 -66 -25 -18
-18 -60 11 -76 21 -10 50 8 52 33 0 7 2 21 5 32 6 30 6 166 0 172 -3 3 -9 -5
-14 -18z"/>
<path d="M5783 4768 c-27 -13 -54 -65 -45 -87 25 -62 81 -87 119 -54 32 28 39
68 17 101 -33 50 -52 59 -91 40z"/>
<path d="M1726 4738 c-10 -40 -7 -68 9 -68 8 0 15 -3 15 -6 0 -5 -49 -74 -61
-84 -3 -3 -15 -25 -27 -50 -18 -36 -19 -46 -8 -48 11 -2 6 -18 -21 -63 -33
-56 -36 -74 -11 -74 6 0 14 -10 19 -22 6 -17 4 -23 -11 -28 -24 -8 -49 -115
-57 -240 -4 -71 -11 -99 -30 -134 -20 -35 -23 -45 -12 -52 15 -9 29 -7 77 11
l33 12 -21 23 c-12 13 -20 32 -18 46 5 32 17 51 29 44 5 -4 9 6 10 22 2 121 9
174 34 250 9 28 15 62 13 75 -2 14 5 29 18 40 15 12 24 34 28 70 4 29 21 87
37 128 17 41 28 82 26 92 -3 12 3 20 22 26 l26 9 -42 21 c-53 28 -69 28 -77 0z"/>
<path d="M3112 4752 c-38 -12 -92 -61 -92 -85 0 -12 8 -35 19 -50 l18 -28 6
30 c4 17 25 51 47 75 22 24 40 48 40 55 0 12 -4 12 -38 3z"/>
<path d="M339 4578 c-4 -139 -27 -257 -56 -286 -21 -22 -17 -62 7 -62 14 0 27
14 42 46 17 33 27 44 40 41 23 -6 22 2 -2 33 -37 47 -22 64 28 33 l27 -18 -17
27 c-10 15 -20 53 -23 85 -13 126 -16 143 -31 143 -10 0 -14 -13 -15 -42z"/>
<path d="M1246 4574 c-14 -15 -26 -31 -26 -35 0 -5 -4 -9 -10 -9 -5 0 -10 10
-10 23 -1 20 -2 20 -28 -11 -16 -19 -36 -32 -50 -32 -13 0 -20 -4 -17 -10 9
-15 83 -32 99 -23 14 8 86 107 86 118 0 12 -19 3 -44 -21z"/>
<path d="M3202 4551 c-7 -4 -14 -18 -15 -30 -1 -20 -5 -21 -43 -15 -32 5 -42
2 -47 -10 -5 -12 0 -16 18 -16 13 0 29 -8 34 -17 10 -16 16 -13 56 29 25 26
45 52 45 57 0 13 -30 14 -48 2z"/>
<path d="M1818 4495 c-43 -96 -90 -305 -69 -305 11 0 17 17 66 194 42 152 44
202 3 111z"/>
<path d="M1148 4423 c-27 -17 -46 -45 -49 -73 -6 -56 17 -80 76 -80 57 0 80
30 72 90 -8 64 -52 92 -99 63z m56 -38 c37 -28 16 -98 -27 -88 -50 13 -62 48
-27 83 24 24 29 24 54 5z"/>
<path d="M4168 4400 c-27 -21 -40 -49 -16 -34 17 11 69 6 115 -10 51 -18 65
-1 28 34 -34 32 -93 37 -127 10z"/>
<path d="M6025 4407 c-55 -14 -96 -43 -144 -105 -23 -28 -46 -52 -51 -52 -6 0
-9 -3 -9 -7 5 -31 -6 -42 -63 -63 -59 -21 -102 -43 -258 -133 -242 -140 -577
-259 -772 -274 -75 -6 -77 -5 -106 24 -20 19 -32 44 -37 74 -11 72 -15 79 -41
79 -29 0 -29 3 -4 -47 36 -75 52 -180 26 -170 -26 10 -25 -5 4 -57 27 -48 28
-54 15 -79 -13 -25 -13 -26 5 -17 10 6 22 15 25 20 14 23 22 7 17 -35 -6 -56
12 -61 34 -9 15 37 11 75 -8 71 -6 -1 -14 9 -18 23 -4 17 -13 25 -27 24 -33
-1 -20 30 18 42 19 7 66 15 104 18 66 6 88 9 160 21 17 3 50 8 75 11 25 3 48
8 51 10 3 2 21 6 40 9 136 22 373 96 454 140 25 14 64 36 88 49 81 44 231 157
333 249 51 47 164 178 164 191 0 8 -27 6 -75 -7z"/>
<path d="M6872 4313 c-12 -25 -5 -84 17 -152 27 -83 31 -105 21 -121 -11 -18
-12 -17 -40 55 -33 84 -39 87 -24 8 25 -137 23 -217 -5 -188 -8 8 -19 61 -21
100 0 6 -4 4 -9 -3 -9 -16 -4 -89 10 -113 17 -33 19 -112 3 -137 -14 -22 -14
-27 6 -65 13 -25 24 -70 27 -109 3 -38 7 -68 8 -68 1 0 20 7 41 16 22 9 41 16
44 15 3 0 5 11 5 27 0 19 -5 26 -16 24 -25 -4 -31 25 -9 46 23 21 33 68 20 92
-5 10 -21 21 -35 24 -38 10 -57 45 -45 86 6 19 19 46 30 60 l20 25 -2 -45 c-2
-37 -6 -44 -20 -42 -23 4 -23 -12 -1 -33 16 -16 17 -16 30 1 7 10 14 29 14 43
7 135 -1 215 -32 335 -12 44 -18 92 -15 108 6 31 -8 38 -22 11z"/>
<path d="M6120 4289 c-44 -26 -76 -56 -103 -94 l-22 -30 28 18 c16 10 37 27
48 38 15 15 24 18 33 9 18 -14 41 -4 61 27 16 23 14 53 -2 53 -4 0 -24 -10
-43 -21z"/>
<path d="M3558 4164 c-2 -1 -32 -4 -68 -8 -36 -3 -81 -11 -98 -17 -56 -19 -24
-46 36 -30 64 17 77 -10 42 -88 -21 -46 -26 -81 -11 -81 5 0 16 17 25 38 19
42 28 58 74 128 17 28 32 53 32 56 0 5 -28 7 -32 2z"/>
<path d="M5930 4140 c0 -4 13 -13 30 -20 16 -7 28 -16 25 -20 -2 -4 -34 -16
-69 -26 -54 -15 -66 -23 -71 -44 -4 -14 -17 -39 -30 -56 l-24 -32 34 -6 c26
-5 35 -12 35 -27 0 -16 -5 -19 -20 -14 -15 5 -18 3 -14 -9 6 -17 32 -29 45
-20 5 3 9 -3 10 -13 3 -84 7 -105 22 -120 28 -28 68 0 88 60 13 41 18 46 28
33 16 -20 17 -82 1 -101 -28 -34 16 -59 61 -35 27 15 24 -2 -5 -29 -18 -17
-30 -21 -48 -15 -12 4 -29 7 -37 5 -7 -1 -10 2 -7 7 11 18 -19 30 -71 29 -29
-1 -53 -3 -53 -5 0 -2 7 -10 15 -18 16 -16 21 -49 6 -40 -16 10 -28 -18 -30
-69 -2 -61 -8 -84 -30 -109 -14 -17 -10 -16 23 4 31 19 40 20 47 9 5 -8 7 -22
5 -31 -5 -22 1 -22 45 -4 19 7 45 12 59 9 28 -4 64 -33 42 -33 -8 0 -1 -18 18
-44 31 -46 37 -66 20 -66 -5 0 -10 -5 -10 -10 0 -10 41 -7 60 5 14 9 -15 61
-44 80 -15 10 -22 23 -19 34 5 20 -21 51 -42 51 -14 0 -27 24 -18 33 2 3 36 3
74 1 38 -2 69 0 69 5 0 5 -7 24 -15 44 -8 19 -12 44 -10 56 3 16 -1 21 -16 21
-23 0 -24 9 -4 36 8 10 15 31 15 45 0 14 7 34 15 45 20 26 19 33 -5 27 -12 -3
-21 0 -23 8 -2 8 -13 41 -23 74 -10 33 -19 81 -18 107 1 40 -2 48 -18 48 -22
0 -23 18 -2 48 24 35 -2 25 -32 -12 -15 -18 -28 -46 -30 -62 -2 -15 -17 -41
-33 -58 -30 -29 -31 -29 -51 -11 -11 10 -27 31 -34 47 -13 26 -13 28 4 28 9 0
23 -7 30 -15 18 -22 62 -20 58 3 -2 9 -13 18 -25 20 -36 5 -46 26 -25 52 l19
23 14 -21 c16 -23 27 -19 52 18 18 27 22 65 8 75 -15 9 -71 13 -71 5z m10
-510 c0 -11 -9 -29 -20 -40 -11 -11 -20 -22 -20 -25 0 -3 9 -5 20 -5 23 0 27
-15 5 -24 -23 -8 -19 -46 4 -46 26 0 36 17 36 65 0 30 4 41 18 43 10 2 17 -3
17 -12 0 -9 8 -16 18 -16 10 0 19 -6 19 -12 0 -7 2 -20 4 -28 3 -10 -3 -14
-17 -12 -15 2 -29 -7 -44 -28 -25 -35 -39 -37 -71 -11 -29 24 -33 71 -8 127
19 46 39 58 39 24z"/>
<path d="M4327 4066 c3 -15 -4 -36 -18 -55 -28 -39 -29 -129 -1 -139 19 -6 25
44 8 76 -21 40 -20 45 4 32 28 -15 41 -4 34 27 -7 24 -5 25 22 19 l29 -7 -34
35 c-41 42 -50 45 -44 12z"/>
<path d="M5681 3921 c-7 -5 -14 -32 -16 -62 -3 -30 -9 -69 -14 -87 -9 -30 -7
-75 5 -94 3 -4 14 -8 25 -8 15 0 18 5 13 24 -4 16 -1 25 10 29 12 5 16 20 16
55 0 32 5 54 15 62 8 7 15 20 15 29 -1 34 -45 67 -69 52z"/>
<path d="M5400 3815 c-11 -13 -7 -95 5 -115 2 -3 5 -28 6 -56 3 -58 17 -94 29
-73 9 14 7 54 -8 131 -5 26 -8 63 -6 82 3 40 -8 53 -26 31z"/>
<path d="M4295 3784 c24 -35 25 -60 1 -51 -52 20 -58 19 -47 -1 14 -26 40 -52
51 -52 5 0 21 11 36 25 29 27 72 33 92 13 7 -7 12 -29 12 -49 0 -21 4 -40 9
-43 12 -8 23 22 16 44 -4 11 3 20 20 28 14 6 25 16 25 21 0 12 -39 35 -47 28
-8 -8 -64 14 -112 45 -25 15 -53 28 -63 28 -15 0 -15 -4 7 -36z"/>
<path d="M3150 3761 c-8 -10 -39 -44 -67 -75 -57 -61 -68 -100 -33 -111 50
-16 203 4 260 35 35 19 6 30 -50 20 -25 -5 -60 -9 -78 -10 l-33 0 30 37 c37
45 38 63 9 98 -22 24 -23 25 -38 6z m30 -63 c0 -6 -9 -21 -20 -33 -11 -12 -21
-33 -22 -48 -2 -24 -6 -27 -40 -27 -20 0 -39 4 -43 10 -7 12 39 85 62 99 25
14 63 14 63 -1z"/>
<path d="M6340 3684 c-6 -14 -10 -39 -10 -55 0 -27 -2 -29 -41 -29 -49 0 -49
-20 -1 -34 52 -15 79 4 83 56 7 83 -10 117 -31 62z"/>
<path d="M3415 3608 c13 -43 46 -69 85 -67 19 1 46 -1 60 -5 22 -6 27 -2 39
26 8 18 16 37 19 42 2 4 -9 5 -26 1 -23 -5 -33 -2 -41 12 -10 16 -12 16 -20 3
-5 -8 -17 -24 -25 -35 -16 -20 -16 -19 -46 13 -35 38 -54 42 -45 10z"/>
<path d="M4470 3603 c-25 -14 -53 -33 -63 -41 -17 -15 -16 -17 14 -48 l32 -33
-42 -17 c-22 -9 -41 -20 -41 -25 0 -15 34 -10 68 11 37 23 42 24 42 9 0 -24
-66 -61 -115 -63 -5 -1 -11 -11 -13 -23 -6 -44 89 -29 185 29 55 34 67 50 33
43 -17 -3 -25 7 -45 52 -29 65 -31 90 -8 115 23 25 6 22 -47 -9z"/>
<path d="M5087 3504 c-1 -1 -40 -4 -87 -8 -100 -7 -148 -15 -172 -28 -10 -5
-48 -10 -84 -13 -80 -5 -99 -19 -108 -83 -16 -120 -41 -200 -108 -342 -27 -57
-46 -110 -44 -117 11 -27 152 -232 199 -288 159 -189 570 -551 619 -544 29 3
37 -3 48 -36 6 -19 16 -36 21 -36 5 -1 15 -2 22 -3 6 -1 19 1 27 5 8 4 48 9
87 12 60 4 88 13 161 50 107 53 151 85 185 135 32 45 39 88 21 124 -8 15 -10
29 -6 32 4 2 33 3 64 1 44 -3 58 0 63 13 8 20 -6 33 -47 41 -29 6 -33 10 -30
35 6 45 39 114 61 125 11 6 31 11 46 11 31 0 41 22 44 98 1 31 7 64 12 74 16
30 -1 138 -21 138 -16 0 -23 -44 -24 -137 -1 -50 -5 -95 -9 -99 -14 -14 -40
11 -70 67 -28 51 -29 57 -17 98 7 28 26 59 51 83 31 31 38 44 33 61 -9 29 -9
30 -33 22 -11 -3 -28 -24 -38 -45 -10 -22 -25 -40 -33 -40 -9 0 -26 -7 -39
-16 -24 -17 -37 -11 -43 21 -3 16 -12 20 -46 21 -24 1 -51 8 -60 16 -27 23
-49 28 -67 14 -16 -12 -16 -13 0 -30 10 -9 35 -24 57 -33 43 -17 44 -22 2 -29
-16 -3 -36 -7 -45 -10 -18 -5 -49 20 -49 40 0 24 -42 140 -85 237 -48 106 -48
106 -5 204 16 37 19 55 11 71 -13 30 -69 70 -111 80 -27 6 -346 13 -353 8z
m311 -122 c12 -7 23 -17 23 -22 1 -6 2 -16 3 -22 1 -7 -2 -19 -7 -26 -15 -19
8 -108 63 -240 138 -333 112 -444 -163 -714 -55 -54 -103 -98 -108 -98 -4 0
-14 6 -21 13 -7 7 -60 53 -118 104 -268 233 -462 466 -462 556 0 17 18 77 40
132 22 55 50 135 62 178 33 111 63 130 228 145 125 12 434 8 460 -6z m456
-593 c49 -74 51 -88 16 -129 l-20 -23 0 22 c0 33 -17 59 -50 76 -16 8 -31 15
-34 15 -3 0 -11 -18 -17 -40 -9 -29 -9 -44 -2 -51 18 -18 35 -1 23 22 -13 23
-3 25 22 2 24 -22 24 -69 -2 -83 -10 -6 -28 -30 -39 -55 -23 -52 -35 -55 -120
-29 l-53 15 6 52 c11 77 30 111 77 131 46 21 47 43 1 38 -23 -3 -32 1 -32 12
0 40 85 94 151 95 21 1 34 -11 73 -70z m30 -225 c9 -3 16 -15 16 -26 0 -27
-66 -92 -86 -84 -21 8 -93 -76 -94 -111 0 -21 36 -34 63 -24 29 11 58 -5 54
-31 -2 -9 -16 -37 -32 -63 l-30 -47 -3 31 c-2 17 -9 31 -15 32 -7 1 -55 2
-107 3 -79 1 -103 5 -142 25 -27 14 -50 23 -52 20 -4 -4 -9 -54 -7 -81 1 -10
10 -26 22 -36 14 -14 19 -28 15 -48 -2 -16 -5 -32 -5 -36 -1 -4 -8 -14 -17
-23 -21 -21 -46 -13 -111 36 -70 52 -80 72 -54 107 34 47 220 226 259 249 l37
22 55 -20 c65 -23 55 -22 74 -4 8 9 36 18 62 20 49 5 78 21 68 36 -3 5 -13 9
-22 9 -27 0 -45 17 -39 34 7 16 59 22 91 10z"/>
<path d="M5584 3471 c22 -17 51 -34 65 -37 34 -7 105 -39 128 -58 134 -112
334 -224 418 -234 78 -8 53 16 -97 93 -204 104 -337 193 -323 215 6 9 -43 25
-105 34 -19 3 -55 9 -80 12 l-45 7 39 -32z"/>
<path d="M3625 3467 c-8 -17 -20 -23 -54 -25 -31 -2 -56 -12 -81 -32 -20 -16
-49 -31 -63 -34 -24 -4 -27 -2 -27 25 0 40 -15 36 -46 -13 -15 -23 -35 -51
-45 -62 -11 -11 -19 -24 -19 -28 0 -16 55 2 71 23 14 19 25 21 86 20 55 -1 72
2 77 14 7 19 32 19 40 0 4 -12 14 -6 42 25 26 29 39 37 45 28 4 -6 5 -16 3
-20 -3 -4 -2 -13 2 -19 15 -25 21 16 9 59 -18 57 -28 67 -40 39z"/>
<path d="M2954 3458 c-22 -71 4 -141 62 -164 24 -10 36 -9 64 3 l35 16 -29 6
c-28 6 -39 17 -50 54 -3 10 -20 24 -38 32 -28 12 -31 20 -5 16 15 -3 47 20 47
33 0 16 -21 26 -55 26 -16 0 -26 -8 -31 -22z"/>
<path d="M1384 3338 c4 -61 9 -114 11 -117 1 -3 6 -28 9 -56 10 -77 35 -157
49 -152 13 4 14 19 2 107 -4 36 -9 76 -11 90 -2 14 -5 36 -9 50 -3 14 -7 39
-10 55 -16 92 -28 135 -37 135 -7 0 -9 -35 -4 -112z"/>
<path d="M1838 3392 c-23 -25 -30 -55 -29 -123 0 -95 19 -169 51 -201 48 -48
53 -40 45 75 -8 112 -12 159 -15 167 -1 3 -2 9 -1 14 3 13 -19 75 -28 81 -5 2
-15 -3 -23 -13z"/>
<path d="M1040 3372 c-19 -15 -22 -25 -16 -54 7 -41 32 -57 41 -27 4 10 15 19
26 19 11 0 24 11 31 26 11 22 10 28 -7 40 -26 19 -48 18 -75 -4z"/>
<path d="M5563 3338 c-6 -10 13 -27 32 -29 83 -7 97 -39 45 -104 -57 -72 -32
-94 35 -29 47 46 67 51 73 20 5 -21 -60 -86 -86 -86 -58 0 -67 -26 -21 -64 22
-19 42 -26 72 -26 39 1 41 2 23 15 -11 8 -30 15 -43 15 -32 0 -29 15 10 43 48
36 65 39 77 16 7 -13 19 -19 33 -17 21 3 22 0 19 -58 -2 -36 1 -65 7 -68 15
-9 59 16 104 57 34 33 49 56 28 42 -12 -6 -33 29 -24 39 11 11 -47 113 -89
155 -44 45 -55 48 -99 25 -30 -15 -31 -14 -70 20 -21 20 -47 37 -57 37 -9 1
-27 3 -40 4 -12 1 -25 -2 -29 -7z m272 -85 c28 -31 32 -55 11 -72 -11 -9 -20
-5 -45 19 -33 33 -35 39 -25 64 9 24 30 19 59 -11z"/>
<path d="M4267 3302 c-40 -25 -44 -55 -13 -93 14 -17 26 -38 26 -48 0 -14 6
-17 30 -13 27 4 31 1 36 -26 8 -41 29 -47 70 -21 l34 21 -24 19 c-14 11 -30
36 -37 57 -13 42 -38 74 -50 66 -15 -9 -10 13 6 26 8 7 15 16 15 21 0 15 -64
9 -93 -9z"/>
<path d="M3178 3244 c-2 -1 -17 -5 -33 -8 -16 -3 -35 -12 -43 -20 -13 -12 -12
-20 8 -61 23 -47 52 -67 80 -57 21 8 49 44 50 64 0 15 -3 15 -37 -2 -42 -20
-61 -17 -41 7 11 14 10 15 -12 8 -22 -6 -23 -6 -10 8 37 38 115 22 122 -25 3
-18 10 -22 48 -22 63 -1 73 -23 66 -146 -3 -52 -7 -106 -10 -120 -3 -14 -9
-39 -12 -57 -3 -17 -14 -39 -24 -48 -23 -21 -45 -11 -118 59 -104 98 -166 193
-202 309 -11 34 -26 72 -34 83 -15 21 -17 21 -91 6 -66 -13 -76 -18 -82 -39
-6 -27 10 -45 33 -36 20 7 66 -24 97 -67 29 -41 24 -56 -16 -41 -24 10 -37 6
-37 -11 0 -4 23 -33 50 -63 28 -30 50 -62 50 -70 0 -17 -23 -29 -87 -45 -23
-6 -45 -15 -49 -21 -8 -14 52 -76 86 -88 39 -13 54 0 46 40 l-6 33 30 -29 c43
-41 39 -67 -14 -96 -39 -20 -47 -30 -61 -76 -18 -58 -16 -90 6 -85 63 15 163
2 189 -24 13 -13 13 -16 1 -23 -15 -10 -119 -7 -187 4 -39 6 -43 4 -56 -22 -9
-15 -96 -188 -196 -383 -99 -195 -210 -407 -246 -470 -97 -170 -119 -218 -112
-244 7 -29 56 -51 93 -42 39 10 103 53 103 70 0 8 -19 23 -42 34 -54 25 -86
58 -71 73 13 13 61 -9 97 -46 32 -32 54 -32 99 3 138 105 226 170 252 186 47
30 70 60 66 88 0 3 15 28 34 55 106 147 190 280 239 378 61 122 127 285 132
328 7 58 -46 26 -205 -123 -76 -70 -181 -229 -235 -355 -36 -84 -86 -244 -86
-276 0 -11 -4 -19 -8 -19 -29 0 46 276 109 402 30 60 115 198 128 208 22 18
171 255 171 273 0 15 -26 5 -49 -18 -33 -35 -62 -40 -100 -17 -39 24 -29 33
39 34 56 2 56 10 0 38 -21 11 -42 24 -45 30 -8 13 41 99 62 107 8 3 47 -10 86
-30 63 -31 112 -47 192 -60 56 -10 109 -31 129 -51 19 -20 112 -53 123 -43 2
2 -28 23 -67 46 -38 23 -79 51 -90 63 -12 13 -26 19 -39 15 -30 -8 -27 17 18
163 70 223 72 246 23 237 -34 -6 -84 39 -84 76 0 17 -8 32 -20 38 -18 10 -192
21 -200 13z m-88 -1063 c0 -23 -84 -152 -134 -204 -64 -68 -57 -42 20 83 80
128 114 164 114 121z m-324 -273 c-11 -80 -43 -164 -86 -228 -65 -96 -129
-133 -116 -67 15 77 169 347 198 347 7 0 8 -17 4 -52z"/>
<path d="M1175 3211 c-22 -16 -54 -31 -70 -33 -27 -3 -30 -7 -33 -43 l-3 -40
24 27 c25 27 58 29 134 9 23 -7 35 -5 43 4 11 13 -2 29 -25 30 -5 0 -10 15
-10 34 0 19 -5 36 -10 38 -6 2 -29 -10 -50 -26z"/>
<path d="M3450 3231 c0 -4 18 -13 40 -20 55 -16 69 -41 64 -109 -2 -31 -6 -64
-9 -73 -11 -35 -14 -59 -6 -59 7 0 17 27 39 100 2 8 6 38 8 65 6 71 -16 97
-84 100 -29 2 -52 0 -52 -4z"/>
<path d="M2709 3206 c-2 -2 -24 -7 -48 -11 -23 -3 -53 -10 -65 -14 -11 -5 -24
-9 -29 -9 -58 -7 -291 -99 -475 -189 -218 -106 -527 -289 -585 -347 -9 -9 -18
-16 -21 -16 -3 0 -14 -8 -24 -17 -89 -87 -190 -165 -209 -162 -71 12 -17 -63
114 -158 111 -79 240 -112 427 -108 237 6 449 94 641 267 181 162 304 348 329
498 17 105 15 248 -4 260 -16 10 -44 13 -51 6z m-33 -140 c32 -10 38 -47 12
-67 -21 -16 -27 -56 -13 -98 4 -13 0 -20 -15 -24 -23 -6 -42 -49 -35 -80 5
-18 -2 -26 -39 -45 -24 -13 -70 -49 -100 -79 -73 -73 -76 -104 -6 -68 48 25
35 3 -42 -72 -77 -73 -144 -123 -175 -127 -12 -2 -17 -10 -15 -23 1 -11 -9
-31 -24 -46 -28 -28 -47 -29 -24 -2 19 22 6 18 -47 -15 -46 -29 -124 -58 -181
-66 -64 -9 -203 -3 -281 11 -46 9 -96 18 -110 20 -77 10 -81 36 -13 84 34 24
82 28 207 16 69 -6 242 -6 290 0 22 3 99 34 172 70 72 36 143 66 158 67 17 2
24 7 20 16 -3 8 -5 18 -5 23 0 21 -59 6 -137 -36 -164 -89 -179 -92 -458 -100
-180 -5 -196 -7 -288 -50 -52 -24 -62 -26 -84 -14 -44 24 -45 42 -5 85 169
183 757 509 1102 610 75 22 96 23 136 10z"/>
<path d="M4176 3159 c9 -19 31 -52 48 -74 31 -39 31 -40 31 -157 0 -127 10
-158 39 -117 20 29 20 34 0 54 -15 14 -14 20 5 66 36 83 16 142 -72 212 -65
52 -71 54 -51 16z"/>
<path d="M1725 3010 c6 -29 5 -30 -21 -26 -32 6 -85 -28 -59 -38 23 -8 19 -19
-25 -72 -37 -45 -48 -74 -17 -42 8 8 53 32 100 52 90 41 111 63 105 112 l-4
29 -16 -35 c-15 -31 -17 -33 -23 -15 -16 47 -25 65 -36 65 -7 0 -8 -11 -4 -30z"/>
<path d="M1130 2994 c-19 -8 -43 -13 -52 -11 -22 6 -28 -11 -16 -43 21 -56 75
-85 66 -35 -7 34 15 51 36 30 9 -9 16 -20 16 -25 0 -20 29 3 44 35 20 41 20
49 2 42 -8 -3 -20 1 -26 9 -15 17 -26 17 -70 -2z"/>
<path d="M3980 2987 c-9 -7 -48 -51 -87 -99 -40 -47 -84 -95 -98 -106 -14 -11
-25 -29 -25 -40 0 -10 -8 -30 -17 -43 -10 -13 -24 -35 -31 -47 -12 -22 -12
-22 7 -12 21 11 70 70 154 185 26 36 55 65 64 65 20 0 70 -37 141 -104 74 -70
102 -87 133 -81 36 8 55 -13 216 -248 162 -235 235 -349 228 -355 -8 -8 -90
46 -150 100 -99 89 -213 208 -296 308 -43 52 -87 100 -97 107 -29 17 -232 -33
-232 -57 0 -19 78 -126 97 -134 6 -3 0 18 -14 46 -16 33 -22 53 -15 60 11 11
10 12 51 -66 38 -71 214 -304 266 -351 99 -90 271 -382 283 -480 7 -67 58
-148 109 -174 30 -15 104 -4 127 18 10 11 20 32 22 47 7 63 -74 427 -135 605
-41 122 -57 154 -121 239 -31 41 -83 113 -116 160 -96 139 -164 213 -217 235
-21 9 -60 44 -94 83 -32 37 -71 84 -88 103 -38 45 -47 50 -65 36z m257 -655
c48 -49 140 -134 203 -189 139 -122 170 -155 202 -213 58 -105 92 -351 44
-311 -8 7 -17 26 -20 44 -5 29 -52 129 -90 195 -7 13 -27 35 -45 49 -17 14
-31 31 -31 37 0 13 -66 114 -89 136 -9 8 -45 49 -81 90 -36 41 -68 77 -71 80
-3 3 -31 38 -62 79 -51 65 -66 91 -53 91 2 0 44 -40 93 -88z"/>
<path d="M1430 2898 c-15 -61 -40 -107 -61 -113 -29 -9 -22 -22 11 -23 22 0
35 6 47 25 18 27 19 32 28 100 7 56 -11 64 -25 11z"/>
<path d="M1227 2883 c-4 -3 -7 -17 -7 -30 0 -15 -17 -39 -45 -66 -25 -24 -45
-46 -45 -50 0 -3 12 -2 28 2 33 9 86 5 112 -9 11 -6 21 -6 24 -1 10 16 -5 41
-24 41 -14 0 -18 6 -14 20 2 11 6 28 8 38 8 35 -18 74 -37 55z"/>
<path d="M4480 2715 c-19 -7 -52 -14 -73 -14 l-38 -1 16 -30 c21 -40 54 -39
110 1 73 52 65 75 -15 44z"/>
<path d="M3249 2648 c-6 -11 -12 -31 -14 -43 -2 -21 2 -23 39 -24 23 0 57 -5
76 -11 47 -13 47 -13 53 13 2 12 8 30 12 40 6 15 1 17 -46 17 -30 0 -66 7 -81
14 -26 14 -29 13 -39 -6z"/>
<path d="M1161 2621 c-17 -32 2 -86 40 -109 17 -11 17 -9 -1 31 -34 74 -16
103 22 37 22 -40 64 -42 78 -4 13 33 8 41 -29 42 -16 0 -39 5 -50 11 -29 16
-49 13 -60 -8z"/>
<path d="M3655 2528 c-17 -52 -77 -281 -95 -360 -23 -106 -27 -132 -35 -228
-3 -36 -8 -72 -10 -80 -2 -8 -7 -40 -10 -70 -3 -30 -10 -82 -15 -115 -8 -53
-13 -98 -26 -220 -25 -247 -22 -622 6 -675 11 -20 58 -33 122 -34 41 0 58 11
62 40 4 26 15 24 32 -6 l15 -25 -6 32 c-12 60 34 98 63 53 7 -11 17 -20 23
-20 5 0 8 4 4 9 -11 19 18 61 41 61 32 0 36 12 15 44 -16 24 -19 52 -9 97 2 7
-5 15 -15 17 -19 4 -67 -26 -122 -74 -62 -55 -116 -64 -169 -28 -31 20 -29 25
16 30 85 10 128 22 128 35 0 10 -41 10 -123 0 -59 -7 -85 -1 -73 18 8 12 90
37 151 45 58 8 137 27 158 38 10 5 17 20 17 38 0 23 8 33 42 52 29 16 51 38
68 70 30 57 58 87 88 93 36 7 26 -21 -25 -72 -83 -82 -8 -60 86 25 22 21 31
37 27 47 -3 9 -10 14 -15 11 -14 -9 -41 4 -41 19 0 19 58 65 110 88 25 11 60
35 79 54 l34 35 -6 86 c-12 186 -44 307 -119 457 -89 179 -191 283 -369 379
-94 50 -98 52 -104 34z m155 -169 c58 -35 194 -187 229 -257 16 -31 24 -97 25
-214 0 -54 4 -98 8 -98 5 0 8 10 8 23 2 77 24 163 45 171 19 7 26 -23 42 -174
14 -134 10 -215 -11 -239 -26 -29 -41 -26 -74 11 l-29 31 -1 -39 c-2 -51 -48
-116 -164 -231 -160 -158 -194 -180 -290 -182 l-58 -1 5 82 c13 201 30 401 45
507 5 35 8 67 8 70 -2 10 38 266 57 361 21 110 45 177 69 192 19 13 50 8 86
-13z m-16 -1442 c-3 -9 -22 -19 -41 -23 -19 -4 -55 -24 -79 -45 -48 -42 -97
-56 -141 -42 -28 10 -42 38 -26 54 4 4 36 11 71 14 70 6 102 17 141 44 47 34
89 33 75 -2z"/>
<path d="M4065 1770 c-3 -5 -1 -10 4 -10 6 0 11 5 11 10 0 6 -2 10 -4 10 -3 0
-8 -4 -11 -10z"/>
<path d="M3393 2383 c-7 -3 -13 -15 -13 -28 0 -18 12 -29 52 -49 52 -26 98
-34 98 -17 0 20 -118 101 -137 94z"/>
<path d="M5908 2211 c-124 -126 -185 -175 -265 -213 -106 -49 -90 -68 19 -22
35 14 74 24 89 22 23 -4 28 0 33 22 5 26 69 100 87 100 15 0 10 -20 -13 -53
l-22 -32 24 20 c37 30 49 48 50 70 0 11 25 52 56 90 69 87 67 82 53 91 -7 4
-52 -35 -111 -95z"/>
<path d="M4911 2203 c-29 -25 -65 -65 -82 -89 -47 -69 -37 -84 26 -34 70 55
66 26 -7 -62 -46 -55 -45 -61 3 -17 46 43 75 53 102 34 28 -19 46 -19 69 2 11
9 34 17 52 17 l32 0 -28 30 -29 30 23 9 c22 8 22 9 4 22 -17 13 -22 10 -52
-33 -19 -26 -34 -50 -34 -54 0 -5 -6 -8 -14 -8 -16 0 -40 34 -48 67 -8 30 30
87 61 91 22 3 22 4 5 23 -9 10 -20 19 -24 19 -3 0 -30 -21 -59 -47z"/>
<path d="M3324 2151 c35 -39 127 -69 156 -51 25 15 -57 54 -139 66 -34 4 -34
4 -17 -15z"/>
<path d="M2032 2141 c-22 -6 -22 -6 5 -18 16 -7 41 -33 57 -59 35 -55 66 -85
79 -77 5 3 -3 16 -17 30 -15 13 -24 28 -21 34 9 14 -24 64 -54 81 -14 8 -36
12 -49 9z"/>
<path d="M1870 2116 c0 -2 18 -32 40 -65 22 -33 40 -72 40 -86 0 -22 3 -25 20
-20 14 5 22 1 26 -12 12 -37 27 -62 70 -114 24 -30 44 -60 44 -68 0 -8 30 -60
68 -116 37 -56 72 -109 77 -118 14 -23 45 -25 59 -4 9 14 6 26 -13 60 -44 78
-153 242 -195 291 -27 33 -40 57 -38 73 3 17 -5 28 -27 41 -21 11 -29 22 -25
34 3 9 -2 21 -12 26 -10 5 -25 25 -33 43 -14 30 -21 34 -59 37 -23 2 -42 1
-42 -2z"/>
<path d="M1590 1970 c-14 -5 -44 -14 -68 -20 l-43 -11 2 -64 c2 -70 13 -87 62
-99 16 -4 41 -20 57 -36 16 -17 32 -30 36 -30 3 0 4 27 1 60 -2 33 0 63 5 66
5 3 21 -5 35 -17 l25 -24 -8 29 c-6 27 -6 28 24 22 28 -7 30 -5 46 40 18 52
21 94 7 94 -5 0 -11 -14 -15 -31 -7 -37 -31 -34 -31 4 1 34 -8 34 -35 0 -13
-17 -20 -38 -18 -57 2 -17 -2 -31 -9 -33 -18 -6 -33 40 -26 81 6 39 0 42 -47
26z"/>
<path d="M2170 1956 c0 -3 7 -12 16 -20 8 -9 18 -28 20 -43 6 -30 58 -104 87
-122 29 -19 39 -3 21 32 -36 70 -144 185 -144 153z"/>
<path d="M6285 1920 c-9 -17 -24 -30 -34 -30 -22 0 -48 -22 -86 -75 -17 -22
-33 -42 -36 -45 -4 -3 -10 -16 -14 -29 l-7 -23 30 22 c17 13 37 20 46 17 23
-9 66 30 66 60 0 15 10 33 24 44 27 21 50 75 36 84 -5 3 -16 -8 -25 -25z"/>
<path d="M3186 1823 c-10 -11 43 -43 120 -73 89 -34 150 -48 139 -31 -10 17
-82 51 -116 55 -17 2 -45 14 -62 26 -30 22 -70 34 -81 23z"/>
<path d="M1924 1760 c-62 -64 -79 -88 -71 -97 3 -3 12 -1 19 3 25 16 48 14 68
-6 26 -26 38 -25 52 5 9 19 9 28 0 37 -9 9 -12 8 -12 -5 0 -10 -8 -17 -20 -17
-20 0 -22 5 -22 35 0 28 2 32 26 43 21 9 43 62 26 62 -4 0 -34 -27 -66 -60z"/>
<path d="M6120 1688 c-33 -12 -110 -94 -137 -147 -27 -50 -28 -61 -8 -61 23 0
142 118 128 127 -6 5 -13 17 -15 28 -2 14 2 19 14 17 16 -2 78 23 78 32 0 10
-38 12 -60 4z"/>
<path d="M3005 1658 c-24 -13 -54 -49 -55 -64 0 -23 30 -23 57 0 39 32 63 39
70 21 3 -9 -4 -24 -17 -35 l-23 -20 24 0 c29 0 49 -17 49 -41 0 -32 -26 -47
-77 -44 -66 3 -65 2 -61 27 2 14 -2 23 -10 23 -8 0 -27 14 -44 30 -27 27 -30
28 -24 8 10 -33 -6 -54 -55 -74 -24 -9 -45 -24 -47 -33 -4 -20 13 -20 67 -1
38 13 41 13 51 -5 19 -36 12 -46 -28 -42 -27 3 -42 -1 -52 -14 -14 -16 -11
-16 41 -11 31 2 68 12 81 21 23 15 26 15 39 0 11 -14 10 -19 -10 -35 -21 -17
-22 -19 -4 -19 21 0 56 33 67 64 5 15 9 17 18 8 9 -9 20 -4 46 20 19 18 30 25
25 14 -14 -26 -4 -58 16 -54 10 2 15 12 13 26 -2 12 7 39 19 59 20 31 23 34
29 17 9 -24 5 -118 -5 -134 -4 -6 -16 -10 -26 -7 -41 11 -26 -14 33 -56 90
-63 97 -66 75 -37 -76 105 -74 201 3 213 34 5 35 20 4 56 -19 23 -30 29 -38
22 -14 -11 -36 4 -36 24 0 6 -6 19 -13 29 -11 15 -17 17 -35 7 -28 -15 -28
-24 0 -36 31 -14 35 -35 5 -35 -26 0 -51 23 -61 57 -8 24 -56 63 -78 63 -7 0
-22 -6 -33 -12z"/>
<path d="M1863 1598 c-33 -9 -73 -50 -73 -76 0 -9 10 -36 21 -60 17 -34 31
-48 66 -63 24 -10 60 -31 80 -46 l36 -28 -16 32 c-9 17 -15 38 -12 45 4 9 -3
14 -21 16 -42 3 -123 68 -124 99 0 7 9 17 21 23 25 14 72 -12 63 -34 -3 -7 3
-21 12 -30 20 -21 34 -7 34 34 0 14 7 37 14 52 8 16 11 30 5 33 -16 10 -73 12
-106 3z"/>
<path d="M2130 1582 c-8 -3 -30 -18 -49 -34 -20 -18 -41 -28 -52 -25 -43 11
-60 -53 -22 -85 14 -11 15 -10 8 12 -4 14 -10 31 -13 39 -8 22 19 8 40 -20 20
-26 26 -72 15 -104 -5 -16 1 -24 32 -42 29 -16 41 -19 50 -10 15 15 14 27 -1
27 -24 0 -41 18 -44 46 -1 16 -8 49 -15 73 l-13 45 44 37 c43 37 50 51 20 41z"/>
<path d="M2132 1521 c-13 -8 -11 -49 4 -72 4 -7 7 -25 6 -41 0 -21 3 -28 12
-25 8 3 23 -1 35 -9 20 -15 21 -14 21 21 0 29 -5 37 -25 45 -30 11 -32 26 -5
35 23 7 26 25 8 43 -14 14 -37 15 -56 3z"/>
<path d="M4250 1490 c-6 -10 -11 -31 -12 -46 -2 -17 -11 -29 -26 -35 -13 -5
-20 -14 -17 -20 12 -19 -43 -86 -105 -127 l-61 -41 33 -6 c90 -15 125 -13 150
9 44 37 85 147 81 214 0 6 -1 23 -2 36 -1 31 -28 41 -41 16z"/>
<path d="M2720 1423 c0 -27 -4 -32 -27 -35 -24 -3 -29 -9 -35 -46 -9 -54 -14
-62 -41 -62 -30 0 -67 -27 -67 -48 1 -9 7 -28 15 -42 10 -19 11 -29 2 -40 -9
-12 -8 -12 6 1 10 9 18 31 19 55 0 21 3 43 5 47 9 15 33 -15 43 -54 11 -39 26
-50 36 -26 2 7 -2 29 -10 49 -19 45 -6 64 48 73 54 8 55 12 6 26 l-43 13 29 9
c58 19 68 44 34 87 l-20 25 0 -32z"/>
<path d="M2042 1293 c-2 -46 13 -77 24 -50 7 20 -4 87 -15 87 -4 0 -8 -17 -9
-37z"/>
<path d="M3889 1155 c-56 -31 -43 -79 46 -171 57 -58 76 -97 56 -117 -7 -7
-40 -12 -74 -12 l-62 0 0 -40 0 -40 -50 0 c-32 -1 -71 -11 -108 -28 -32 -14
-64 -24 -71 -21 -20 8 -30 -14 -16 -31 18 -22 61 -18 147 10 183 62 331 180
413 330 l33 60 -40 -38 c-27 -25 -45 -36 -56 -31 -19 7 -50 -13 -41 -27 7 -12
-1 -11 -46 2 -41 12 -56 35 -66 98 -8 50 8 60 35 22 12 -16 21 -32 21 -35 0
-3 9 -20 19 -37 l19 -32 26 51 c33 65 32 68 -3 43 -36 -26 -45 -26 -31 -1 26
48 -85 81 -151 45z"/>
<path d="M2314 1095 c-30 -72 -11 -91 88 -87 38 1 78 -3 88 -8 27 -14 25 -3
-8 45 -35 50 -86 85 -124 85 -24 0 -32 -6 -44 -35z"/>
<path d="M4185 981 c12 -21 -135 -176 -226 -238 -48 -33 -73 -68 -41 -56 106
39 342 303 271 303 -6 0 -8 -4 -4 -9z"/>
<path d="M2690 905 c0 -28 -4 -35 -20 -35 -13 0 -24 10 -31 28 -10 24 -12 25
-18 8 -10 -27 -1 -67 16 -73 25 -10 91 16 113 44 19 24 19 27 4 45 -10 10 -28
18 -41 18 -20 0 -23 -5 -23 -35z"/>
<path d="M2979 813 c-20 -9 -42 -25 -48 -35 -10 -15 -7 -23 15 -43 34 -32 84
-34 84 -5 0 16 5 19 24 14 30 -7 38 12 20 54 -15 37 -38 40 -95 15z"/>
<path d="M3338 749 c-34 -20 -54 -79 -37 -110 29 -54 129 13 119 80 -4 33 -50
49 -82 30z"/>
<path d="M6710 520 c11 -21 1 -27 -17 -9 -19 19 -186 8 -232 -16 -17 -8 -46
-15 -66 -15 -44 0 -54 -21 -26 -51 13 -14 19 -30 15 -41 -7 -24 -3 -23 41 12
46 37 57 38 45 5 -19 -50 9 -69 56 -39 31 21 36 16 24 -27 l-10 -34 34 40 c31
36 35 38 41 20 19 -55 28 -75 36 -75 5 0 6 7 3 15 -6 16 12 45 27 45 5 0 9 -9
9 -20 0 -25 8 -25 34 -1 12 11 30 21 41 23 17 2 20 -2 19 -29 -2 -36 7 -41 26
-18 12 15 9 89 -4 103 -3 3 -17 -5 -30 -17 l-24 -23 4 54 c4 41 0 60 -15 86
-23 35 -49 46 -31 12z"/>
<path d="M6823 528 c-63 -17 -61 -37 10 -152 16 -24 29 -54 30 -65 1 -12 4
-20 7 -18 3 2 19 10 37 17 37 16 45 41 45 133 0 37 -5 64 -13 72 -19 17 -77
24 -116 13z"/>
<path d="M6173 470 c-42 -15 -68 -17 -100 -8 -4 1 -30 -3 -58 -10 -59 -14
-102 -19 -210 -27 -99 -6 -210 -15 -250 -19 -16 -2 -59 -7 -95 -10 -36 -4 -77
-8 -93 -10 -15 -2 -55 -7 -90 -11 -34 -3 -102 -13 -152 -21 -49 -9 -101 -17
-115 -18 -51 -6 -106 -19 -133 -33 -37 -19 -30 -25 13 -13 36 10 71 16 165 25
33 3 71 7 85 10 14 2 61 7 105 10 44 4 82 8 85 10 3 2 30 6 60 9 30 4 66 9 80
11 45 8 208 22 355 30 132 7 211 15 244 25 26 7 33 6 42 -12 11 -20 11 -20 22
2 15 29 51 37 44 10 -3 -10 1 -21 8 -23 15 -6 40 9 40 24 0 7 12 14 28 16 21
3 27 0 27 -16 0 -10 6 -21 14 -24 17 -7 36 11 36 34 0 43 -85 64 -157 39z"/>
</g>
</svg>
