<?xml version="1.0" standalone="no"?>
<!DOCTYPE svg PUBLIC "-//W3C//DTD SVG 20010904//EN"
 "http://www.w3.org/TR/2001/REC-SVG-20010904/DTD/svg10.dtd">
<svg version="1.0" xmlns="http://www.w3.org/2000/svg"
 width="261.000000pt" height="240.000000pt" viewBox="0 0 261.000000 240.000000"
 preserveAspectRatio="xMidYMid meet">
<metadata>
Created by potrace 1.10, written by Peter Selinger 2001-2011
</metadata>
<g transform="translate(0.000000,240.000000) scale(0.100000,-0.100000)"
fill="#000000" stroke="none">
<path d="M3 2371 c0 -21 3 -27 9 -19 8 13 9 12 13 -22 1 -11 4 -22 5 -25 1 -3
3 -9 4 -14 0 -5 4 -12 8 -16 7 -8 5 15 -3 30 -5 9 -5 31 1 38 8 9 3 54 -6 54
-6 0 -9 -10 -7 -21 4 -19 3 -19 -10 2 -14 24 -14 24 -14 -7z"/>
<path d="M637 2380 c-10 -12 -23 -18 -29 -14 -7 4 -8 3 -4 -4 4 -7 2 -20 -4
-29 -8 -14 -10 -14 -9 -3 3 33 -4 43 -10 15 -6 -31 -26 -39 -50 -21 -11 8 -13
8 -7 -1 5 -9 -1 -13 -19 -13 -14 0 -24 4 -21 8 3 5 -1 9 -9 9 -11 0 -12 -4 -4
-14 6 -7 17 -13 23 -13 7 0 23 -11 36 -25 12 -13 26 -22 30 -20 5 3 10 -2 14
-10 3 -8 1 -15 -3 -15 -5 0 -12 -7 -15 -16 -5 -14 -4 -15 9 -4 14 12 19 7 16
-13 -1 -5 3 -6 8 -3 5 4 11 1 13 -5 2 -7 10 -4 18 7 14 16 13 17 -3 11 -11 -4
-16 -3 -12 4 4 5 16 7 28 4 12 -2 16 -2 9 1 -6 3 -10 10 -7 15 4 5 -1 6 -9 3
-9 -3 -16 -1 -16 5 0 6 5 11 12 11 6 0 8 3 5 6 -4 4 -14 1 -23 -6 -13 -12 -17
-11 -25 1 -13 21 -11 33 4 20 16 -13 28 -5 21 13 -3 7 2 13 11 13 9 0 14 -5
12 -12 -3 -6 5 -11 18 -11 15 0 21 5 18 13 -3 7 1 13 8 13 9 1 8 4 -3 11 -10
5 -18 15 -18 20 0 6 5 7 12 3 7 -4 8 -3 4 5 -4 6 -12 9 -17 6 -5 -4 -9 1 -9
10 0 9 4 14 9 10 5 -3 13 0 17 6 5 8 3 9 -6 4 -10 -6 -12 -4 -7 8 8 22 5 21
-16 -3z m15 -89 c-4 -11 -7 -10 -13 2 -12 21 -44 14 -42 -9 1 -18 1 -18 -12
-1 -13 18 -14 17 -20 -3 -6 -20 -8 -21 -26 -4 -22 20 -17 34 11 29 11 -2 22 1
25 6 4 5 11 7 16 4 5 -4 14 5 21 19 l11 26 17 -27 c9 -16 15 -34 12 -42z"/>
<path d="M937 2386 c4 -5 -1 -7 -11 -3 -10 4 -15 3 -11 -3 6 -9 -8 -14 -27
-11 -5 0 -8 -4 -8 -10 0 -5 -4 -7 -10 -4 -5 3 -10 -1 -10 -9 0 -8 -10 -20 -22
-26 -22 -11 -22 -10 -4 4 26 21 7 21 -22 0 -17 -12 -26 -13 -37 -4 -10 8 -15
8 -21 -1 -4 -7 -3 -9 3 -6 6 4 17 -1 24 -10 12 -14 12 -16 0 -9 -7 5 -16 4
-20 -1 -13 -19 -81 -54 -92 -47 -7 4 -7 -1 1 -17 7 -13 9 -21 5 -17 -4 4 -22
-3 -39 -15 -17 -12 -34 -23 -38 -23 -5 -1 -13 -2 -19 -3 -5 0 -7 -6 -3 -12 4
-8 9 -7 15 2 5 8 9 9 9 3 0 -18 -27 -37 -35 -24 -3 6 -11 8 -16 4 -6 -3 -5
-12 3 -22 11 -13 11 -15 -4 -10 -10 4 -23 -2 -35 -15 -16 -19 -16 -20 0 -8 9
8 20 11 23 9 3 -3 -8 -12 -25 -19 -16 -7 -27 -17 -25 -21 3 -4 0 -8 -6 -8 -7
0 -9 -7 -6 -17 4 -10 4 -14 0 -11 -7 7 -54 -44 -54 -59 0 -15 -56 -64 -64 -56
-4 4 -4 0 -1 -9 4 -9 1 -19 -6 -24 -8 -5 -10 -3 -4 7 5 8 4 11 -1 6 -5 -5 -9
-14 -9 -20 -1 -7 -6 -11 -11 -10 -6 1 -11 -4 -11 -11 0 -15 -44 -76 -55 -76
-4 0 -5 -6 -2 -14 3 -8 -3 -22 -14 -32 -11 -9 -18 -24 -15 -33 4 -14 3 -14 -7
-1 -10 13 -11 11 -7 -7 3 -13 1 -23 -4 -23 -12 0 -12 37 1 45 5 3 7 12 3 21
-6 16 -18 10 -18 -9 0 -7 -4 -12 -10 -12 -5 0 -16 -4 -24 -9 -9 -6 -12 -5 -8
0 3 6 2 16 -2 23 -6 9 -10 7 -14 -8 -6 -23 17 -49 28 -31 8 13 25 13 25 0 0
-5 -5 -9 -11 -7 -6 1 -13 -9 -15 -23 -3 -23 -3 -24 10 -7 13 16 14 16 20 1 4
-9 4 -19 1 -22 -3 -3 -5 1 -5 8 0 17 -13 4 -16 -15 -1 -8 2 -15 7 -15 5 0 9
-5 9 -11 0 -5 -5 -7 -12 -3 -8 5 -9 2 -5 -9 3 -10 2 -17 -3 -17 -6 0 -10 8
-11 18 0 11 -2 12 -6 4 -3 -7 0 -19 6 -26 15 -17 3 -46 -27 -70 -15 -12 -22
-26 -19 -37 3 -11 1 -19 -4 -19 -5 0 -8 -3 -7 -7 6 -22 -14 -51 -32 -48 -21 4
-27 -9 -10 -20 6 -3 10 0 11 7 0 7 4 3 10 -10 5 -13 12 -21 16 -19 5 3 7 -59
6 -137 -1 -78 2 -158 7 -177 5 -19 11 -52 14 -74 4 -41 67 -228 92 -277 26
-51 160 -202 295 -334 177 -172 265 -236 420 -303 74 -32 79 -32 210 -30 74 1
140 6 147 12 7 6 12 6 12 0 0 -6 52 -10 125 -10 68 0 122 3 120 7 -3 5 10 8
28 8 17 1 64 10 102 22 39 12 84 24 100 27 17 3 32 8 35 12 3 4 14 11 25 15
20 8 20 8 0 16 -19 8 -14 11 18 14 6 1 14 3 17 6 3 3 36 26 75 50 38 25 93 64
122 87 29 24 55 43 59 43 7 0 39 31 40 39 0 3 4 14 9 24 6 14 10 15 22 6 8 -7
13 -8 12 -3 -6 19 13 54 29 54 13 0 14 2 3 9 -9 6 -36 -16 -95 -77 -89 -93
-163 -149 -274 -209 -39 -22 -69 -43 -65 -48 5 -4 0 -5 -9 -2 -10 3 -24 0 -32
-8 -8 -8 -21 -12 -29 -9 -8 3 -21 -1 -28 -8 -8 -7 -25 -14 -39 -14 -14 -1 -61
-9 -105 -18 -50 -10 -121 -16 -192 -15 -61 1 -115 -1 -120 -4 -4 -2 -26 -8
-48 -11 -48 -9 -38 7 15 22 l35 10 -37 1 c-27 1 -41 -5 -52 -21 -15 -20 -19
-21 -74 -11 -186 35 -439 198 -571 370 -31 39 -62 72 -70 72 -9 1 -4 -11 15
-31 24 -27 22 -26 -18 7 -25 22 -47 44 -47 49 -1 5 9 1 22 -10 l22 -19 -19 22
c-10 13 -22 20 -27 18 -9 -6 -62 58 -113 135 -35 53 -47 61 -25 17 10 -22 10
-22 -6 -2 -9 11 -14 28 -11 37 2 10 0 18 -6 18 -5 0 -6 5 -3 10 3 6 2 10 -3
10 -11 0 -79 219 -88 285 -4 28 -8 59 -10 70 -2 11 -4 64 -5 118 0 68 -4 95
-11 91 -7 -4 -8 -2 -4 5 4 6 12 9 17 6 5 -4 9 5 9 18 0 14 3 39 7 57 4 24 3
31 -5 26 -7 -4 -12 -2 -12 3 0 6 5 11 10 11 6 0 10 8 10 18 0 10 4 22 8 27 5
6 19 42 32 80 43 133 98 227 200 345 21 25 61 74 88 110 133 175 322 315 522
387 l65 23 -67 -2 c-39 -1 -64 -6 -61 -12z"/>
<path d="M1061 2374 c-106 -31 -231 -89 -231 -106 0 -9 3 -9 8 -2 11 17 51 36
62 29 5 -3 12 1 17 9 4 8 10 15 13 15 3 0 18 5 35 11 16 6 41 12 56 13 15 1
25 5 22 10 -2 4 1 7 6 7 17 0 24 2 51 12 14 6 48 14 75 18 49 7 49 8 10 8 -22
1 -78 -10 -124 -24z"/>
<path d="M1720 2376 c234 -84 434 -237 576 -442 97 -140 151 -260 201 -446 25
-96 27 -117 28 -320 1 -119 -1 -215 -5 -213 -4 2 -15 -31 -24 -73 -20 -87 -76
-236 -113 -299 -26 -46 -23 -73 5 -51 14 10 15 10 5 -2 -7 -8 -13 -21 -13 -29
1 -14 2 -14 13 1 12 15 14 15 27 -5 12 -19 11 -20 -2 -10 -11 9 -17 10 -26 1
-8 -8 -14 -5 -21 15 -6 15 -13 27 -15 27 -10 0 -35 -58 -28 -65 4 -3 2 -5 -4
-3 -6 1 -32 -25 -58 -58 -114 -152 -318 -300 -516 -375 -41 -15 -65 -28 -52
-29 33 0 214 65 270 97 99 57 214 151 205 167 -3 6 -3 8 2 4 10 -10 38 6 88
50 23 20 37 30 30 23 -8 -10 -6 -18 10 -34 12 -12 27 -20 32 -18 18 6 50 7 60
2 20 -11 48 -11 61 0 11 9 14 8 14 0 0 -7 4 -10 9 -6 5 3 12 2 14 -3 3 -4 29
-7 58 -7 l53 0 2 148 c1 116 -2 147 -12 147 -7 0 -28 6 -46 14 -18 8 -45 17
-60 21 -39 8 -37 32 22 214 28 85 50 160 50 168 0 7 4 13 10 13 5 0 7 7 4 15
-4 8 -11 12 -17 8 -6 -3 -7 -1 -3 6 6 9 11 9 23 -1 14 -11 15 -9 11 20 -2 18
0 36 5 39 6 3 7 1 3 -5 -4 -7 -3 -12 2 -12 11 0 14 138 2 145 -14 8 -32 -23
-25 -45 3 -11 10 -18 14 -16 4 3 7 -8 7 -24 0 -16 -3 -27 -8 -24 -10 6 -28
-37 -20 -50 3 -5 0 -6 -6 -2 -5 3 -12 0 -15 -6 -3 -7 -4 -3 -4 9 1 12 4 20 7
18 3 -2 10 7 16 20 9 19 9 25 -4 30 -8 3 -12 8 -9 12 4 3 1 13 -6 22 -10 14
-10 14 3 4 14 -10 16 -5 15 40 -1 29 -7 62 -13 74 -7 12 -8 24 -4 27 11 7 7
51 -4 49 -5 -1 -10 15 -10 35 -1 20 -4 48 -7 62 -12 45 -28 124 -31 153 -2 15
-6 31 -9 34 -4 3 -2 14 3 23 7 13 6 20 -5 24 -8 3 -15 16 -16 28 0 13 -3 17
-6 11 -2 -7 -9 -13 -14 -13 -14 0 -11 27 4 34 6 3 1 3 -13 -1 -23 -5 -24 -5
-10 12 8 11 10 16 3 12 -7 -4 -14 1 -18 15 -4 12 -23 45 -42 75 -18 29 -30 53
-26 53 4 0 0 7 -11 15 -10 8 -15 19 -10 26 4 7 3 10 -3 6 -13 -8 -41 43 -38
70 1 12 -2 20 -7 17 -4 -3 -8 0 -8 5 0 6 5 11 12 11 6 0 8 3 5 6 -4 4 -14 1
-24 -7 -15 -12 -16 -12 -10 6 7 20 7 20 -8 1 -8 -11 -18 -16 -22 -13 -3 4 -3
7 2 7 4 0 -10 18 -32 40 -22 21 -38 42 -34 46 3 4 -2 4 -12 1 -10 -4 -16 -3
-13 2 6 10 -171 161 -188 161 -6 0 -2 -7 8 -15 11 -8 16 -15 10 -15 -5 0 -20
10 -34 21 -14 11 -20 18 -14 15 6 -3 20 1 30 9 18 14 18 15 0 9 -16 -6 -17 -5
-6 16 9 17 9 25 -1 34 -9 8 -10 8 -5 -1 9 -16 -4 -44 -17 -36 -5 3 -7 1 -3 -5
13 -21 -15 -23 -43 -3 -16 12 -32 21 -36 21 -4 0 -19 8 -33 19 -18 12 -47 19
-87 20 l-60 1 65 -24z m725 -1766 c-2 -11 0 -22 6 -25 5 -4 9 0 9 7 0 9 3 10
8 2 4 -6 15 -10 24 -8 14 2 16 -1 8 -16 -6 -11 -15 -22 -21 -25 -7 -5 -4 -15
8 -28 l18 -22 -23 19 c-14 12 -19 23 -13 29 12 12 3 39 -10 31 -5 -3 -6 -11
-3 -17 4 -7 3 -9 -1 -4 -5 4 -16 0 -26 -9 -17 -15 -18 -15 -24 8 -3 13 -1 35
4 48 9 22 10 20 5 -12 -4 -24 -2 -38 5 -38 6 0 8 8 5 18 -5 13 -4 14 4 3 6 -8
12 -9 16 -3 3 6 2 13 -3 16 -5 4 -8 14 -6 24 5 22 4 22 9 22 3 0 3 -9 1 -20z
m73 -67 c0 -16 2 -38 5 -50 4 -14 1 -22 -6 -20 -6 1 -12 -5 -12 -13 -2 -26 8
-35 16 -14 7 17 8 17 8 2 1 -10 4 -18 9 -18 10 0 8 62 -3 80 -7 13 -6 13 7 2
11 -8 15 -23 11 -42 -3 -20 0 -30 8 -30 7 0 10 3 6 6 -3 3 -2 16 3 29 6 17 5
27 -6 36 -10 8 -11 15 -4 24 6 8 5 16 -3 25 -10 12 -9 12 4 2 9 -6 20 -8 25
-4 5 4 1 -2 -9 -14 -16 -20 -17 -22 0 -35 15 -12 16 -12 10 3 -3 10 -3 19 1
22 4 3 8 -4 9 -14 1 -11 -2 -22 -8 -25 -5 -4 -9 -14 -9 -23 0 -12 3 -13 8 -5
4 7 8 -30 7 -82 0 -52 -4 -98 -8 -102 -5 -4 -5 1 -1 12 7 20 7 20 -15 0 -12
-11 -22 -15 -21 -10 5 21 -1 29 -9 16 -11 -18 -41 -24 -38 -8 1 6 -3 11 -10
12 -6 0 -15 3 -19 8 -4 4 -17 -1 -28 -10 -16 -14 -18 -14 -8 -2 10 13 8 19 -8
34 -20 18 -29 8 -10 -11 8 -8 6 -15 -5 -24 -9 -7 -15 -9 -14 -4 4 20 -2 26
-15 15 -10 -9 -16 -9 -21 -1 -5 8 -12 7 -24 -4 -15 -14 -18 -14 -18 -2 0 8 5
14 11 13 6 -1 10 9 9 23 -2 24 -10 65 -13 65 -8 0 -5 37 3 42 7 3 9 3 5 -2 -4
-4 0 -14 10 -22 16 -12 16 -13 -2 -6 -15 5 -17 3 -10 -8 10 -17 15 -38 15 -64
0 -20 0 -20 15 0 9 11 20 19 25 17 6 -1 8 7 4 20 -5 18 -4 20 4 8 9 -13 11
-13 11 1 0 9 -3 19 -7 22 -8 9 -34 -13 -28 -23 3 -5 1 -11 -4 -14 -10 -7 -9
20 2 30 4 4 1 15 -7 23 -11 12 -12 21 -5 31 9 13 10 12 6 -2 -3 -9 1 -22 9
-29 13 -10 14 -8 10 16 -3 15 -2 25 1 21 4 -4 8 -12 9 -19 4 -24 32 -68 38
-59 3 5 -1 18 -9 28 -8 10 -14 24 -14 29 0 6 4 2 10 -8 10 -17 29 -15 29 4 0
6 -4 8 -9 5 -10 -7 -9 20 2 30 3 4 3 12 0 18 -11 17 -12 35 -3 41 5 3 7 -3 5
-14 -2 -11 4 -26 13 -33 14 -11 15 -10 9 7 -6 17 -5 18 5 5 12 -14 21 -16 44
-11 4 0 0 11 -8 24 -12 17 -13 26 -4 40 14 22 14 22 14 -10z"/>
<path d="M2447 473 c-4 -3 -2 -12 4 -20 9 -9 8 -17 -1 -28 -6 -8 -9 -18 -6
-23 3 -6 -1 -15 -9 -22 -8 -7 -15 -9 -15 -4 0 5 -5 1 -11 -9 -6 -9 -14 -15
-18 -13 -4 3 -12 -4 -19 -14 -7 -11 -8 -21 -2 -25 5 -3 12 -1 15 5 5 8 12 7
23 -2 15 -12 16 -11 4 4 -23 29 -3 42 24 17 13 -12 24 -19 24 -15 0 5 7 3 15
-4 8 -7 15 -9 15 -5 0 5 8 0 19 -9 17 -16 19 -16 25 0 5 12 9 14 20 5 19 -16
36 7 25 34 -4 11 -8 27 -8 35 -1 12 1 13 8 1 6 -9 8 1 7 27 -1 23 -6 45 -11
49 -4 4 -5 3 -2 -3 4 -7 -4 -19 -18 -28 -18 -12 -25 -13 -25 -4 0 10 -2 10 -8
1 -10 -15 -30 14 -27 38 2 9 -4 16 -11 16 -8 0 -14 -7 -14 -14 0 -8 3 -12 8
-10 4 3 7 -10 8 -29 1 -24 -2 -31 -9 -22 -6 10 -7 8 -3 -4 3 -10 0 -20 -6 -24
-7 -5 -8 -2 -3 6 5 8 4 11 -1 7 -5 -3 -10 3 -10 13 0 10 3 17 7 14 4 -2 9 2
11 9 6 15 -16 59 -25 50z m73 -102 c0 -11 -3 -11 -17 0 -16 13 -17 12 -4 -3 8
-10 9 -18 3 -18 -6 0 -13 6 -15 13 -4 9 -6 9 -6 0 -2 -19 19 -26 36 -11 14 11
16 11 8 -2 -4 -8 -5 -12 0 -8 4 4 14 3 21 -3 14 -11 13 6 -1 51 -4 13 1 22 14
29 20 11 22 4 7 -30 -4 -8 -2 -27 3 -41 11 -28 5 -42 -13 -31 -19 12 -36 12
-36 0 0 -8 -4 -7 -9 2 -5 7 -13 11 -19 7 -6 -3 -13 -2 -17 4 -4 6 -10 8 -15 5
-14 -9 -35 24 -22 37 8 8 13 7 18 -5 5 -15 9 -14 25 7 11 14 17 32 13 43 -3
10 1 7 10 -7 8 -14 15 -31 16 -39z"/>
<path d="M1596 2382 c-3 -6 -16 -8 -28 -4 -14 3 -19 2 -14 -7 4 -6 11 -9 16
-6 4 3 10 -1 13 -7 3 -10 7 -10 17 -1 8 7 26 10 44 6 22 -4 28 -2 21 5 -15 16
-62 25 -69 14z"/>
<path d="M1235 2351 c-17 -4 -41 -7 -53 -6 -12 1 -22 -2 -22 -7 0 -4 -8 -8
-18 -8 -45 0 -246 -80 -264 -105 -5 -7 -8 -7 -8 0 0 6 -3 6 -8 -1 -4 -5 -42
-34 -84 -63 -111 -76 -268 -246 -252 -272 4 -8 3 -9 -4 -5 -31 19 -152 -244
-189 -409 -15 -69 -34 -367 -22 -359 3 2 9 -27 12 -64 4 -37 16 -103 27 -146
11 -43 17 -83 13 -89 -3 -6 -1 -7 5 -3 8 5 12 0 12 -13 0 -10 23 -66 52 -122
28 -57 51 -109 51 -116 0 -7 4 -10 8 -7 10 5 34 -35 34 -56 0 -8 5 -15 11 -15
6 0 23 -14 38 -31 27 -33 34 -50 14 -38 -7 4 -8 3 -4 -4 5 -9 13 -9 27 -2 25
14 24 22 -7 51 -44 41 -94 117 -81 123 7 2 4 5 -6 5 -10 1 -15 5 -12 11 3 6 2
10 -3 10 -18 0 -133 250 -131 284 0 11 6 -1 28 -58 21 -52 21 -21 0 44 -28 90
-49 238 -49 347 0 88 1 93 27 118 30 27 45 32 40 14 -1 -6 6 -13 15 -14 10 -2
16 3 15 13 0 11 -11 18 -30 19 -33 3 -61 -23 -77 -72 -8 -24 -8 -20 -4 25 10
95 42 225 73 302 31 74 136 258 154 269 5 4 7 11 4 16 -4 6 7 20 23 32 35 25
39 17 9 -15 l-20 -21 45 -27 c25 -14 50 -34 55 -44 12 -22 26 -9 16 15 -5 10
-8 21 -7 25 1 4 -14 12 -33 18 -19 6 -35 16 -35 21 0 21 28 75 48 93 12 10 19
23 16 28 -3 4 -2 7 3 6 10 -4 155 103 148 110 -2 3 -11 -1 -20 -8 -9 -7 -18
-11 -20 -8 -3 3 6 11 20 18 14 7 25 17 25 22 0 4 5 8 11 8 8 0 8 -5 -1 -15
-17 -21 -16 -20 84 30 84 42 91 44 113 30 14 -10 22 -11 21 -4 -3 12 80 41 98
35 6 -3 16 0 21 5 14 14 210 29 305 23 88 -6 186 -29 263 -63 26 -12 53 -21
59 -21 20 0 66 -24 66 -35 1 -5 24 -25 53 -43 29 -18 65 -44 82 -58 27 -21 29
-26 17 -45 -12 -19 -9 -25 30 -67 92 -99 192 -263 228 -374 11 -36 23 -47 34
-30 2 4 -6 30 -19 57 -13 27 -21 53 -18 58 4 6 0 7 -8 3 -8 -4 -5 0 6 10 15
13 16 15 3 11 -18 -6 -46 19 -34 30 4 4 11 1 15 -6 5 -8 11 -9 15 -3 3 5 -8
15 -25 22 -19 8 -28 18 -25 27 3 8 2 12 -3 9 -11 -7 -23 22 -14 36 3 6 2 9 -3
6 -5 -3 -17 5 -27 18 -17 23 -11 34 8 15 6 -6 24 -12 40 -14 17 -2 30 -9 30
-15 0 -5 3 -14 8 -18 4 -4 7 -12 7 -17 0 -6 -12 0 -27 14 -27 25 -24 14 11
-33 11 -16 26 -28 34 -28 8 0 12 -6 8 -15 -3 -8 -1 -15 5 -15 6 0 8 -7 5 -16
-3 -8 -2 -12 4 -9 9 6 14 -8 11 -27 0 -4 6 -25 14 -45 14 -36 51 -167 61 -215
12 -61 23 -329 13 -322 -3 2 -18 -18 -32 -44 -28 -49 -38 -39 -12 12 18 35 18
36 1 36 -10 0 -17 -16 -21 -47 -13 -89 -38 -188 -66 -263 -40 -102 -101 -205
-122 -204 -9 1 -15 -3 -14 -10 1 -6 -4 -10 -11 -8 -8 1 -11 -2 -7 -7 6 -11 31
-5 52 12 7 5 13 6 13 1 0 -4 7 1 15 12 14 18 14 18 13 -8 -1 -15 -5 -25 -9
-22 -7 4 -24 -44 -21 -59 1 -4 -1 -6 -5 -5 -11 4 -73 -53 -73 -66 0 -6 5 -4
11 4 9 13 10 13 6 0 -2 -8 -11 -14 -19 -12 -8 1 -23 -7 -32 -17 -10 -11 -25
-17 -34 -14 -15 4 -15 3 -2 -6 13 -9 13 -11 -2 -11 -21 0 -23 20 -5 39 7 8 7
11 1 8 -7 -4 -17 0 -23 7 -10 11 -8 16 10 21 16 5 25 2 32 -10 9 -17 11 -16
23 6 16 29 18 53 4 44 -6 -4 -8 -9 -6 -13 2 -4 -16 -8 -40 -10 -26 -2 -44 2
-44 8 0 5 3 10 8 10 4 0 13 14 20 30 8 17 18 27 24 24 6 -4 8 -2 4 4 -3 6 -2
13 4 17 6 4 8 10 5 15 -9 15 24 32 52 26 16 -4 4 6 -29 23 -58 31 -90 34 -167
16 -24 -6 -32 -5 -27 3 3 6 1 14 -5 18 -7 4 -9 3 -6 -3 8 -13 -20 -26 -35 -16
-7 3 -8 1 -4 -5 4 -8 0 -12 -11 -12 -17 -1 -17 -2 1 -15 14 -11 23 -12 33 -4
7 6 13 9 13 6 0 -3 20 1 45 9 43 12 105 10 105 -5 0 -9 -77 -73 -125 -103 -23
-14 -54 -43 -70 -64 -16 -20 -23 -34 -17 -30 20 12 8 -33 -13 -48 -17 -12 -17
-16 -6 -30 8 -9 11 -19 8 -23 -4 -3 -9 2 -13 11 -3 9 -10 13 -16 10 -10 -6
-48 23 -48 38 0 5 19 27 43 49 43 42 42 44 -5 20 -23 -12 -29 -11 -42 2 -9 9
-13 23 -10 34 5 15 4 16 -6 3 -10 -13 -11 -13 -7 1 4 13 1 15 -14 12 -12 -4
-21 1 -26 13 -3 11 -11 22 -17 26 -7 4 -6 14 1 30 14 32 14 43 -2 40 -8 -2
-23 16 -35 42 -11 25 -25 48 -30 51 -13 8 12 -55 40 -102 11 -18 15 -33 9 -33
-6 0 -6 -7 1 -20 6 -11 8 -26 4 -33 -4 -6 -4 -9 0 -6 7 6 34 -16 64 -53 7 -9
15 -29 18 -45 3 -15 17 -52 31 -81 21 -42 23 -55 13 -67 -7 -8 -16 -13 -20
-10 -5 3 -11 1 -15 -5 -10 -16 -26 0 -20 20 8 25 -22 55 -41 39 -20 -16 -17
-49 4 -55 9 -3 25 -10 35 -15 36 -19 116 42 117 89 0 13 4 21 8 18 4 -2 7 18
7 45 -1 46 1 50 19 45 16 -4 37 12 89 67 38 40 78 83 88 96 16 20 19 21 19 5
0 -24 -78 -153 -102 -167 -10 -7 -18 -15 -18 -20 0 -4 5 -5 10 -2 6 3 10 2 10
-4 0 -5 -4 -13 -10 -16 -11 -7 -14 -48 -3 -59 11 -10 12 -36 2 -36 -5 0 -12 0
-16 -1 -5 0 -10 9 -13 21 -5 19 -6 19 -27 5 -31 -22 -29 -45 3 -45 17 0 23 -4
18 -12 -4 -7 7 -2 24 11 18 12 32 27 32 32 0 5 9 9 20 9 31 0 24 -14 -23 -48
-44 -31 -73 -34 -105 -9 -9 7 -18 4 -32 -8 -11 -10 -20 -15 -20 -12 0 3 -28
-7 -62 -22 -173 -77 -429 -104 -590 -62 -136 35 -302 117 -320 157 -6 13 -14
21 -19 19 -4 -3 -11 0 -15 7 -4 7 -4 10 1 6 4 -4 27 7 51 24 39 28 42 32 26
44 -14 10 -22 9 -44 -4 -15 -8 -25 -19 -23 -22 3 -4 -4 -15 -15 -25 -18 -16
-23 -17 -45 -5 -14 8 -44 31 -66 52 -22 21 -44 36 -50 33 -14 -9 -11 -19 14
-45 12 -14 21 -28 19 -33 -1 -5 2 -6 7 -3 5 4 35 -16 67 -44 31 -27 61 -50 66
-50 5 0 6 -5 2 -12 -5 -7 -3 -8 6 -3 7 4 15 4 19 -1 11 -16 191 -111 226 -121
6 -1 28 -7 50 -14 129 -36 346 -51 400 -28 13 6 -3 7 -42 4 -38 -4 -63 -2 -63
4 0 5 -10 12 -22 14 -13 3 42 5 122 5 80 -1 164 4 186 11 82 22 186 71 272
127 103 67 277 237 268 261 -7 17 11 46 24 38 9 -6 47 50 85 125 39 77 83 211
101 305 8 44 17 91 20 103 3 17 1 21 -7 16 -8 -5 -9 -3 -3 7 15 24 16 100 4
214 -12 115 -16 147 -24 180 -2 11 -5 26 -5 33 -1 7 -4 11 -8 9 -5 -3 -9 10
-10 29 -4 46 -79 214 -135 300 -43 67 -153 194 -207 239 -112 93 -267 181
-386 219 -118 37 -374 65 -440 47z m210 -21 c-16 -5 -39 -7 -51 -4 -13 3 -28
3 -34 -1 -6 -4 -34 -8 -63 -10 -62 -5 -96 -11 -162 -30 -28 -8 -59 -14 -70
-13 -20 1 -157 -55 -185 -76 -13 -9 -13 -9 -3 5 7 8 34 25 60 38 26 12 55 26
63 30 20 11 205 58 245 63 17 2 75 4 130 5 73 1 92 -1 70 -7z m218 -36 c15 -4
27 -10 27 -15 0 -4 -21 -2 -46 6 -48 14 -78 33 -34 21 14 -3 37 -9 53 -12z
m726 -1380 c-6 -27 -16 -53 -21 -59 -7 -7 -8 -3 -5 10 3 11 11 40 17 64 6 23
13 41 16 38 3 -2 0 -26 -7 -53z m-363 -526 c4 -6 3 -8 -4 -4 -7 4 -10 -3 -8
-21 2 -16 6 -27 10 -25 3 1 12 2 19 2 7 0 25 11 40 25 15 14 27 22 27 18 0
-13 -53 -63 -67 -63 -8 0 -12 -4 -9 -9 3 -4 -13 -7 -37 -6 -54 4 -53 3 -39 17
8 8 15 8 29 -3 16 -13 17 -12 5 3 -9 11 -10 18 -2 23 5 3 10 11 10 17 0 6 -8
4 -18 -5 -25 -23 -35 -21 -22 4 9 16 27 29 57 38 1 1 5 -4 9 -11z m-175 -193
c5 4 6 0 3 -8 -3 -8 -39 -22 -81 -33 -42 -10 -82 -25 -90 -32 -8 -8 -33 -12
-70 -10 l-58 3 105 29 c58 16 121 37 140 46 19 8 37 12 38 8 2 -5 8 -6 13 -3z
m-840 -40 c88 -38 218 -66 283 -62 31 2 56 0 56 -4 0 -15 -72 -19 -132 -9 -89
17 -278 81 -278 95 0 8 8 6 71 -20z"/>
<path d="M59 2348 c-6 -21 -5 -39 2 -44 5 -3 6 -11 2 -17 -3 -7 3 -4 14 6 12
10 20 25 19 32 -3 22 -14 28 -12 8 0 -10 -3 -19 -9 -20 -5 -1 -9 6 -9 17 1 16
-4 28 -7 18z"/>
<path d="M2551 2324 c1 -5 0 -11 -1 -14 -8 -22 -6 -41 6 -51 8 -6 14 -10 15
-8 9 40 7 58 -6 69 -9 8 -15 9 -14 4z"/>
<path d="M1445 2282 c6 -6 37 -14 69 -19 38 -5 61 -13 64 -23 5 -13 3 -13 -12
-1 -13 11 -20 11 -28 3 -7 -7 -8 -12 -4 -12 5 0 1 -11 -8 -25 -24 -37 -7 -64
39 -62 28 2 35 6 35 22 0 11 -5 27 -10 35 -6 10 -3 20 11 33 11 11 19 21 17
23 -3 2 -36 8 -75 14 -38 5 -79 13 -89 16 -13 5 -16 4 -9 -4z m119 -112 c-12
-12 -47 -2 -38 11 3 5 10 6 16 3 8 -5 9 -1 4 12 -7 18 -6 18 11 2 12 -12 14
-21 7 -28z"/>
<path d="M749 2228 c-76 -51 -231 -197 -223 -210 3 -5 11 -3 17 5 14 17 123
87 136 87 5 0 11 7 14 15 4 9 -12 3 -42 -15 -61 -38 -72 -38 -36 0 16 17 32
30 36 30 5 0 21 12 36 26 38 37 104 84 116 84 5 0 6 -7 3 -16 -3 -8 -2 -12 3
-9 8 4 12 45 5 45 -1 0 -30 -19 -65 -42z"/>
<path d="M2361 2251 c-11 -7 -11 -9 0 -14 10 -4 8 -6 -4 -6 -11 -1 -17 -7 -14
-13 2 -7 -5 -24 -17 -38 -11 -13 -14 -19 -5 -12 9 6 19 10 22 7 4 -3 5 -2 2 2
-3 3 0 12 6 20 6 7 8 13 3 13 -5 1 2 7 16 15 14 8 19 14 12 15 -7 0 -10 5 -7
10 8 12 4 12 -14 1z"/>
<path d="M1197 2227 c4 -6 0 -8 -10 -4 -14 5 -14 2 -2 -26 16 -38 40 -46 54
-18 11 19 6 50 -8 52 -3 0 -14 2 -24 4 -10 2 -14 -1 -10 -8z"/>
<path d="M1356 2221 c-16 -17 -16 -20 -1 -35 37 -36 84 4 48 42 -16 17 -27 15
-47 -7z"/>
<path d="M1006 2191 l-28 -19 23 -13 c22 -11 23 -11 11 4 -11 13 -10 16 12 19
17 2 23 7 18 15 -6 9 -15 8 -36 -6z"/>
<path d="M1712 2191 c-8 -4 -13 -11 -13 -15 3 -18 0 -20 -10 -6 -8 11 -9 9 -3
-10 6 -22 5 -23 -10 -11 -9 8 -16 9 -16 3 0 -20 23 -25 35 -9 11 15 14 14 35
-8 25 -27 21 -32 -11 -15 -29 16 -23 4 12 -21 23 -16 33 -19 42 -10 8 8 6 11
-8 11 -10 0 -16 3 -12 6 3 3 15 3 27 -1 16 -5 18 -10 10 -20 -8 -9 -8 -15 0
-20 5 -3 10 -11 10 -16 0 -6 -4 -8 -9 -5 -11 7 -27 -12 -35 -44 -3 -14 -3 -19
0 -12 10 21 22 13 18 -10 -2 -13 -1 -16 2 -8 4 8 12 18 18 22 8 6 8 8 0 8 -7
0 -15 8 -19 18 -5 14 -4 15 6 5 7 -7 16 -13 20 -13 10 0 8 49 -2 56 -14 8 0
24 21 24 10 0 21 4 25 9 3 6 -5 8 -19 5 -14 -2 -28 0 -31 6 -3 5 -14 10 -24
10 -27 0 -54 35 -46 59 7 23 6 24 -13 12z"/>
<path d="M1770 2185 c-7 -8 -16 -12 -21 -9 -5 3 -6 -2 -3 -11 6 -14 34 -35 48
-35 3 0 6 5 6 11 0 5 -4 8 -9 5 -5 -3 -14 1 -21 9 -17 20 8 21 36 1 17 -12 21
-12 21 -1 0 7 -11 16 -24 20 -13 3 -21 10 -18 15 9 15 -1 12 -15 -5z"/>
<path d="M2062 2155 c4 -4 3 -14 -3 -21 -9 -10 -3 -20 22 -41 18 -16 38 -28
43 -28 6 0 18 -5 26 -9 9 -6 7 0 -4 13 -11 12 -26 19 -33 17 -13 -6 -28 10
-16 17 5 2 3 2 -4 1 -18 -4 -35 20 -22 33 8 8 7 13 -3 18 -7 5 -10 5 -6 0z"/>
<path d="M30 2138 c19 -23 10 -31 -12 -12 -13 10 -10 4 6 -14 17 -17 32 -32
35 -32 3 0 0 5 -6 11 -12 12 -6 42 6 34 4 -2 8 2 8 10 0 10 -4 12 -12 5 -7 -6
-16 -6 -23 0 -9 7 -9 7 -2 -2z"/>
<path d="M910 2142 c0 -5 -10 -12 -22 -15 -12 -4 -19 -9 -16 -12 3 -3 20 -2
38 2 29 8 31 10 16 22 -9 7 -16 9 -16 3z"/>
<path d="M1060 2136 c0 -9 7 -12 21 -9 17 5 20 2 17 -13 -2 -13 -10 -18 -24
-16 -25 3 -80 -27 -144 -77 -24 -20 -49 -35 -55 -33 -5 2 -7 0 -2 -4 4 -4 -14
-29 -40 -56 -26 -26 -43 -48 -38 -48 6 0 39 29 74 65 35 36 90 83 124 105 71
48 75 46 101 -45 48 -166 158 -431 175 -421 17 11 35 110 34 186 -1 44 -10
102 -22 141 -20 63 -22 65 -53 67 -58 2 -96 7 -104 15 -4 4 2 7 14 7 30 0 28
18 -3 22 -18 2 -22 7 -16 17 11 17 78 23 88 8 4 -6 0 -8 -10 -4 -10 3 -17 2
-17 -3 0 -9 14 -14 33 -11 4 0 7 -6 7 -15 0 -8 4 -12 10 -9 6 3 0 20 -13 40
-16 26 -27 33 -42 29 -14 -4 -16 -3 -7 4 10 7 2 17 -34 41 -51 34 -74 39 -74
17z m173 -214 c33 -36 50 -220 22 -229 -10 -3 -78 158 -90 215 -6 30 -5 32 23
32 16 0 36 -8 45 -18z"/>
<path d="M1530 2105 c0 -29 -79 -320 -126 -466 -24 -73 -27 -77 -58 -83 -19
-4 -40 -14 -47 -24 -13 -16 -12 -16 5 -2 13 10 42 15 92 15 l73 0 6 55 c17
177 48 266 121 345 36 40 36 40 25 88 -6 27 -11 58 -11 70 0 19 -6 22 -40 22
-33 0 -40 -3 -40 -20z m54 -51 c13 -35 5 -78 -26 -125 -51 -80 -56 -67 -22 61
20 76 22 80 33 80 5 0 12 -7 15 -16z"/>
<path d="M5 2071 c0 -22 3 -37 6 -35 4 2 9 -3 13 -11 3 -8 1 -17 -4 -20 -6 -4
-10 -1 -10 6 0 7 -3 10 -6 6 -3 -3 1 -16 11 -29 15 -21 16 -21 13 -3 -2 11 3
20 10 20 6 0 12 5 13 10 0 6 6 16 12 23 11 14 22 61 11 50 -3 -3 -7 -13 -8
-22 -2 -17 -21 -23 -21 -7 0 5 -3 12 -7 16 -8 9 -5 -16 5 -32 4 -6 3 -14 -2
-17 -10 -6 -25 26 -26 56 -1 35 -11 25 -10 -11z"/>
<path d="M2573 2064 c0 -7 4 -11 9 -8 4 3 8 0 8 -5 0 -6 -6 -11 -12 -11 -9 0
-9 -3 -3 -8 14 -9 14 -142 0 -135 -5 3 -4 0 3 -8 16 -18 15 -34 -2 -20 -10 9
-17 7 -27 -6 -12 -14 -12 -16 0 -8 11 6 13 4 8 -8 -3 -9 -3 -16 1 -16 4 1 14
1 22 0 13 -1 13 -3 1 -10 -8 -5 -23 -8 -33 -6 -10 2 -16 0 -12 -6 3 -6 -5 -8
-20 -5 -19 3 -23 1 -19 -11 5 -12 3 -14 -8 -8 -8 4 -11 5 -7 0 4 -4 2 -15 -5
-24 -10 -14 -10 -14 5 -3 9 8 19 9 22 4 3 -6 -1 -12 -9 -16 -9 -3 -15 -17 -14
-33 1 -21 3 -23 6 -8 8 31 23 42 18 12 -3 -15 0 -29 7 -33 7 -4 10 -4 6 1 -4
4 -2 17 3 28 9 16 13 17 20 6 6 -10 8 -8 9 9 0 12 0 31 1 42 0 26 40 55 51 37
4 -6 5 6 2 28 -6 50 -6 55 -1 80 2 11 0 26 -5 32 -6 7 -7 21 -3 30 14 34 10
96 -6 98 -9 2 -16 -3 -16 -11z m-23 -269 c-6 -8 -9 -18 -6 -24 3 -5 -3 -20
-13 -32 -18 -22 -19 -22 -17 -4 2 11 0 25 -5 30 -4 6 -4 17 1 25 8 13 10 12
10 -2 0 -9 5 -20 12 -24 7 -4 8 -3 4 5 -7 11 9 41 21 41 3 0 0 -7 -7 -15z"/>
<path d="M1967 2053 c5 -11 3 -14 -6 -8 -10 6 -11 3 -2 -14 7 -11 19 -21 29
-20 10 0 12 3 5 6 -19 7 -16 23 5 23 15 1 15 2 -2 15 -26 20 -37 19 -29 -2z"/>
<path d="M766 2047 c-17 -13 -17 -14 0 -28 16 -12 17 -12 11 4 -4 11 -2 17 8
17 7 0 17 5 20 10 9 14 -18 12 -39 -3z"/>
<path d="M796 2008 c3 -4 0 -8 -7 -8 -7 0 -20 -7 -30 -16 -11 -10 -19 -12 -24
-5 -3 6 -1 11 6 11 7 0 10 2 7 5 -3 3 -12 3 -21 -1 -14 -5 -14 -7 0 -24 15
-17 17 -16 59 12 24 16 44 30 44 32 0 1 -9 2 -19 2 -11 0 -17 -4 -15 -8z"/>
<path d="M823 1977 c1 -7 -4 -11 -11 -9 -8 1 -11 -2 -6 -9 5 -9 2 -10 -9 -6
-10 4 -14 2 -11 -6 2 -7 -5 -18 -17 -26 -19 -11 -21 -11 -16 3 5 13 3 14 -13
4 -19 -12 -19 -13 2 -21 16 -6 29 -1 52 20 17 15 32 31 34 36 2 4 8 5 13 1 5
-3 9 -1 9 4 0 6 -7 12 -15 16 -8 3 -14 0 -12 -7z"/>
<path d="M101 1973 c1 -4 0 -11 -1 -15 -1 -5 -3 -12 -4 -18 -1 -13 -21 -13
-21 -1 0 5 -3 12 -7 16 -11 12 -3 -22 10 -37 6 -8 8 -19 4 -24 -4 -4 0 -3 10
4 9 7 15 21 13 30 -1 9 2 22 7 29 6 7 5 14 -2 18 -6 4 -10 3 -9 -2z"/>
<path d="M1791 1952 c-1 -23 -5 -31 -13 -26 -10 5 -10 4 -1 -6 10 -10 8 -19
-8 -41 l-20 -28 31 10 c16 6 30 13 30 16 0 3 -7 3 -15 -1 -18 -7 -20 5 -3 22
7 7 8 12 3 12 -6 0 -5 4 0 8 6 4 8 20 4 37 l-7 30 -1 -33z"/>
<path d="M1957 1968 c-10 -5 -15 -13 -12 -18 3 -5 -6 -12 -20 -16 -13 -3 -23
-9 -20 -14 2 -4 -7 -18 -21 -31 -85 -79 -215 -279 -244 -376 -12 -39 -11 -44
13 -72 14 -17 27 -36 29 -42 5 -14 106 3 167 28 48 20 135 87 167 128 l26 35
-23 19 c-15 12 -26 15 -30 9 -4 -6 -12 -7 -19 -3 -9 5 -11 4 -6 -4 4 -6 13
-10 20 -9 18 5 19 -16 1 -27 -28 -17 -45 19 -40 84 3 46 -2 68 -24 120 -16 35
-35 67 -42 72 -10 6 -6 10 13 18 15 5 37 24 49 40 25 34 36 39 36 16 0 -8 -5
-12 -11 -9 -6 3 -4 0 5 -8 20 -17 42 -58 35 -65 -3 -3 -13 0 -21 7 -14 11 -17
10 -21 -8 -7 -25 -34 -38 -34 -16 0 8 -5 12 -10 9 -14 -9 19 -63 42 -71 10 -3
16 -10 13 -15 -3 -5 -1 -18 5 -29 8 -16 15 -18 29 -11 15 8 20 5 30 -15 15
-33 14 -39 -3 -25 -19 16 -84 -15 -68 -31 8 -8 15 -8 24 -1 16 13 48 13 48 0
0 -5 -7 -7 -14 -4 -10 4 -13 1 -10 -8 7 -17 32 -27 39 -16 2 5 6 29 6 54 2 34
-4 52 -22 75 -13 17 -29 29 -36 27 -7 -2 -10 2 -6 12 5 13 3 13 -14 4 -17 -8
-22 -7 -27 6 -11 27 44 47 59 22 5 -7 15 -5 31 6 22 14 24 14 24 0 0 -10 -5
-13 -12 -9 -8 5 -9 2 -5 -10 4 -10 7 -20 7 -22 0 -3 5 -2 10 1 13 8 13 -18 1
-30 -6 -6 -4 -20 4 -35 13 -23 14 -23 16 -5 3 45 2 72 -4 106 -6 29 -12 35
-29 34 -12 -1 -24 -7 -26 -13 -2 -7 -8 -12 -13 -12 -6 0 -5 9 1 21 8 14 8 24
1 33 -6 7 -8 16 -4 19 3 4 -2 16 -12 27 -10 11 -16 23 -12 26 3 3 13 -7 23
-23 22 -35 54 -67 54 -54 0 11 -60 86 -81 99 -10 6 -21 6 -32 0z m-61 -189 c9
-19 17 -64 19 -110 3 -52 10 -87 21 -104 10 -15 13 -30 8 -33 -100 -74 -199
-112 -239 -94 -43 20 -42 55 4 145 46 92 140 226 158 227 7 0 20 -14 29 -31z"/>
<path d="M2215 1969 c-5 -7 4 -22 22 -38 16 -14 28 -33 26 -41 -4 -12 -3 -13
5 -1 7 9 2 24 -15 49 -31 46 -30 45 -38 31z"/>
<path d="M10 1945 c5 -7 6 -15 2 -19 -9 -10 -11 -66 -1 -61 12 8 20 -45 9 -63
-10 -15 -11 -14 -7 4 3 12 1 27 -3 34 -4 6 -7 -23 -6 -67 1 -43 5 -84 10 -92
6 -9 5 -12 0 -8 -6 3 -9 -19 -9 -56 2 -85 1 -81 44 -105 41 -23 54 -19 57 18
0 8 4 23 8 33 5 9 6 26 3 37 -3 11 -1 22 3 25 5 3 7 15 5 27 -3 11 -1 17 3 14
4 -4 7 -11 8 -14 1 -13 24 -62 28 -62 6 0 2 23 -7 38 -5 6 -6 16 -3 21 3 4 -3
16 -14 26 -14 13 -17 23 -10 39 5 13 4 29 -1 37 -8 13 -14 5 -9 -16 1 -5 -8
-1 -19 9 -21 19 -30 9 -10 -11 8 -8 7 -13 -2 -18 -7 -5 -10 -4 -6 2 3 5 -5 22
-17 38 l-23 29 -12 -22 c-10 -18 -9 -22 4 -22 10 0 13 5 9 12 -4 7 -3 8 5 4 9
-6 9 -11 1 -21 -7 -8 -9 -19 -5 -24 4 -7 -1 -8 -11 -4 -13 5 -15 3 -9 -7 5 -9
4 -11 -4 -6 -8 6 -9 12 -2 20 6 7 8 16 4 20 -10 10 -11 46 -1 40 5 -3 8 -2 7
3 -1 4 -1 15 0 23 1 13 2 13 11 0 7 -11 10 -11 10 -2 0 7 5 10 11 6 8 -5 8 -9
-1 -14 -9 -5 -9 -9 -1 -14 6 -4 11 -1 11 6 0 9 3 9 10 -2 9 -13 10 -13 10 0 0
13 1 13 10 0 9 -13 10 -13 10 0 1 12 2 12 10 -2 6 -10 19 -15 30 -13 13 3 18
0 14 -7 -4 -7 -3 -8 4 -4 8 5 10 2 6 -9 -6 -14 -8 -14 -20 2 -7 10 -13 14 -13
8 0 -15 22 -40 39 -43 8 -2 12 0 8 4 -9 8 9 34 23 34 5 0 9 -8 9 -17 0 -16 1
-16 16 -1 12 12 13 20 5 35 -7 14 -7 24 2 33 10 12 9 12 -4 2 -21 -15 -32 -3
-16 17 11 14 10 14 -6 2 -9 -7 -17 -10 -17 -6 0 4 -6 2 -14 -5 -8 -6 -12 -19
-9 -27 4 -11 2 -14 -5 -9 -17 10 -15 26 6 50 13 16 14 18 1 8 -26 -20 -45 15
-26 46 5 6 6 12 2 12 -3 0 -1 9 5 19 9 17 7 19 -11 16 -15 -3 -19 0 -15 11 3
9 2 12 -5 9 -5 -4 -8 -12 -6 -18 2 -7 -2 -19 -10 -29 -11 -12 -11 -18 -2 -24
7 -4 10 -3 6 3 -4 6 2 18 13 28 11 10 20 13 20 7 0 -6 -4 -13 -8 -16 -12 -7
-9 -51 5 -67 7 -9 8 -22 2 -36 -11 -31 -18 -29 -16 4 1 16 -3 28 -10 29 -7 1
-15 3 -18 4 -3 1 -9 4 -15 5 -5 1 -13 4 -17 5 -5 1 -11 2 -14 2 -14 -2 -20 51
-8 62 9 8 11 7 6 -5 -3 -9 -2 -22 3 -28 5 -9 7 -4 8 13 0 14 -7 31 -15 38 -8
6 -13 7 -12 2 2 -9 -19 -63 -21 -54 -8 27 -9 50 -2 46 4 -2 8 6 8 18 0 12 -6
23 -13 23 -9 0 -10 -4 -3 -12z m80 -120 c0 4 6 2 13 -4 8 -6 16 -9 19 -6 2 3
5 -1 5 -9 0 -19 -20 -16 -29 4 -5 12 -7 11 -7 -4 -1 -15 -4 -16 -16 -6 -8 7
-15 19 -15 27 0 13 3 13 15 3 8 -7 15 -9 15 -5z m150 -76 c0 -16 -9 -10 -25
19 -9 15 -14 19 -11 10 3 -9 -1 -21 -8 -27 -10 -8 -12 -3 -10 22 1 17 3 34 3
37 2 8 51 -50 51 -61z m-130 -44 c-7 -8 -9 -15 -4 -15 4 0 3 -5 -4 -12 -13
-13 -17 -32 -4 -25 6 5 8 -85 2 -98 -4 -8 -7 -23 -9 -42 -2 -16 -3 -15 -11 2
-6 13 -9 15 -9 5 -1 -13 -2 -13 -11 0 -5 8 -10 11 -10 6 0 -5 -6 -3 -14 4 -8
6 -12 19 -9 27 4 10 2 14 -4 10 -7 -5 -9 6 -6 31 6 45 13 55 13 18 0 -15 4
-25 10 -21 5 3 7 13 4 23 -5 14 -4 14 4 2 6 -8 9 -17 6 -21 -2 -4 0 -10 6 -14
5 -3 10 0 10 7 0 9 3 9 10 -2 11 -17 11 -16 14 22 1 15 -7 38 -17 50 -17 20
-18 21 -12 3 10 -30 15 -58 9 -52 -3 3 -5 8 -5 11 1 4 -6 20 -14 36 -12 23
-12 30 -3 28 7 -2 12 4 10 12 -2 8 0 11 5 7 4 -5 8 -13 8 -18 0 -11 20 -12 20
-1 0 10 15 32 22 32 3 0 0 -7 -7 -15z"/>
<path d="M30 1575 c6 -7 9 -19 8 -26 -2 -7 8 -13 24 -14 15 -1 25 2 22 6 -2 4
0 10 6 14 5 3 10 12 10 18 0 7 -4 6 -10 -3 -7 -11 -10 -11 -10 -2 0 7 -5 10
-11 7 -6 -4 -8 -14 -5 -22 3 -8 1 -11 -4 -8 -6 4 -9 14 -8 22 2 9 -5 17 -15
19 -14 2 -16 -1 -7 -11z"/>
<path d="M1590 1913 c-18 -20 -47 -67 -64 -103 -29 -60 -31 -74 -32 -176 -1
-61 -5 -117 -10 -125 -4 -8 -8 -23 -9 -34 0 -16 -8 -20 -43 -22 -30 -2 -41 1
-36 9 4 6 3 8 -3 5 -5 -4 -20 5 -31 18 l-21 25 32 10 32 10 -39 -5 c-21 -2
-41 -7 -45 -11 -7 -8 97 -102 123 -110 11 -4 25 1 35 11 15 16 14 17 -9 10
-24 -7 -24 -7 -5 8 11 8 23 13 27 11 5 -3 8 3 8 14 0 10 21 66 46 123 46 105
84 226 84 265 0 12 7 24 15 28 9 3 15 17 14 33 -1 17 -3 21 -6 11 -7 -27 -21
-21 -18 7 4 34 -7 31 -45 -12z m-9 -138 c-12 -42 -31 -95 -44 -118 l-22 -42
-3 52 c-4 69 11 120 50 174 41 56 47 37 19 -66z"/>
<path d="M1694 1899 c-5 -8 -2 -10 8 -6 9 3 19 3 22 -1 12 -11 37 -11 33 1 -5
17 -53 21 -63 6z"/>
<path d="M1011 1870 c-73 -34 -167 -42 -177 -15 -4 8 -11 15 -16 15 -6 0 -5
-6 2 -15 16 -19 3 -19 -30 0 -14 8 -37 14 -52 15 -27 0 -28 -1 -22 -47 20
-158 99 -269 239 -334 34 -17 70 -38 80 -49 10 -11 22 -17 26 -14 5 3 9 0 9
-6 0 -6 10 -8 25 -4 l26 6 -22 -36 c-24 -41 -23 -40 -51 -25 -20 11 -20 12 -4
24 10 8 13 16 7 19 -5 4 -19 -7 -30 -23 -22 -30 -28 -57 -11 -46 5 3 21 3 35
-1 19 -5 23 -10 16 -17 -15 -15 -14 -27 4 -27 8 0 15 -5 15 -11 0 -6 -9 -9
-19 -6 -14 3 -21 -2 -25 -18 -5 -18 -11 -22 -28 -18 -19 4 -20 3 -8 -6 12 -8
12 -11 1 -11 -7 0 -29 14 -49 31 -55 49 -166 89 -247 89 -45 0 -185 -30 -185
-40 0 -10 194 -66 270 -79 105 -18 150 -20 233 -14 l77 6 0 33 c0 43 33 131
64 168 l23 30 12 -23 c7 -12 10 -29 7 -37 -4 -10 -2 -12 6 -8 8 5 9 2 5 -10
-4 -9 -3 -14 2 -11 15 8 24 -34 11 -50 -6 -8 -7 -16 -2 -19 6 -3 15 1 22 9 14
17 46 20 55 5 3 -5 -2 -10 -12 -10 -15 0 -15 -2 -3 -10 19 -12 41 6 33 27 -5
13 -2 15 13 8 10 -4 31 -10 45 -12 25 -5 26 -7 16 -33 -6 -16 -14 -27 -17 -25
-4 2 -4 -9 -2 -25 2 -17 8 -28 12 -25 4 2 5 -7 2 -20 -6 -35 46 -85 88 -85 46
0 88 26 108 68 27 56 18 95 -33 146 -31 30 -41 46 -34 53 8 8 7 13 -2 18 -7 5
-10 4 -6 -2 4 -6 1 -16 -7 -22 -11 -10 -16 -6 -25 16 -11 27 -11 27 -6 2 4
-23 -1 -29 -34 -44 -32 -14 -46 -15 -73 -6 -30 9 -74 18 -104 20 -7 1 -15 8
-18 17 -3 8 -2 12 4 9 6 -3 10 -3 10 1 0 6 -56 101 -65 112 -2 2 -17 -4 -34
-12 -33 -18 -116 -22 -126 -6 -4 6 12 10 40 10 46 0 130 28 108 37 -15 6 -57
72 -50 79 14 15 -141 165 -214 207 l-64 37 46 -6 c36 -5 55 -1 89 16 23 12 48
19 55 16 7 -2 23 6 36 20 30 32 10 31 -70 -6z m-122 -103 c41 -23 101 -69 133
-101 56 -56 108 -140 95 -153 -4 -3 -28 -8 -55 -11 -59 -5 -123 24 -198 92
-55 49 -114 153 -114 201 0 26 2 27 32 21 18 -4 66 -25 107 -49z m637 -457
c10 -11 27 -29 38 -40 30 -31 26 -85 -12 -124 -37 -40 -77 -50 -109 -29 -34
22 -49 53 -32 64 11 8 10 12 -4 24 -17 12 -18 18 -7 50 12 36 59 75 91 75 8 0
24 -9 35 -20z m-719 -23 c55 -16 78 -37 41 -37 -30 0 -146 28 -168 41 -24 14
79 11 127 -4z"/>
<path d="M1410 1248 c0 -8 79 -3 88 6 3 4 -15 6 -41 4 -26 -2 -47 -6 -47 -10z"/>
<path d="M1462 1198 c3 -7 13 -15 24 -17 10 -1 27 -10 37 -19 9 -8 20 -13 23
-10 9 9 -26 38 -47 38 -10 0 -19 5 -19 10 0 6 -5 10 -11 10 -6 0 -9 -6 -7 -12z"/>
<path d="M2383 1872 c1 -13 10 -30 20 -40 10 -9 18 -12 17 -7 -5 25 1 46 12
39 7 -4 8 -3 4 5 -10 15 -26 5 -26 -17 -1 -10 -6 -5 -14 13 -12 26 -14 27 -13
7z"/>
<path d="M587 1873 c-18 -17 7 -73 32 -73 13 0 8 25 -8 40 -13 13 -14 12 -8
-3 4 -11 3 -16 -3 -12 -18 11 -11 35 11 35 11 0 17 5 14 10 -7 11 -28 13 -38
3z"/>
<path d="M359 1813 c-42 -57 -66 -98 -50 -89 17 11 14 3 -28 -81 -47 -94 -85
-207 -78 -234 3 -10 2 -17 -3 -14 -13 8 -30 -105 -30 -204 0 -113 19 -240 50
-331 28 -82 101 -226 146 -284 37 -49 44 -66 17 -45 -16 13 -17 12 -4 -4 8 -9
16 -15 19 -12 3 3 17 -5 30 -17 23 -21 22 -19 -5 22 -47 70 -95 171 -89 187 3
8 2 12 -2 10 -8 -6 -33 19 -26 25 2 3 -5 31 -16 63 -42 121 -61 252 -61 405 0
131 5 179 26 290 4 19 21 73 37 120 17 47 30 95 30 107 0 13 4 20 9 17 5 -3 6
3 2 12 -5 13 -2 16 8 12 10 -4 15 1 16 14 1 11 8 28 16 37 16 19 30 41 25 41
-2 0 -20 -21 -39 -47z m-159 -745 l-4 -53 -6 45 c-3 25 -2 46 1 48 4 2 5 13 3
25 -3 17 -3 18 3 5 5 -9 6 -41 3 -70z"/>
<path d="M1670 1836 c0 -18 77 -80 84 -67 3 5 -4 16 -17 24 -12 8 -32 25 -44
36 -17 16 -23 18 -23 7z"/>
<path d="M532 1801 c-8 -24 -7 -32 5 -42 12 -11 10 -15 -18 -28 -21 -11 -36
-28 -43 -51 -7 -19 -17 -34 -24 -33 -7 2 -9 -4 -5 -14 6 -14 7 -14 18 0 11 15
13 15 30 -1 19 -16 19 -16 2 4 -24 29 -22 34 13 29 17 -2 28 0 25 6 -4 5 -1 9
5 9 7 0 8 6 0 19 -14 26 -13 31 6 31 10 0 14 -6 10 -15 -3 -8 -1 -16 4 -16 6
-1 14 -2 19 -3 17 -2 25 -16 9 -16 -9 0 -21 -7 -28 -15 -8 -9 -8 -15 -2 -15 6
0 13 6 16 13 3 6 4 1 3 -13 -2 -31 -18 -49 -34 -43 -7 3 -14 0 -14 -6 -1 -6
-2 -16 -3 -23 0 -6 -9 -12 -19 -14 -9 -1 -15 2 -11 7 3 5 9 7 13 5 4 -3 8 4 8
15 1 10 -3 19 -8 19 -6 0 -8 -4 -4 -9 3 -5 1 -12 -5 -16 -5 -3 -10 0 -10 7 0
10 -2 10 -9 -1 -12 -19 -2 -43 15 -37 22 8 17 -25 -8 -51 -12 -13 -16 -23 -9
-23 7 0 9 -5 6 -10 -4 -6 -3 -9 2 -8 4 2 9 -1 11 -6 1 -6 -9 -11 -23 -13 -14
-2 -25 1 -25 7 0 6 4 8 10 5 6 -3 7 1 4 9 -5 14 -8 14 -21 1 -8 -9 -19 -13
-24 -9 -5 3 -8 0 -7 -7 2 -6 -2 -13 -9 -16 -7 -3 -10 3 -6 16 3 11 11 21 19
23 11 2 9 7 -7 16 -11 8 -18 9 -15 4 3 -6 2 -22 -4 -36 -11 -31 5 -45 27 -23
13 13 18 13 44 0 16 -8 26 -19 23 -25 -4 -6 -10 -5 -15 3 -7 11 -9 11 -9 -1 0
-12 -2 -12 -9 -2 -6 11 -10 10 -15 -4 -4 -10 -4 -15 0 -11 4 4 13 2 21 -4 7
-6 13 -8 13 -3 0 5 5 2 11 -6 9 -13 10 -13 6 2 -3 9 0 22 8 28 11 9 13 6 10
-17 -2 -15 -4 -36 -4 -45 -1 -22 -28 -13 -34 10 -4 13 -5 13 -6 -3 -1 -28 33
-49 59 -35 16 9 19 40 3 40 -3 0 -3 -7 1 -15 3 -8 1 -15 -4 -15 -11 0 -7 116
4 127 4 4 6 -11 5 -35 -2 -23 0 -45 4 -48 7 -7 12 44 8 75 -2 7 2 10 7 7 6 -3
9 2 8 11 -2 10 2 22 8 26 7 6 5 7 -6 4 -17 -6 -33 18 -18 28 4 3 10 0 12 -7 3
-8 7 -6 11 5 4 10 2 16 -5 14 -6 -1 -13 4 -15 11 -3 7 1 11 9 10 8 -2 12 4 10
15 -2 9 4 24 13 33 8 8 15 23 15 33 0 10 9 35 19 57 11 21 17 42 14 46 -2 5 2
8 9 8 10 0 10 2 -1 9 -8 5 -10 14 -6 22 5 8 5 11 0 7 -4 -4 -17 -3 -28 3 -15
9 -18 8 -12 -1 12 -19 8 -71 -5 -84 -9 -8 -11 -5 -5 13 4 15 3 21 -3 17 -5 -3
-13 1 -16 10 -9 24 -7 28 9 14 10 -9 15 -9 15 -1 0 6 -4 11 -9 11 -5 0 -7 12
-5 27 3 15 2 25 -1 21 -4 -3 -8 -14 -9 -24 -2 -10 -8 -20 -14 -22 -9 -3 -9 3
-2 24 6 15 9 29 6 31 -2 2 -8 -9 -14 -26z m21 -221 c3 -11 0 -18 -7 -17 -6 1
-11 -6 -11 -15 0 -9 -4 -20 -8 -24 -4 -4 0 -18 8 -31 9 -13 14 -23 13 -24 -25
-7 -39 -5 -49 7 -9 11 -8 18 5 32 9 10 16 23 16 28 0 9 23 64 26 64 1 0 4 -9
7 -20z"/>
<path d="M684 1745 c-3 -19 -10 -33 -14 -30 -5 3 -7 -3 -6 -12 2 -10 9 -18 17
-18 10 0 15 15 17 48 3 55 -4 62 -14 12z"/>
<path d="M2162 1678 c-16 -16 -15 -33 4 -48 22 -19 54 12 38 37 -14 22 -27 26
-42 11z"/>
<path d="M649 1678 c-7 -24 -5 -37 4 -31 7 3 5 -2 -3 -13 -27 -34 -43 -67 -29
-58 7 4 5 -3 -4 -17 -18 -25 -22 -44 -9 -35 5 3 9 -1 9 -9 0 -8 -4 -12 -8 -10
-7 5 -25 -90 -20 -113 1 -8 -3 -20 -10 -28 -16 -20 -7 -26 22 -15 13 5 18 10
12 10 -7 1 -13 10 -13 22 0 11 4 18 9 15 5 -3 8 9 7 27 -2 17 3 48 10 69 7 20
10 39 7 42 -4 3 -2 6 4 6 5 0 10 6 11 13 1 22 10 55 21 75 6 11 7 22 4 26 -3
3 0 6 8 6 11 0 11 2 -1 10 -14 9 -29 13 -31 8z"/>
<path d="M1146 1665 c-16 -12 -17 -18 -8 -37 7 -14 11 -16 9 -6 -1 9 9 26 22
37 27 24 7 29 -23 6z"/>
<path d="M129 1629 c0 -2 -2 -22 -3 -44 -4 -48 -10 -72 -19 -81 -10 -10 -9
-24 2 -24 5 0 13 9 16 20 4 12 11 17 18 14 8 -5 8 -2 0 7 -19 20 -16 33 5 18
15 -12 16 -12 5 1 -6 9 -11 30 -11 48 1 18 -2 35 -5 39 -4 3 -7 4 -8 2z"/>
<path d="M461 1603 c-8 -14 -11 -15 -11 -3 0 12 -3 11 -11 -3 -6 -9 -16 -14
-22 -11 -7 4 -9 3 -4 -1 11 -13 47 -17 47 -6 0 5 7 17 16 25 8 9 11 16 5 16
-5 0 -15 -8 -20 -17z"/>
<path d="M1202 1603 c-6 -3 -9 -9 -6 -15 4 -6 -1 -8 -15 -3 -13 4 -21 2 -21
-5 0 -6 5 -8 10 -5 6 3 10 0 10 -7 0 -7 9 -4 22 10 22 22 23 33 0 25z"/>
<path d="M682 1583 c-13 -26 -34 -115 -28 -120 3 -3 10 15 16 38 6 24 15 56
20 72 10 30 5 36 -8 10z"/>
<path d="M420 1545 c-19 -23 -8 -50 20 -50 19 0 26 6 28 24 5 35 -26 53 -48
26z m40 -20 c0 -18 -13 -25 -28 -16 -17 10 -4 41 14 34 8 -3 14 -11 14 -18z"/>
<path d="M1558 1542 c-8 -9 -8 -13 -1 -9 6 4 23 3 38 -3 20 -7 26 -7 23 1 -7
22 -45 29 -60 11z"/>
<path d="M2253 1546 c-17 -5 -37 -20 -44 -33 -7 -13 -16 -23 -21 -23 -5 0 -6
-4 -3 -10 3 -5 -7 -13 -22 -16 -15 -4 -45 -18 -66 -31 -98 -62 -202 -103 -307
-122 -53 -9 -71 4 -73 55 0 6 -6 11 -14 11 -8 0 -9 -4 -4 -11 5 -6 12 -26 16
-45 6 -27 4 -32 -6 -25 -10 5 -8 0 3 -18 13 -20 14 -28 5 -39 -8 -9 -6 -8 7 1
18 14 19 13 13 -2 -3 -10 -2 -20 2 -23 5 -2 11 6 13 20 3 13 1 22 -3 19 -5 -3
-9 2 -9 11 0 9 -5 13 -11 9 -7 -4 -10 -1 -7 6 2 8 24 14 54 16 71 4 200 32
264 58 67 27 161 95 214 153 21 24 37 45 35 46 -2 1 -18 -2 -36 -7z"/>
<path d="M2275 1489 c-16 -16 -27 -29 -23 -29 4 0 14 7 22 16 10 9 16 11 16 4
0 -7 7 -4 16 5 30 30 0 34 -31 4z"/>
<path d="M2575 1508 c-3 -7 1 -31 9 -53 8 -22 12 -44 8 -49 -3 -6 -11 8 -18
30 -12 35 -13 36 -8 6 11 -62 11 -82 3 -82 -5 0 -10 12 -10 28 -1 17 -3 21 -6
9 -3 -10 -1 -26 3 -35 11 -26 12 -52 2 -58 -5 -3 -3 -16 5 -27 8 -12 12 -33
10 -46 -3 -19 -1 -21 10 -12 8 6 17 8 20 4 4 -3 7 1 7 11 0 9 -4 15 -8 12 -5
-3 -9 1 -9 9 0 8 4 12 7 10 4 -3 8 6 8 20 0 14 -4 23 -8 20 -4 -3 -13 2 -20 9
-8 11 -9 20 0 35 13 26 16 26 16 2 0 -11 -4 -17 -9 -14 -5 3 -8 0 -6 -6 3 -7
9 -11 14 -9 14 4 12 95 -2 137 -7 20 -11 42 -8 49 2 6 2 12 -1 12 -2 0 -7 -6
-9 -12z"/>
<path d="M1303 1453 c-24 -2 -43 -8 -43 -14 0 -5 11 -7 25 -3 28 7 32 -4 14
-38 -6 -11 -8 -22 -5 -25 3 -3 9 3 12 13 4 10 16 31 26 47 11 15 18 26 16 25
-2 -1 -22 -3 -45 -5z"/>
<path d="M2234 1441 c19 -7 18 -8 -5 -15 -13 -5 -27 -9 -31 -10 -5 0 -7 -4 -5
-7 1 -3 -4 -14 -12 -23 -11 -13 -11 -16 -1 -14 7 2 15 -3 18 -11 3 -9 0 -11
-8 -6 -9 5 -11 4 -6 -4 4 -6 12 -9 17 -6 5 3 7 -7 5 -22 -4 -40 31 -44 41 -5
6 24 7 24 13 7 4 -11 4 -25 -1 -31 -12 -15 -1 -24 19 -16 14 5 15 4 2 -10 -8
-9 -17 -12 -18 -7 -2 5 -9 6 -14 3 -6 -4 -8 -2 -4 4 4 7 -5 10 -26 10 -18 -1
-27 -3 -20 -5 6 -3 12 -9 12 -14 0 -6 -4 -8 -8 -5 -5 3 -8 -7 -7 -22 1 -15 -3
-34 -9 -42 -10 -13 -9 -13 7 -1 16 12 21 9 18 -12 -1 -4 7 -3 17 2 11 6 24 6
33 0 7 -5 10 -9 5 -9 -5 0 -1 -9 8 -19 13 -15 14 -20 4 -24 -7 -3 -3 -5 8 -4
18 1 20 4 10 19 -6 10 -14 18 -19 18 -4 0 -5 5 -2 10 3 6 -1 13 -9 16 -27 10
-17 21 15 16 28 -4 30 -3 20 15 -5 11 -7 23 -4 27 3 3 1 6 -7 6 -10 0 -10 3 0
15 7 8 9 15 5 15 -4 0 -1 8 6 17 10 11 10 14 2 9 -7 -4 -14 -2 -14 3 -3 20 -4
26 -11 37 -4 6 -6 21 -3 33 2 12 0 19 -6 16 -13 -9 -11 9 4 25 6 8 2 6 -10 -4
-13 -10 -20 -22 -18 -27 3 -4 -2 -15 -11 -24 -15 -15 -17 -14 -29 2 -16 22
-11 30 9 14 10 -8 16 -9 21 -1 3 5 -1 10 -9 10 -18 0 -21 16 -6 25 6 3 10 0
10 -7 1 -8 6 -6 15 6 17 22 11 36 -13 35 -14 0 -14 -2 2 -8z m-15 -202 c-12
-7 -11 -9 1 -9 12 0 12 -2 1 -9 -8 -5 -9 -11 -3 -15 13 -8 26 10 17 23 -3 5
-1 12 5 16 5 3 10 2 10 -4 0 -6 6 -9 13 -7 6 1 9 1 4 -1 -4 -3 -4 -10 -1 -15
4 -7 2 -8 -4 -4 -6 3 -15 -1 -20 -11 -8 -14 -13 -15 -25 -5 -16 13 -16 23 -2
56 6 14 10 16 13 7 2 -7 -2 -17 -9 -22z"/>
<path d="M1624 1421 c3 -5 0 -14 -8 -20 -8 -6 -11 -22 -8 -37 3 -18 7 -22 13
-13 4 8 3 20 -4 28 -10 12 -9 14 5 8 13 -4 15 -2 11 10 -5 12 -3 14 8 8 12 -8
12 -6 0 8 -14 18 -26 24 -17 8z"/>
<path d="M2125 1351 c1 -9 -1 -25 -5 -36 -8 -23 -3 -45 11 -45 6 0 7 5 4 10
-3 6 -2 10 4 10 5 0 8 9 6 20 -2 11 0 22 5 25 13 8 2 32 -14 32 -8 0 -13 -7
-11 -16z"/>
<path d="M1608 1319 c17 -19 15 -29 -5 -22 -16 6 -16 5 -5 -10 12 -14 16 -15
28 -2 19 19 44 9 39 -16 -2 -11 0 -17 6 -14 5 4 7 11 4 16 -4 5 -1 9 4 9 6 0
11 5 11 10 0 6 -9 10 -19 10 -11 0 -26 6 -33 13 -7 6 -20 13 -28 15 -12 3 -13
1 -2 -9z"/>
<path d="M2024 1299 c3 -17 6 -40 6 -50 0 -11 4 -19 9 -19 5 0 5 17 0 41 -5
22 -7 44 -4 50 4 5 1 9 -6 9 -8 0 -9 -10 -5 -31z"/>
<path d="M1186 1312 c1 -2 -12 -16 -29 -33 -20 -21 -26 -34 -20 -40 13 -13
100 -1 110 14 4 6 -7 7 -33 2 -38 -7 -38 -6 -21 12 14 16 14 22 4 34 -6 8 -11
13 -11 11z m-1 -42 c-8 -9 -12 -20 -8 -23 3 -4 -4 -7 -16 -7 -15 0 -20 4 -15
13 15 25 24 34 39 34 13 0 13 -2 0 -17z"/>
<path d="M2376 1274 c-3 -9 -4 -20 -1 -24 3 -5 -4 -7 -15 -5 -11 2 -18 0 -15
-6 4 -5 15 -9 26 -9 14 0 19 7 19 30 0 33 -5 38 -14 14z"/>
<path d="M1280 1255 c0 -20 18 -38 33 -32 8 3 20 1 26 -4 6 -5 9 -6 6 -3 -3 4
1 14 8 22 10 13 9 15 -5 9 -11 -4 -18 -2 -18 6 0 7 -5 4 -11 -6 -10 -18 -11
-18 -25 0 -7 10 -13 14 -14 8z"/>
<path d="M1668 1241 c-24 -15 -25 -18 -10 -28 15 -10 14 -12 -8 -21 -14 -6
-18 -11 -9 -11 8 -1 20 4 27 11 8 8 12 8 12 1 0 -11 -29 -28 -42 -25 -5 1 -8
-2 -8 -8 0 -17 38 -11 72 11 18 11 25 19 16 17 -9 -2 -16 -1 -16 2 1 3 -4 14
-10 26 -8 16 -8 24 0 32 16 16 8 14 -24 -7z"/>
<path d="M1361 1198 c-1 -11 -8 -16 -20 -13 -11 2 -25 -3 -32 -11 -13 -16 -44
-20 -34 -4 3 6 1 10 -4 10 -6 0 -11 -4 -11 -9 0 -5 -7 -17 -16 -25 -14 -15
-14 -16 0 -16 9 0 16 5 16 11 0 7 12 10 30 7 17 -3 30 -1 30 4 0 4 5 8 11 8 5
0 7 -6 4 -12 -4 -7 3 -2 14 11 19 21 21 21 22 5 0 -11 3 -14 5 -8 3 6 0 22 -5
35 -7 16 -10 19 -10 7z"/>
<path d="M1818 1198 c-7 -4 -27 -8 -44 -8 -30 0 -32 -2 -38 -48 -3 -27 -18
-72 -32 -100 l-25 -51 34 -53 c43 -64 77 -102 184 -197 47 -41 87 -70 93 -66
7 4 14 -2 17 -13 4 -16 10 -19 27 -13 11 5 26 6 33 4 16 -6 97 34 119 58 21
23 27 49 14 64 -7 8 -1 10 20 7 18 -3 30 0 30 7 0 10 -12 15 -31 13 -3 -1 -1
14 5 32 7 23 16 32 30 32 17 -1 21 5 21 32 0 17 2 32 6 32 3 0 3 14 1 31 -7
44 -22 15 -18 -33 5 -43 -7 -49 -29 -14 -12 18 -13 30 -6 50 6 14 15 26 21 26
5 0 10 7 10 15 0 23 -19 18 -30 -7 -5 -13 -9 -19 -9 -14 -1 5 -8 3 -16 -4 -12
-10 -15 -9 -15 5 0 12 -6 16 -20 12 -11 -3 -20 -1 -20 4 0 5 -7 9 -15 9 -23 0
-18 -17 8 -25 l22 -7 -25 -7 c-22 -6 -26 -4 -32 26 -4 18 -17 51 -28 74 -19
37 -20 42 -6 71 15 29 15 32 -6 50 -20 17 -36 19 -130 17 -59 -1 -113 -6 -120
-11z m215 -42 c3 -7 2 -17 -3 -22 -5 -5 6 -44 26 -89 51 -115 40 -166 -53
-258 l-49 -47 -64 55 c-68 59 -133 132 -155 175 -12 23 -11 32 5 67 10 22 21
54 25 71 11 53 28 58 171 61 70 1 93 -2 97 -13z m158 -208 c7 -13 15 -25 20
-28 4 -3 0 -14 -8 -25 -10 -13 -14 -14 -10 -4 3 9 -3 20 -14 27 -10 7 -19 10
-19 8 0 -2 -3 -11 -6 -20 -3 -9 -1 -16 6 -16 6 0 8 5 4 12 -4 7 -3 8 4 4 14
-8 16 -36 3 -36 -5 0 -11 -10 -14 -21 -5 -18 -11 -20 -34 -14 -36 9 -34 6 -27
43 4 18 12 32 20 32 7 0 16 5 20 12 5 8 2 9 -10 5 -13 -5 -17 -2 -14 10 3 14
27 27 60 32 4 1 13 -9 19 -21z m23 -97 c3 -4 -3 -16 -14 -26 -11 -10 -20 -14
-20 -9 -1 5 -9 -2 -20 -15 -23 -27 -17 -45 11 -36 24 8 25 -13 3 -41 -13 -16
-15 -16 -10 -2 4 15 -1 17 -36 14 -25 -3 -50 1 -63 10 -21 14 -22 13 -22 -11
0 -14 3 -25 8 -25 11 0 11 -21 0 -39 -7 -11 -14 -10 -40 8 -17 12 -31 27 -31
32 0 6 25 35 56 64 51 50 57 53 80 43 18 -8 28 -9 32 -1 4 5 15 9 24 7 10 -1
20 2 24 7 3 5 -2 9 -10 9 -9 0 -16 5 -16 10 0 12 37 13 44 1z"/>
<path d="M2094 1196 c11 -9 27 -16 36 -16 9 0 34 -15 56 -34 48 -41 126 -79
151 -73 12 3 0 12 -40 30 -69 32 -138 77 -133 86 3 4 -3 7 -12 8 -9 1 -30 5
-47 8 -29 6 -29 6 -11 -9z"/>
<path d="M519 1191 c-7 -20 11 -154 22 -165 12 -13 11 10 -5 104 -7 41 -14 69
-17 61z"/>
<path d="M1109 1198 c-1 -2 -3 -13 -4 -25 -3 -30 24 -53 50 -43 17 7 17 9 3 9
-10 1 -18 7 -18 15 0 8 -8 17 -17 19 -17 4 -17 5 0 6 21 1 23 21 2 21 -8 0
-16 -1 -16 -2z"/>
<path d="M691 1170 c-21 -12 -15 -110 7 -126 9 -7 18 -12 19 -11 1 1 -2 35 -5
74 -6 60 -10 71 -21 63z"/>
<path d="M383 1148 c-1 -10 2 -20 8 -23 5 -4 9 -1 9 5 0 6 4 9 9 6 5 -3 11 2
13 12 4 12 -1 17 -17 17 -13 0 -22 -7 -22 -17z"/>
<path d="M2084 1143 c4 -4 15 -8 23 -8 23 0 27 -20 7 -39 -9 -9 -13 -20 -9
-24 4 -4 15 3 25 16 11 13 21 18 25 12 8 -13 -18 -40 -39 -40 -24 0 -8 -27 19
-33 14 -2 22 0 19 4 -3 5 -13 9 -22 9 -12 0 -11 4 8 17 17 12 25 13 28 5 2 -7
8 -9 14 -6 7 5 9 -2 6 -20 -7 -37 4 -40 38 -10 16 15 23 23 17 20 -9 -5 -13 0
-13 13 0 11 -12 33 -26 51 -22 25 -29 28 -41 18 -12 -10 -18 -9 -28 5 -7 9
-23 17 -35 17 -13 0 -20 -3 -16 -7z m112 -52 c-5 -8 -12 -7 -22 4 -9 8 -12 20
-8 26 4 8 11 6 21 -4 9 -8 12 -20 9 -26z"/>
<path d="M1591 1126 c-9 -10 -8 -16 4 -26 8 -7 12 -16 9 -21 -3 -5 2 -6 10 -3
11 4 16 0 16 -10 0 -18 8 -20 30 -6 8 5 10 10 4 10 -7 0 -15 11 -18 25 -4 14
-12 25 -19 25 -8 0 -7 4 3 10 12 8 11 10 -6 10 -12 0 -27 -6 -33 -14z"/>
<path d="M1185 1110 c-30 -5 -31 -10 -14 -42 10 -19 34 -15 43 8 5 12 2 12
-15 3 -17 -9 -20 -8 -14 2 6 8 4 10 -6 4 -11 -6 -11 -5 -3 4 15 16 50 9 46 -8
-2 -9 4 -12 17 -8 26 7 35 -19 26 -82 -11 -80 -18 -82 -73 -25 -33 34 -53 65
-62 98 -11 41 -16 47 -34 42 -12 -3 -27 -6 -33 -6 -7 0 -13 -7 -13 -16 0 -8 5
-12 11 -9 6 4 19 -2 30 -14 23 -24 24 -35 4 -27 -21 8 -19 -8 5 -29 27 -25 25
-32 -11 -40 -29 -7 -30 -8 -13 -26 22 -24 49 -26 40 -1 -7 16 -6 16 11 -1 18
-18 14 -27 -19 -39 -3 -2 -10 -16 -14 -32 -6 -25 -4 -28 10 -23 23 9 77 -3 70
-15 -4 -6 -25 -8 -49 -5 l-41 6 -77 -152 c-41 -84 -91 -178 -110 -209 -25 -40
-32 -59 -24 -67 15 -15 38 -13 61 4 18 14 18 15 -8 26 -14 7 -26 16 -26 21 0
13 17 9 34 -7 20 -20 26 -19 61 11 17 15 47 37 68 51 21 13 36 27 33 32 -3 4
7 23 23 42 37 46 81 122 108 189 36 87 29 91 -44 26 -59 -53 -109 -142 -129
-229 -12 -54 -13 -56 -9 -16 7 71 42 154 95 224 50 66 80 126 46 92 -20 -20
-25 -20 -46 -7 -12 7 -8 10 15 11 29 0 29 1 8 11 -27 13 -28 18 -9 43 13 18
15 18 39 2 15 -9 41 -19 59 -21 40 -6 68 -16 68 -25 0 -4 6 -8 13 -8 6 0 21
-4 32 -7 11 -4 2 3 -20 15 -22 12 -42 26 -43 30 -2 5 -8 7 -13 3 -13 -8 -11 3
11 70 23 69 25 87 7 80 -16 -6 -41 21 -33 34 7 12 -48 19 -89 12z m-25 -398
c0 -14 -61 -94 -67 -89 -5 6 54 97 62 97 3 0 5 -4 5 -8z m-130 -137 c-14 -50
-70 -113 -70 -79 0 24 73 150 78 134 2 -6 -1 -31 -8 -55z"/>
<path d="M438 1097 c-7 -8 -19 -12 -26 -9 -7 2 -12 -5 -11 -20 1 -15 3 -17 6
-6 4 15 21 16 63 5 5 -1 8 3 8 8 0 6 -5 9 -10 7 -6 -2 -8 4 -5 13 8 19 -7 20
-25 2z"/>
<path d="M1311 1099 c27 -10 28 -18 15 -84 -5 -22 -2 -20 9 10 21 54 13 85
-23 84 l-27 -1 26 -9z"/>
<path d="M979 1089 c-136 -32 -385 -165 -463 -248 -17 -17 -39 -31 -50 -31
-18 -1 -14 -7 21 -39 49 -44 98 -61 178 -61 109 0 203 46 290 142 56 61 83
116 85 173 4 83 6 80 -61 64z m35 -54 c3 -8 1 -15 -4 -15 -12 0 -14 -36 -2
-43 4 -2 2 -2 -5 -1 -14 3 -25 -24 -16 -39 3 -7 2 -9 -2 -4 -9 7 -75 -50 -75
-65 0 -5 12 -1 28 9 15 9 3 -7 -26 -35 -30 -29 -59 -49 -64 -45 -6 3 -8 1 -5
-4 4 -6 -1 -17 -10 -24 -14 -12 -16 -12 -8 1 7 12 5 12 -11 -1 -34 -29 -113
-40 -184 -24 -19 4 -41 8 -47 8 -21 1 -15 23 10 34 12 6 31 8 42 5 11 -2 49
-5 85 -5 56 -1 74 3 122 30 31 18 59 29 62 25 4 -3 4 1 1 10 -5 13 -14 11 -63
-16 -52 -28 -65 -31 -147 -31 -68 0 -97 -4 -117 -17 -21 -14 -29 -15 -43 -4
-16 11 -13 16 31 54 63 53 200 131 311 176 96 39 128 44 137 21z"/>
<path d="M1566 1078 c4 -7 14 -21 22 -30 10 -12 13 -29 8 -57 -6 -39 6 -65 18
-36 3 8 1 15 -5 15 -6 0 -6 7 1 19 16 31 12 52 -16 77 -28 26 -39 31 -28 12z"/>
<path d="M647 1024 c4 -10 2 -15 -3 -11 -6 3 -16 2 -24 -4 -13 -7 -13 -9 -1
-9 10 0 5 -11 -15 -32 -16 -18 -20 -25 -8 -15 11 9 35 22 52 28 23 8 32 17 31
32 0 21 -1 21 -9 2 -7 -16 -9 -17 -9 -3 -1 9 -5 20 -11 23 -6 4 -7 -1 -3 -11z"/>
<path d="M427 1019 c-9 -6 -21 -8 -26 -5 -5 4 -7 -3 -4 -13 3 -11 11 -22 18
-25 9 -3 12 0 8 10 -3 7 -1 14 5 14 6 0 12 -6 14 -12 3 -8 10 -4 17 11 7 13 8
21 3 17 -6 -3 -12 -2 -14 3 -2 6 -10 6 -21 0z"/>
<path d="M1458 975 c-19 -24 -38 -42 -42 -40 -3 3 -4 2 -1 -2 3 -3 -2 -18 -12
-32 -16 -25 -16 -25 2 -11 10 8 28 32 41 52 14 21 29 38 35 38 6 0 30 -18 52
-40 26 -27 44 -37 50 -31 6 6 18 -1 32 -22 65 -91 135 -196 135 -201 0 -23
-117 83 -172 155 -25 34 -39 44 -49 38 -9 -4 -27 -9 -42 -11 -38 -6 -39 -9 -6
-48 23 -27 26 -29 13 -7 -9 15 -14 30 -11 34 4 3 11 -5 16 -18 9 -26 66 -100
122 -161 37 -40 89 -135 89 -162 0 -26 30 -66 50 -66 41 0 51 11 45 49 -20
123 -62 263 -85 281 -3 3 -26 34 -51 70 -41 61 -76 97 -90 93 -3 -1 -21 18
-40 42 -19 24 -37 44 -40 45 -4 0 -22 -20 -41 -45z m205 -274 c77 -64 88 -82
102 -163 4 -24 2 -38 -5 -38 -5 0 -10 7 -10 16 0 20 -41 94 -51 94 -4 0 -10 8
-13 18 -3 9 -16 28 -28 42 -69 76 -108 124 -108 133 0 5 9 -1 19 -14 10 -14
53 -53 94 -88z"/>
<path d="M534 972 c-3 -17 -14 -33 -23 -35 -11 -3 -10 -5 5 -6 16 -1 23 6 28
31 3 17 4 33 1 36 -3 3 -8 -9 -11 -26z"/>
<path d="M459 976 c-1 -3 -2 -11 -3 -17 0 -6 -10 -17 -21 -25 -19 -14 -19 -14
5 -11 14 3 30 1 36 -4 7 -5 11 -3 11 6 0 8 -5 11 -10 8 -6 -4 -8 2 -5 15 4 12
2 25 -3 28 -5 3 -10 3 -10 0z"/>
<path d="M1675 911 c-11 -5 -24 -6 -29 -3 -5 2 -7 -1 -4 -8 7 -21 21 -21 48 0
26 20 20 25 -15 11z"/>
<path d="M1216 884 c-3 -9 -4 -19 -1 -22 3 -3 5 -3 5 1 0 3 14 2 31 -3 18 -5
29 -7 25 -3 -3 3 -1 12 4 18 7 9 3 11 -18 10 -15 -1 -30 3 -33 8 -3 5 -9 1
-13 -9z"/>
<path d="M433 875 c-3 -10 2 -24 12 -33 16 -16 17 -16 5 6 -6 13 -9 26 -6 29
3 3 8 -2 12 -11 8 -21 34 -21 34 1 0 9 -3 13 -6 10 -4 -3 -15 -2 -25 4 -15 8
-21 6 -26 -6z"/>
<path d="M1352 777 c-11 -40 -23 -92 -26 -117 -3 -25 -12 -101 -21 -170 -17
-127 -17 -297 -1 -307 4 -3 21 -7 37 -8 21 -2 29 2 29 14 0 14 2 14 11 1 9
-13 10 -12 5 2 -7 22 13 35 25 17 7 -11 9 -10 9 4 0 9 7 17 16 17 13 0 14 3 5
14 -6 7 -9 21 -5 30 9 24 -13 20 -44 -9 -29 -27 -48 -31 -72 -15 -13 8 -12 10
5 11 11 1 25 3 32 3 6 1 15 5 20 10 4 4 -11 5 -34 1 -26 -4 -43 -3 -43 3 0 5
17 13 38 16 83 15 91 17 86 31 -3 7 3 16 15 20 11 3 23 14 26 25 7 23 33 45
43 36 4 -4 -4 -16 -18 -26 -14 -11 -20 -20 -13 -20 7 0 25 11 40 25 22 19 24
24 11 25 -10 0 -18 3 -18 6 0 10 26 31 48 38 12 4 22 12 22 17 0 6 4 8 9 5 4
-3 6 18 4 47 -11 138 -77 253 -174 302 l-46 24 -21 -72z m85 -2 c12 -8 36 -34
54 -57 32 -40 34 -45 33 -127 -1 -47 1 -66 3 -41 4 60 12 90 21 90 4 0 8 -8 9
-17 1 -10 4 -42 8 -71 5 -37 4 -57 -6 -68 -12 -14 -14 -14 -26 2 -12 17 -13
16 -13 -5 0 -15 -22 -45 -65 -87 -52 -51 -71 -64 -97 -64 l-31 0 7 100 c8 116
32 281 47 328 12 35 24 39 56 17z m-12 -535 c-3 -5 -12 -10 -19 -10 -7 0 -20
-8 -30 -19 -19 -20 -57 -23 -64 -3 -2 6 0 12 5 13 4 0 20 2 35 3 15 1 33 7 40
14 14 14 42 16 33 2z"/>
<path d="M1267 783 c-9 -9 24 -32 47 -33 16 0 15 3 -7 20 -28 22 -31 23 -40
13z"/>
<path d="M2201 709 c-24 -27 -59 -54 -77 -61 -19 -7 -34 -16 -34 -20 0 -5 14
-1 30 7 17 9 36 13 43 9 7 -4 9 -4 5 0 -7 9 22 46 35 46 5 0 3 -8 -4 -17 -13
-16 -12 -17 3 -4 10 7 16 16 13 20 -2 4 7 20 21 36 13 15 24 30 24 32 0 11
-21 -5 -59 -48z"/>
<path d="M1830 710 c-33 -32 -43 -65 -10 -35 27 25 25 7 -2 -24 l-23 -26 26
22 c19 17 28 20 37 11 8 -8 15 -8 26 1 8 7 21 10 28 6 7 -4 4 1 -6 9 -11 9
-14 16 -7 16 7 0 9 5 5 11 -4 8 -12 1 -22 -16 -14 -27 -15 -27 -28 -11 -10 14
-10 22 -1 36 6 10 15 16 21 13 5 -3 6 -1 2 5 -10 16 -11 16 -46 -18z"/>
<path d="M1254 696 c11 -9 29 -16 40 -16 28 0 8 17 -29 25 -29 6 -29 6 -11 -9z"/>
<path d="M761 693 c9 -2 21 -15 27 -28 7 -14 17 -25 24 -25 10 0 10 2 0 9 -8
4 -13 10 -12 12 5 15 -16 39 -34 38 -14 -1 -16 -3 -5 -6z"/>
<path d="M719 661 c11 -15 17 -32 13 -36 -4 -5 -1 -5 6 -1 7 4 12 2 12 -7 0
-7 10 -24 23 -37 12 -14 20 -26 18 -28 -2 -3 7 -19 21 -36 13 -17 27 -39 31
-49 6 -17 27 -15 27 2 0 11 -82 135 -92 139 -5 2 -6 8 -2 13 3 5 -2 12 -10 15
-9 3 -13 10 -10 15 3 5 0 9 -5 9 -6 0 -11 7 -11 15 0 8 -9 15 -21 15 l-20 0
20 -29z"/>
<path d="M588 630 c-15 -4 -28 -7 -30 -5 -2 2 -3 -11 -3 -29 0 -24 5 -32 18
-34 11 0 25 -9 32 -19 11 -15 12 -13 9 16 -4 30 -2 32 13 20 14 -12 16 -12 8
0 -6 11 -4 13 8 8 9 -3 16 -3 15 1 -1 4 2 15 7 25 4 10 5 21 1 24 -3 4 -6 -1
-6 -11 0 -9 -5 -14 -10 -11 -6 4 -7 12 -3 18 4 7 1 7 -9 -1 -10 -8 -14 -20
-11 -29 5 -11 3 -14 -6 -9 -7 5 -11 17 -8 27 3 11 4 19 4 18 -1 0 -14 -4 -29
-9z"/>
<path d="M820 620 c8 -5 11 -10 7 -10 -5 0 1 -14 13 -30 12 -17 26 -28 31 -25
10 7 -41 75 -56 75 -5 0 -3 -5 5 -10z"/>
<path d="M2356 614 c-4 -9 -9 -14 -13 -11 -3 4 -17 -8 -30 -25 -27 -37 -29
-46 -8 -28 8 7 15 9 15 5 0 -4 7 -2 15 5 8 7 12 16 9 21 -3 5 -1 9 4 9 10 0
25 30 18 37 -2 2 -6 -4 -10 -13z"/>
<path d="M711 544 c-21 -23 -26 -32 -13 -25 14 7 23 8 27 1 10 -16 25 -11 24
8 0 10 -3 12 -6 4 -2 -6 -9 -10 -13 -7 -5 3 -7 12 -4 20 4 8 9 13 13 10 4 -2
8 2 8 10 0 8 -1 15 -1 15 -1 0 -16 -16 -35 -36z"/>
<path d="M1205 567 c11 -7 38 -18 60 -25 36 -10 38 -10 21 3 -11 8 -28 15 -37
15 -10 0 -21 5 -24 10 -3 6 -14 10 -23 10 -14 0 -13 -2 3 -13z"/>
<path d="M1117 509 c-10 -9 -14 -20 -9 -23 5 -3 15 1 22 9 7 8 17 12 22 9 6
-4 5 -10 -3 -15 -11 -7 -11 -9 3 -9 10 0 15 -7 14 -17 -3 -16 -10 -19 -47 -14
-5 0 -7 7 -3 14 4 6 4 9 -1 5 -4 -4 -14 0 -22 10 -12 16 -13 16 -7 0 4 -13 -1
-19 -20 -24 -14 -3 -23 -10 -20 -15 3 -5 13 -5 24 1 14 7 19 6 24 -6 4 -11 2
-15 -7 -11 -8 3 -20 2 -26 -3 -9 -5 -4 -7 13 -7 15 0 29 4 32 8 3 5 10 6 16 3
6 -4 5 -10 -3 -15 -11 -7 -11 -9 -1 -9 7 0 17 10 22 23 5 12 9 16 9 8 1 -11 5
-10 16 5 13 16 14 16 9 2 -4 -11 -1 -18 6 -18 6 0 9 4 6 9 -3 4 0 16 8 26 11
16 13 13 12 -19 -1 -25 -5 -35 -13 -31 -22 8 -14 -3 20 -26 27 -20 30 -20 17
-3 -31 39 -24 81 13 75 4 -1 2 8 -5 19 -7 11 -15 15 -19 9 -3 -6 -9 -1 -12 11
-4 15 -10 19 -18 14 -10 -6 -10 -9 -1 -12 7 -2 12 -8 12 -13 0 -4 -7 -6 -15
-3 -8 4 -15 11 -15 18 0 6 -8 16 -17 22 -14 8 -22 7 -36 -7z"/>
<path d="M2264 503 c-44 -60 -39 -73 10 -28 15 14 22 25 17 25 -6 0 -11 5 -11
11 0 5 4 8 8 5 4 -2 14 -1 22 5 12 7 11 9 -6 9 -11 0 -29 -12 -40 -27z"/>
<path d="M690 491 c-8 -3 -16 -12 -18 -19 -3 -18 16 -52 30 -52 6 0 21 -8 32
-17 16 -14 18 -14 8 -2 -6 9 -8 20 -4 24 4 5 2 6 -3 2 -15 -8 -59 28 -51 41 4
6 13 9 21 6 8 -4 13 -10 10 -14 -3 -5 -1 -11 5 -15 5 -3 10 2 10 12 0 11 4 23
9 29 12 11 -26 15 -49 5z"/>
<path d="M780 475 c-7 -8 -16 -13 -20 -10 -14 9 -23 -16 -11 -28 9 -9 10 -7 5
8 -7 17 -6 18 8 7 12 -10 18 -47 7 -47 -1 0 -2 -12 -3 -27 -1 -15 2 -24 6 -21
5 2 6 14 2 26 -6 19 -5 20 9 9 10 -9 17 -10 22 -2 4 6 1 9 -6 8 -7 -2 -13 6
-14 17 0 11 -4 25 -8 32 -4 7 2 18 15 27 12 9 17 16 11 16 -6 0 -16 -7 -23
-15z"/>
<path d="M797 464 c-3 -4 -2 -14 3 -24 5 -10 6 -21 2 -25 -4 -5 -2 -5 5 -2 6
4 14 1 16 -5 3 -7 6 -3 6 10 1 13 -3 20 -9 17 -5 -3 -10 -1 -10 4 0 6 5 11 11
11 5 0 7 5 4 10 -7 11 -19 13 -28 4z"/>
<path d="M1590 439 c0 -11 -4 -18 -9 -15 -5 3 -8 -2 -7 -11 0 -9 -14 -27 -31
-39 l-33 -22 34 -4 c29 -3 37 1 50 23 18 30 22 89 6 89 -5 0 -10 -9 -10 -21z"/>
<path d="M1020 427 c0 -10 -4 -15 -10 -12 -5 3 -11 1 -11 -4 -1 -6 -2 -17 -3
-23 0 -7 -5 -13 -11 -13 -23 0 -36 -17 -25 -30 8 -9 8 -15 0 -18 -6 -3 -5 -4
2 -3 7 2 12 13 10 26 -2 14 0 20 7 16 6 -4 11 -14 11 -22 0 -8 5 -14 10 -14 7
0 7 6 1 19 -12 22 -6 31 23 32 18 1 18 2 -4 9 -16 5 -19 8 -8 9 22 1 29 13 17
31 -7 12 -9 12 -9 -3z"/>
<path d="M1468 332 c-32 -7 -30 -34 6 -66 39 -35 36 -55 -7 -50 -23 2 -27 0
-22 -16 5 -15 2 -18 -15 -15 -12 2 -32 -2 -44 -10 -13 -8 -26 -12 -29 -8 -4 3
-7 1 -7 -5 0 -33 113 8 168 61 19 18 40 46 48 62 14 28 14 29 -1 10 -9 -11
-18 -19 -20 -17 -13 6 -24 1 -21 -10 1 -7 1 -10 -1 -5 -3 4 -11 7 -19 7 -7 0
-16 11 -20 25 -9 37 2 42 19 9 l14 -28 13 25 c12 22 12 23 -4 10 -14 -12 -16
-12 -11 1 7 16 -17 27 -47 20z"/>
<path d="M866 304 c-9 -25 4 -37 34 -31 15 3 33 1 40 -6 7 -7 2 3 -10 21 -25
34 -54 42 -64 16z"/>
<path d="M1570 264 c0 -14 -51 -68 -83 -89 -15 -10 -26 -20 -23 -22 7 -8 65
39 93 75 14 18 22 36 19 39 -3 4 -6 2 -6 -3z"/>
<path d="M1009 243 c-1 -4 -1 -11 0 -15 0 -5 -3 -8 -9 -8 -5 0 -10 5 -10 12 0
6 -3 9 -6 5 -4 -3 -4 -13 -1 -22 5 -12 11 -13 32 -3 14 6 24 16 22 22 -4 13
-27 20 -28 9z"/>
<path d="M1112 197 c-17 -10 -20 -15 -10 -25 14 -14 42 -16 33 -2 -3 5 0 7 9
4 10 -4 14 0 12 12 -4 23 -16 26 -44 11z"/>
<path d="M1243 168 c-11 -18 -10 -32 1 -40 15 -10 46 21 39 38 -6 17 -29 18
-40 2z"/>
<path d="M2475 90 c-11 -4 -24 -5 -28 -3 -4 3 -13 0 -20 -5 -7 -5 -20 -8 -29
-7 -19 3 -24 -10 -8 -20 6 -4 7 -12 3 -18 -3 -7 4 -3 17 8 19 16 22 17 17 3
-8 -22 3 -30 21 -15 13 10 15 9 9 -8 -7 -20 -7 -20 8 -1 8 11 16 17 16 13 1
-4 2 -11 3 -16 0 -5 5 -13 10 -18 5 -4 6 -3 2 4 -3 6 -2 14 4 18 5 3 10 0 10
-7 0 -8 3 -9 8 -3 13 19 35 17 28 -2 -6 -14 -4 -15 5 -6 6 6 9 20 5 30 -6 15
-8 15 -17 3 -7 -11 -8 -8 -5 12 3 17 -1 32 -12 40 -13 11 -14 11 -7 -2 7 -12
6 -13 -6 -4 -8 7 -23 8 -34 4z"/>
<path d="M2550 90 c-15 -9 -13 -19 11 -49 10 -13 16 -28 12 -35 -4 -7 -1 -6 9
1 8 7 17 11 19 9 2 -2 5 13 6 35 1 21 -1 39 -5 40 -4 0 -14 2 -23 4 -9 1 -22
-1 -29 -5z"/>
<path d="M2308 69 c-6 -4 -17 -5 -24 -2 -7 3 -18 2 -24 -2 -5 -3 -45 -8 -88
-11 -130 -7 -336 -35 -347 -46 -7 -7 -7 -9 0 -6 6 3 44 9 85 13 41 4 82 8 90
10 36 7 150 18 206 19 33 2 65 6 71 9 6 4 14 1 16 -5 4 -10 6 -10 6 0 1 6 6
12 12 12 5 0 8 -4 5 -8 -3 -5 1 -9 9 -9 8 0 12 4 9 9 -3 4 2 8 11 8 9 0 14 -4
11 -8 -3 -5 1 -9 8 -9 7 0 11 8 9 17 -4 16 -44 22 -65 9z"/>
</g>
</svg>
